{
classes = (
{
code = "A Aacute Abreve Acircumflex Adieresis Agrave Amacron Aogonek Aring Atilde AE B C Cacute Ccaron Ccedilla Cdotaccent D Eth Dcaron Dcroat E Eacute Ecaron Ecircumflex Edieresis Edotaccent Egrave Emacron Eogonek F G Gbreve Gcommaaccent Gdotaccent H Hbar I Iacute Icircumflex Idieresis Idotaccent Igrave Imacron Iogonek J K Kcommaaccent L Lacute Lcaron Lcommaaccent Lslash M N Nacute Ncaron Ncommaaccent Eng Ntilde O Oacute Ocircumflex Odieresis Ograve Ohungarumlaut Omacron Oslash Otilde OE P Thorn Q R Racute Rcaron Rcommaaccent S Sacute Scaron Scedilla Scommaaccent Germandbls T Tbar Tcaron Tcedilla Tcommaaccent U Uacute Ucircumflex Udieresis Ugrave Uhungarumlaut Umacron Uogonek Uring V W Wacute Wcircumflex Wdieresis Wgrave X Y Yacute Ycircumflex Ydieresis Ygrave Z Zacute Zcaron Zdotaccent A-cy Be-cy Ve-cy Ge-cy Gje-cy Gheupturn-cy De-cy Ie-cy Iegrave-cy Io-cy Zhe-cy Ze-cy Ii-cy Iishort-cy Iigrave-cy Ka-cy Kje-cy El-cy Em-cy En-cy O-cy Pe-cy Er-cy Es-cy Te-cy U-cy Ushort-cy Ef-cy Ha-cy Che-cy Tse-cy Sha-cy Shcha-cy Dzhe-cy Softsign-cy Hardsign-cy Yeru-cy Lje-cy Nje-cy Dze-cy E-cy Ereversed-cy I-cy Yi-cy Je-cy Tshe-cy Iu-cy Ia-cy Dje-cy Ustrait-cy Shha-cy Obarred-cy De-cy.loclBGR Zhe-cy.loclBGR Ka-cy.loclBGR El-cy.loclBGR Alpha Beta Gamma Delta Epsilon Zeta Eta Theta Iota Kappa Lambda Mu Nu Xi Omicron Pi Rho Sigma Tau Upsilon Phi Chi Psi Omega Alphatonos Epsilontonos Etatonos Iotatonos Omicrontonos Upsilontonos Omegatonos Iotadieresis Upsilondieresis";
name = Uppercase;
},
{
code = "zero one two three four five six seven eight nine";
name = Digit;
}
);
copyright = "Copyright 2019 The Manrope Project Authors (https://github.com/sharanda/manrope)";
designer = "Mikhail Sharanda";
designerURL = "http://gent.media";
familyName = Manrope;
customParameters = (
{
name = glyphOrder;
value = (
.notdef,
.null,
CR,
space,
A,
Aacute,
Abreve,
Abreveacute,
Abrevedotbelow,
Abrevegrave,
Abrevehookabove,
Abrevetilde,
Acircumflex,
Acircumflexacute,
Acircumflexdotbelow,

glyphs = (
{
glyphname = .notdef;
layers = (
{
layerId = "0AC95DCC-852B-4BE6-AF8C-4094AF10EB8A";
paths = (
{
closed = 1;
nodes = (
"1148 0 LINE",
"1173 114 LINE",
"93 114 LINE",
"68 0 LINE"
);
},
{
closed = 1;
nodes = (
"1180 144 LINE",
"1198 224 LINE",
"118 224 LINE",
"100 144 LINE"
);
},
{
closed = 1;
nodes = (
"1206 260 LINE",
"1222 334 LINE",
"142 334 LINE",
"126 260 LINE"
);
},
{
closed = 1;
nodes = (
"1231 374 LINE",
"1246 444 LINE",
"166 444 LINE",
"151 374 LINE"
);
},
{
closed = 1;
nodes = (
"1257 490 LINE",
"1271 556 LINE",
"191 556 LINE",
"177 490 LINE"
);
},
{
closed = 1;
nodes = (
"1282 606 LINE",
"1296 666 LINE",
"216 666 LINE",
"202 606 LINE"
);
},
{
closed = 1;
nodes = (
"1308 720 LINE",
"1320 776 LINE",
"240 776 LINE",
"228 720 LINE"
);
},
{
closed = 1;
nodes = (
"1334 838 LINE",
"1344 886 LINE",
"264 886 LINE",
"254 838 LINE"
);
},
{
closed = 1;
nodes = (
"1359 952 LINE",
"1369 996 LINE",
"289 996 LINE",
"279 952 LINE"
);
},
{
closed = 1;
nodes = (
"1384 1066 LINE",
"1394 1108 LINE",
"314 1108 LINE",
"304 1066 LINE"
);
},
{
closed = 1;
nodes = (
"1410 1184 LINE",
"1418 1220 LINE",
"338 1220 LINE",
"330 1184 LINE"
);
},
{
closed = 1;
nodes = (
"1436 1298 LINE",
"1443 1330 LINE",
"363 1330 LINE",
"356 1298 LINE"
);
},
{
closed = 1;
nodes = (
"1461 1414 LINE",
"1467 1440 LINE",
"387 1440 LINE",
"381 1414 LINE"
);
}
);
width = 1480;
},
{
layerId = "E58920B2-55F1-4AE6-872B-62598678C0E3";
paths = (
{
closed = 1;
nodes = (
"1148 0 LINE",
"1173 114 LINE",
"93 114 LINE",
"68 0 LINE"
);
},
{
closed = 1;
nodes = (
"1180 144 LINE",
"1198 224 LINE",
"118 224 LINE",
"100 144 LINE"
);
},
{
closed = 1;
nodes = (
"1206 260 LINE",
"1222 334 LINE",
"142 334 LINE",
"126 260 LINE"
);
},
{
closed = 1;
nodes = (
"1231 374 LINE",
"1246 444 LINE",
"166 444 LINE",
"151 374 LINE"
);
},
{
closed = 1;
nodes = (
"1257 490 LINE",
"1271 556 LINE",
"191 556 LINE",
"177 490 LINE"
);
},
{
closed = 1;
nodes = (
"1282 606 LINE",
"1296 666 LINE",
"216 666 LINE",
"202 606 LINE"
);
},
{
closed = 1;
nodes = (
"1308 720 LINE",
"1320 776 LINE",
"240 776 LINE",
"228 720 LINE"
);
},
{
closed = 1;
nodes = (
"1334 838 LINE",
"1344 886 LINE",
"264 886 LINE",
"254 838 LINE"
);
},
{
closed = 1;
nodes = (
"1359 952 LINE",
"1369 996 LINE",
"289 996 LINE",
"279 952 LINE"
);
},
{
closed = 1;
nodes = (
"1384 1066 LINE",
"1394 1108 LINE",
"314 1108 LINE",
"304 1066 LINE"
);
},
{
closed = 1;
nodes = (
"1410 1184 LINE",
"1418 1220 LINE",
"338 1220 LINE",
"330 1184 LINE"
);
},
{
closed = 1;
nodes = (
"1436 1298 LINE",
"1443 1330 LINE",
"363 1330 LINE",
"356 1298 LINE"
);
},
{
closed = 1;
nodes = (
"1461 1414 LINE",
"1467 1440 LINE",
"387 1440 LINE",
"381 1414 LINE"
);
}
);
width = 1480;
},
{
layerId = "A27E663E-A13B-4DBD-B069-4CF983ECD621";
name = Layer5;
width = 1260;
},
{
layerId = "6751CA47-F6ED-42D7-BE33-6F49EA595F73";
name = Layer4;
width = 1580;
},
{
layerId = "3F31DAF6-41B6-44B9-8019-106AE6FC3ECE";
name = Layer3;
width = 1200;
}
);
},
{
glyphname = A;
layers = (
{
layerId = "A27E663E-A13B-4DBD-B069-4CF983ECD621";
name = Layer5;
width = 1264;
},
{
layerId = "6751CA47-F6ED-42D7-BE33-6F49EA595F73";
name = Layer4;
width = 986;
},
{
layerId = "3F31DAF6-41B6-44B9-8019-106AE6FC3ECE";
name = Layer3;
paths = (
{
closed = 1;
nodes = (
"10 0 LINE",
"310 0 LINE",
"366 180 LINE",
"952 180 LINE",
"1008 0 LINE",
"1308 0 LINE",
"868 1440 LINE",
"450 1440 LINE"
);
},
{
closed = 1;
nodes = (
"660 1140 LINE",
"862 480 LINE",
"458 480 LINE"
);
}
);
width = 1318;
},
{
layerId = "0AC95DCC-852B-4BE6-AF8C-4094AF10EB8A";
paths = (
{
closed = 1;
nodes = (
"188 0 LINE",
"856 1270 LINE",
"804 1270 LINE",
"914 0 LINE",
"1194 0 LINE",
"1073 1440 LINE",
"667 1440 LINE",
"-92 0 LINE"
);
},
{
closed = 1;
nodes = (
"999 300 LINE",
"1055 554 LINE",
"295 554 LINE",
"239 300 LINE"
);
}
);
width = 1366;
},
{
layerId = "E58920B2-55F1-4AE6-872B-62598678C0E3";
paths = (
{
closed = 1;
nodes = (
"-2 0 LINE",
"817 1402 LINE",
"757 1402 LINE",
"956 0 LINE",
"1046 0 LINE",
"841 1440 LINE",
"751 1440 LINE",
"-92 0 LINE"
);
},
{
closed = 1;
nodes = (
"927 374 LINE",
"945 454 LINE",
"209 454 LINE",
"191 374 LINE"
);
}
);
width = 1218;
}
);
leftKerningGroup = A;
rightKerningGroup = A;
unicode = 0041;
},
{
glyphname = AE;
layers = (
{
layerId = "A27E663E-A13B-4DBD-B069-4CF983ECD621";
name = Layer5;
width = 1308;
},
{
layerId = "3F31DAF6-41B6-44B9-8019-106AE6FC3ECE";
name = Layer3;
width = 1200;
},
{
layerId = "6751CA47-F6ED-42D7-BE33-6F49EA595F73";
name = Layer4;
width = 1876;
},
{
components = (
{
name = E;
transform = "{1, 0, 0, 1, 710, 0}";
alignment = -1;
}
);
layerId = "0AC95DCC-852B-4BE6-AF8C-4094AF10EB8A";
paths = (
{
closed = 1;
nodes = (
"188 0 LINE",
"856 1272 LINE",
"721 1186 LINE",
"1071 1186 LINE",
"1127 1440 LINE",
"667 1440 LINE",
"-92 0 LINE"
);
},
{
closed = 1;
nodes = (
"999 300 LINE",
"1055 554 LINE",
"295 554 LINE",
"239 300 LINE"
);
}
);
width = 1890;
},
{
components = (
{
name = E;
transform = "{1, 0, 0, 1, 690, 0}";
alignment = -1;
}
);
layerId = "E58920B2-55F1-4AE6-872B-62598678C0E3";
paths = (
{
closed = 1;
nodes = (
"-2 0 LINE",
"814 1398 LINE",
"741 1356 LINE",
"1039 1356 LINE",
"1057 1440 LINE",
"751 1440 LINE",
"-92 0 LINE"
);
},
{
closed = 1;
nodes = (
"827 374 LINE",
"845 454 LINE",
"209 454 LINE",
"191 374 LINE"
);
}
);
width = 1810;
}
);
leftKerningGroup = A;
rightKerningGroup = E;
unicode = 00C6;
},
{
glyphname = B;
layers = (
{
layerId = "7447FE7B-D73D-4904-ADEA-265673B512E2";
name = public.background;
paths = (
{
closed = 1;
nodes = (
"686 800 LINE SMOOTH",
"774 800 OFFCURVE",
"874 844 OFFCURVE",
"928 924 CURVE SMOOTH",
"964 976 OFFCURVE",
"982 1038 OFFCURVE",
"982 1100 CURVE SMOOTH",
"982 1168 OFFCURVE",
"956 1226 OFFCURVE",
"910 1272 CURVE SMOOTH",
"854 1328 OFFCURVE",
"774 1358 OFFCURVE",
"686 1358 CURVE",
"220 1358 LINE",
"220 1440 LINE",
"686 1440 LINE",
"804 1440 OFFCURVE",
"898 1398 OFFCURVE",
"976 1324 CURVE SMOOTH",
"1038 1264 OFFCURVE",
"1072 1164 OFFCURVE",
"1072 1080 CURVE SMOOTH",
"1072 1004 OFFCURVE",
"1046 934 OFFCURVE",
"1002 872 CURVE SMOOTH",
"934 776 OFFCURVE",
"830 718 OFFCURVE",
"696 718 CURVE",
"220 718 LINE",
"220 800 LINE"
);
},
{
closed = 1;
nodes = (
"684 84 LINE",
"806 84 OFFCURVE",
"884 102 OFFCURVE",
"974 188 CURVE SMOOTH",
"1028 240 OFFCURVE",
"1052 306 OFFCURVE",
"1052 380 CURVE SMOOTH",
"1052 450 OFFCURVE",
"1032 520 OFFCURVE",
"992 576 CURVE",
"936 664 OFFCURVE",
"816 718 OFFCURVE",
"724 718 CURVE",
"220 718 LINE",
"220 798 LINE",
"724 798 LINE",
"868 798 OFFCURVE",
"986 736 OFFCURVE",
"1062 630 CURVE",
"1118 560 OFFCURVE",
"1148 468 OFFCURVE",
"1142 380 CURVE SMOOTH",
"1136 292 OFFCURVE",
"1108 198 OFFCURVE",
"1052 136 CURVE SMOOTH",
"954 30 OFFCURVE",
"866 0 OFFCURVE",
"686 0 CURVE",
"180 0 LINE",
"180 84 LINE"
);
},
{
closed = 1;
nodes = (
"224 1440 LINE",
"224 0 LINE",
"140 0 LINE",
"140 1440 LINE"
);
}
);
width = 1274;
},
{
layerId = "BD936841-78ED-4F7E-A3FC-D5A6245A6992";
name = Layer7;
width = 1202;
},
{
layerId = "63ADE33C-C0F2-45DC-8BA2-2E70B1572FB0";
name = Layer6;
width = 1212;
},
{
layerId = "A27E663E-A13B-4DBD-B069-4CF983ECD621";
name = Layer5;
width = 1200;
},
{
layerId = "0AC95DCC-852B-4BE6-AF8C-4094AF10EB8A";
paths = (
{
closed = 1;
nodes = (
"646 0 LINE SMOOTH",
"940 0 OFFCURVE",
"1121 178 OFFCURVE",
"1179 436 CURVE SMOOTH",
"1214 596 OFFCURVE",
"1156 740 OFFCURVE",
"984 778 CURVE",
"973 728 LINE",
"1107 764 OFFCURVE",
"1210 874 OFFCURVE",
"1246 1036 CURVE SMOOTH",
"1288 1226 OFFCURVE",
"1211 1440 OFFCURVE",
"903 1440 CURVE SMOOTH",
"327 1440 LINE",
"8 0 LINE"
);
},
{
closed = 1;
nodes = (
"422 624 LINE",
"756 624 LINE SMOOTH",
"882 624 OFFCURVE",
"929 548 OFFCURVE",
"907 446 CURVE SMOOTH",
"881 330 OFFCURVE",
"785 256 OFFCURVE",
"675 256 CURVE SMOOTH",
"341 256 LINE"
);
},
{
closed = 1;
nodes = (
"547 1186 LINE",
"843 1186 LINE SMOOTH",
"947 1186 OFFCURVE",
"988 1118 OFFCURVE",
"968 1030 CURVE SMOOTH",
"945 924 OFFCURVE",
"867 878 OFFCURVE",
"775 878 CURVE SMOOTH",
"479 878 LINE"
);
}
);
width = 1274;
},
{
layerId = "E58920B2-55F1-4AE6-872B-62598678C0E3";
paths = (
{
closed = 1;
nodes = (
"592 0 LINE SMOOTH",
"826 0 OFFCURVE",
"1043 142 OFFCURVE",
"1098 388 CURVE SMOOTH",
"1143 592 OFFCURVE",
"1047 728 OFFCURVE",
"871 790 CURVE",
"864 742 LINE",
"1020 794 OFFCURVE",
"1147 934 OFFCURVE",
"1181 1086 CURVE SMOOTH",
"1227 1296 OFFCURVE",
"1081 1440 OFFCURVE",
"873 1440 CURVE SMOOTH",
"327 1440 LINE",
"8 0 LINE"
);
},
{
closed = 1;
nodes = (
"251 718 LINE",
"751 718 LINE SMOOTH",
"931 718 OFFCURVE",
"1046 568 OFFCURVE",
"1004 380 CURVE SMOOTH",
"963 192 OFFCURVE",
"779 84 OFFCURVE",
"571 84 CURVE SMOOTH",
"111 84 LINE"
);
},
{
closed = 1;
nodes = (
"393 1358 LINE",
"855 1358 LINE SMOOTH",
"1021 1358 OFFCURVE",
"1128 1252 OFFCURVE",
"1092 1092 CURVE SMOOTH",
"1056 928 OFFCURVE",
"893 800 OFFCURVE",
"731 800 CURVE SMOOTH",
"269 800 LINE"
);
}
);
width = 1202;
}
);
leftKerningGroup = B;
rightKerningGroup = B;
unicode = 0042;
},
{
glyphname = C;
layers = (
{
layerId = "A27E663E-A13B-4DBD-B069-4CF983ECD621";
name = Layer5;
width = 1238;
},
{
layerId = "6751CA47-F6ED-42D7-BE33-6F49EA595F73";
name = Layer4;
width = 1436;
},
{
layerId = "3F31DAF6-41B6-44B9-8019-106AE6FC3ECE";
name = Layer3;
width = 1200;
},
{
layerId = "0AC95DCC-852B-4BE6-AF8C-4094AF10EB8A";
paths = (
{
closed = 1;
nodes = (
"990.429 -30 OFFCURVE",
"1194.668 99.942 OFFCURVE",
"1374 426 CURVE",
"1117 502 LINE",
"1014.08 307.348 OFFCURVE",
"895.402 226 OFFCURVE",
"676 226 CURVE SMOOTH",
"412.267 226 OFFCURVE",
"309.41 430.79 OFFCURVE",
"374 720 CURVE SMOOTH",
"443.29 1034.954 OFFCURVE",
"583.706 1214 OFFCURVE",
"895 1214 CURVE SMOOTH",
"1087.133 1214 OFFCURVE",
"1197.776 1126.2 OFFCURVE",
"1214 938 CURVE",
"1505 1014 LINE",
"1471.051 1330.853 OFFCURVE",
"1278.304 1470 OFFCURVE",
"952 1470 CURVE SMOOTH",
"451.889 1470 OFFCURVE",
"197.749 1216.641 OFFCURVE",
"88 720 CURVE SMOOTH",
"-11.373 274.807 OFFCURVE",
"187.842 -30 OFFCURVE",
"619 -30 CURVE SMOOTH"
);
}
);
width = 1492;
},
{
layerId = "E58920B2-55F1-4AE6-872B-62598678C0E3";
paths = (
{
closed = 1;
nodes = (
"934.869 -30 OFFCURVE",
"1130.855 117.062 OFFCURVE",
"1288 452 CURVE",
"1205 472 LINE",
"1067.956 184.32 OFFCURVE",
"902.305 54 OFFCURVE",
"586 54 CURVE SMOOTH",
"228.866 54 OFFCURVE",
"87.125 330.534 OFFCURVE",
"178 720 CURVE SMOOTH",
"275.695 1143.347 OFFCURVE",
"462.033 1386 OFFCURVE",
"881 1386 CURVE SMOOTH",
"1156.332 1386 OFFCURVE",
"1306.349 1242.656 OFFCURVE",
"1315 968 CURVE",
"1407 988 LINE",
"1399.368 1306.351 OFFCURVE",
"1221.226 1470 OFFCURVE",
"900 1470 CURVE SMOOTH",
"419.659 1470 OFFCURVE",
"194.558 1203.356 OFFCURVE",
"88 720 CURVE SMOOTH",
"-10.157 279.294 OFFCURVE",
"158.363 -30 OFFCURVE",
"567 -30 CURVE SMOOTH"
);
}
);
width = 1400;
}
);
leftKerningGroup = C;
rightKerningGroup = C;
unicode = 0043;
},
{
glyphname = D;
layers = (
{
layerId = "7447FE7B-D73D-4904-ADEA-265673B512E2";
name = public.background;
paths = (
{
closed = 1;
nodes = (
"562 0 LINE SMOOTH",
"594 0 OFFCURVE",
"686 0 OFFCURVE",
"754 10 CURVE SMOOTH",
"1072 56 OFFCURVE",
"1224 350 OFFCURVE",
"1224 720 CURVE SMOOTH",
"1224 1088 OFFCURVE",
"1072 1384 OFFCURVE",
"754 1430 CURVE SMOOTH",
"684 1440 OFFCURVE",
"596 1440 OFFCURVE",
"562 1440 CURVE SMOOTH",
"140 1440 LINE",
"140 0 LINE"
);
},
{
closed = 1;
nodes = (
"230 1356 LINE",
"562 1356 LINE SMOOTH",
"626 1356 OFFCURVE",
"696 1352 OFFCURVE",
"740 1344 CURVE SMOOTH",
"1024 1296 OFFCURVE",
"1134 1048 OFFCURVE",
"1134 720 CURVE SMOOTH",
"1134 392 OFFCURVE",
"1024 144 OFFCURVE",
"740 96 CURVE SMOOTH",
"696 88 OFFCURVE",
"626 84 OFFCURVE",
"562 84 CURVE SMOOTH",
"230 84 LINE"
);
}
);
width = 1420;
},
{
layerId = "BD936841-78ED-4F7E-A3FC-D5A6245A6992";
name = Layer7;
width = 1220;
},
{
layerId = "63ADE33C-C0F2-45DC-8BA2-2E70B1572FB0";
name = Layer6;
width = 1326;
},
{
layerId = "A27E663E-A13B-4DBD-B069-4CF983ECD621";
name = Layer5;
width = 1200;
},
{
layerId = "0AC95DCC-852B-4BE6-AF8C-4094AF10EB8A";
paths = (
{
closed = 1;
nodes = (
"474 0 LINE SMOOTH",
"542.363 0 OFFCURVE",
"580.094 0.011 OFFCURVE",
"648 8 CURVE SMOOTH",
"1072.472 57.938 OFFCURVE",
"1252.722 294.734 OFFCURVE",
"1348 720 CURVE SMOOTH",
"1433.941 1108.325 OFFCURVE",
"1323.235 1387.369 OFFCURVE",
"963 1432 CURVE SMOOTH",
"896.7 1440.288 OFFCURVE",
"859.802 1440 OFFCURVE",
"793 1440 CURVE SMOOTH",
"327 1440 LINE",
"8 0 LINE"
);
},
{
closed = 1;
nodes = (
"546 1184 LINE",
"736 1184 LINE SMOOTH",
"796.676 1184 OFFCURVE",
"830.55 1186.385 OFFCURVE",
"890 1174 CURVE SMOOTH",
"1096.241 1131.33 OFFCURVE",
"1112.042 954.187 OFFCURVE",
"1060 720 CURVE SMOOTH",
"1004.507 471.488 OFFCURVE",
"932.049 313.122 OFFCURVE",
"689 266 CURVE SMOOTH",
"627.859 254.242 OFFCURVE",
"593.22 256 OFFCURVE",
"531 256 CURVE SMOOTH",
"341 256 LINE"
);
}
);
width = 1420;
},
{
layerId = "E58920B2-55F1-4AE6-872B-62598678C0E3";
paths = (
{
closed = 1;
nodes = (
"430 0 LINE SMOOTH",
"506.271 0 OFFCURVE",
"548.472 -0.79 OFFCURVE",
"624 10 CURVE SMOOTH",
"1023.047 65.964 OFFCURVE",
"1162.185 314.738 OFFCURVE",
"1252 720 CURVE SMOOTH",
"1335.275 1098.334 OFFCURVE",
"1275.571 1379.733 OFFCURVE",
"939 1430 CURVE SMOOTH",
"865.063 1440.873 OFFCURVE",
"823.708 1440 OFFCURVE",
"749 1440 CURVE SMOOTH",
"327 1440 LINE",
"8 0 LINE"
);
},
{
closed = 1;
nodes = (
"399 1356 LINE",
"731 1356 LINE SMOOTH",
"799.934 1356 OFFCURVE",
"838.248 1356.905 OFFCURVE",
"906 1344 CURVE SMOOTH",
"1195.884 1293.031 OFFCURVE",
"1233.889 1047.494 OFFCURVE",
"1162 720 CURVE SMOOTH",
"1084.191 370.391 OFFCURVE",
"972.288 151.857 OFFCURVE",
"629 96 CURVE SMOOTH",
"559.19 83.589 OFFCURVE",
"519.875 84 OFFCURVE",
"449 84 CURVE SMOOTH",
"117 84 LINE"
);
}
);
width = 1304;
}
);
rightKerningGroup = D;
unicode = 0044;
},
{
glyphname = Eth;
layers = (
{
layerId = "A27E663E-A13B-4DBD-B069-4CF983ECD621";
name = Layer5;
width = 1236;
},
{
layerId = "3F31DAF6-41B6-44B9-8019-106AE6FC3ECE";
name = Layer3;
width = 1200;
},
{
layerId = "6751CA47-F6ED-42D7-BE33-6F49EA595F73";
name = Layer4;
width = 1422;
},
{
components = (
{
name = D;
transform = "{1, 0, 0, 1, 8, 0}";
alignment = -1;
}
);
layerId = "0AC95DCC-852B-4BE6-AF8C-4094AF10EB8A";
paths = (
{
closed = 1;
nodes = (
"715 616 LINE",
"761 826 LINE",
"71 826 LINE",
"25 616 LINE"
);
}
);
width = 1428;
},
{
components = (
{
name = D;
transform = "{1, 0, 0, 1, -22, 0}";
alignment = -1;
}
);
layerId = "E58920B2-55F1-4AE6-872B-62598678C0E3";
paths = (
{
closed = 1;
nodes = (
"638 678 LINE",
"657 762 LINE",
"57 762 LINE",
"38 678 LINE"
);
}
);
width = 1282;
}
);
leftKerningGroup = D;
rightKerningGroup = D;
unicode = 00D0;
},
{
glyphname = E;
layers = (
{
layerId = "A27E663E-A13B-4DBD-B069-4CF983ECD621";
name = Layer5;
width = 1188;
},
{
layerId = "3F31DAF6-41B6-44B9-8019-106AE6FC3ECE";
name = Layer3;
width = 1200;
},
{
layerId = "6751CA47-F6ED-42D7-BE33-6F49EA595F73";
name = Layer4;
width = 1126;
},
{
layerId = "0AC95DCC-852B-4BE6-AF8C-4094AF10EB8A";
paths = (
{
closed = 1;
nodes = (
"948 0 LINE",
"1004 254 LINE",
"336 254 LINE",
"418 624 LINE",
"966 624 LINE",
"1023 878 LINE",
"475 878 LINE",
"543 1186 LINE",
"1211 1186 LINE",
"1267 1440 LINE",
"327 1440 LINE",
"8 0 LINE"
);
}
);
width = 1180;
},
{
layerId = "E58920B2-55F1-4AE6-872B-62598678C0E3";
paths = (
{
closed = 1;
nodes = (
"888 0 LINE",
"907 84 LINE",
"111 84 LINE",
"242 678 LINE",
"918 678 LINE",
"937 762 LINE",
"261 762 LINE",
"393 1356 LINE",
"1189 1356 LINE",
"1207 1440 LINE",
"327 1440 LINE",
"8 0 LINE"
);
}
);
width = 1120;
}
);
leftKerningGroup = E;
rightKerningGroup = E;
unicode = 0045;
},
{
glyphname = F;
layers = (
{
layerId = "A27E663E-A13B-4DBD-B069-4CF983ECD621";
name = Layer5;
width = 1168;
},
{
layerId = "6751CA47-F6ED-42D7-BE33-6F49EA595F73";
name = Layer4;
width = 1000;
},
{
layerId = "3F31DAF6-41B6-44B9-8019-106AE6FC3ECE";
name = Layer3;
width = 1200;
},
{
layerId = "0AC95DCC-852B-4BE6-AF8C-4094AF10EB8A";
paths = (
{
closed = 1;
nodes = (
"280 0 LINE",
"409 584 LINE",
"897 584 LINE",
"958 856 LINE",
"470 856 LINE",
"539 1168 LINE",
"1147 1168 LINE",
"1207 1440 LINE",
"327 1440 LINE",
"8 0 LINE"
);
}
);
width = 1060;
},
{
layerId = "E58920B2-55F1-4AE6-872B-62598678C0E3";
paths = (
{
closed = 1;
nodes = (
"92 0 LINE",
"242 678 LINE",
"838 678 LINE",
"857 762 LINE",
"261 762 LINE",
"393 1356 LINE",
"1109 1356 LINE",
"1127 1440 LINE",
"327 1440 LINE",
"8 0 LINE"
);
}
);
width = 980;
}
);
unicode = 0046;
},
{
glyphname = G;
layers = (
{
layerId = "A27E663E-A13B-4DBD-B069-4CF983ECD621";
name = Layer5;
width = 1242;
},
{
layerId = "6751CA47-F6ED-42D7-BE33-6F49EA595F73";
name = Layer4;
width = 1466;
},
{
layerId = "3F31DAF6-41B6-44B9-8019-106AE6FC3ECE";
name = Layer3;
width = 1200;
},
{
layerId = "0AC95DCC-852B-4BE6-AF8C-4094AF10EB8A";
paths = (
{
closed = 1;
nodes = (
"1082.414 -30 OFFCURVE",
"1335.555 202.833 OFFCURVE",
"1440 678 CURVE",
"1450.62 709.86 OFFCURVE",
"1451.295 728.651 OFFCURVE",
"1455 762 CURVE",
"937 762 LINE",
"890 552 LINE",
"1118 552 LINE",
"1027.216 331.8 OFFCURVE",
"910.166 220.937 OFFCURVE",
"676 226 CURVE SMOOTH",
"412.887 229.855 OFFCURVE",
"311.94 433.164 OFFCURVE",
"376 720 CURVE SMOOTH",
"445.524 1036.016 OFFCURVE",
"584.267 1218.553 OFFCURVE",
"895 1214 CURVE SMOOTH",
"1076.23 1212.03 OFFCURVE",
"1171.764 1117.844 OFFCURVE",
"1188 936 CURVE",
"1474 976 LINE",
"1471.89 1307.242 OFFCURVE",
"1274.569 1470 OFFCURVE",
"934 1470 CURVE SMOOTH",
"440.932 1470 OFFCURVE",
"197.071 1211.846 OFFCURVE",
"88 720 CURVE SMOOTH",
"-11.067 276.469 OFFCURVE",
"177.786 -30 OFFCURVE",
"601 -30 CURVE SMOOTH"
);
}
);
width = 1482;
},
{
layerId = "E58920B2-55F1-4AE6-872B-62598678C0E3";
paths = (
{
closed = 1;
nodes = (
"1006.051 -30 OFFCURVE",
"1225.36 196.944 OFFCURVE",
"1323 634 CURVE SMOOTH",
"1330.43 667.436 OFFCURVE",
"1333.532 686.042 OFFCURVE",
"1338 720 CURVE",
"868 720 LINE",
"849 636 LINE",
"1233 636 LINE",
"1148.625 256.859 OFFCURVE",
"964.927 54 OFFCURVE",
"586 54 CURVE SMOOTH",
"228.866 54 OFFCURVE",
"87.125 330.534 OFFCURVE",
"178 720 CURVE SMOOTH",
"275.523 1142.602 OFFCURVE",
"462.523 1384 OFFCURVE",
"881 1384 CURVE SMOOTH",
"1101.811 1384 OFFCURVE",
"1235.645 1300.131 OFFCURVE",
"1271 1088 CURVE",
"1361 1122 LINE",
"1320.563 1371.972 OFFCURVE",
"1160.176 1468 OFFCURVE",
"899 1468 CURVE SMOOTH",
"419.504 1468 OFFCURVE",
"194.339 1202.361 OFFCURVE",
"88 720 CURVE SMOOTH",
"-10.157 279.294 OFFCURVE",
"158.363 -30 OFFCURVE",
"567 -30 CURVE SMOOTH"
);
}
);
width = 1374;
}
);
leftKerningGroup = O;
rightKerningGroup = G;
unicode = 0047;
},
{
glyphname = H;
layers = (
{
layerId = "A27E663E-A13B-4DBD-B069-4CF983ECD621";
name = Layer5;
width = 1240;
},
{
layerId = "6751CA47-F6ED-42D7-BE33-6F49EA595F73";
name = Layer4;
width = 1450;
},
{
layerId = "3F31DAF6-41B6-44B9-8019-106AE6FC3ECE";
name = Layer3;
width = 1200;
},
{
layerId = "0AC95DCC-852B-4BE6-AF8C-4094AF10EB8A";
paths = (
{
closed = 1;
nodes = (
"280 0 LINE",
"412 594 LINE",
"1056 594 LINE",
"924 0 LINE",
"1196 0 LINE",
"1515 1440 LINE",
"1243 1440 LINE",
"1112 848 LINE",
"468 848 LINE",
"599 1440 LINE",
"327 1440 LINE",
"8 0 LINE"
);
}
);
width = 1468;
},
{
layerId = "E58920B2-55F1-4AE6-872B-62598678C0E3";
paths = (
{
closed = 1;
nodes = (
"92 0 LINE",
"242 678 LINE",
"1114 678 LINE",
"964 0 LINE",
"1048 0 LINE",
"1367 1440 LINE",
"1283 1440 LINE",
"1133 762 LINE",
"261 762 LINE",
"411 1440 LINE",
"327 1440 LINE",
"8 0 LINE"
);
}
);
width = 1320;
}
);
leftKerningGroup = M;
rightKerningGroup = M;
unicode = 0048;
},
{
glyphname = Hbar;
layers = (
{
layerId = "0AC95DCC-852B-4BE6-AF8C-4094AF10EB8A";
paths = (
{
closed = 1;
nodes = (
"300 0 LINE",
"432 594 LINE",
"1076 594 LINE",
"944 0 LINE",
"1216 0 LINE",
"1535 1440 LINE",
"1263 1440 LINE",
"1132 848 LINE",
"488 848 LINE",
"619 1440 LINE",
"347 1440 LINE",
"28 0 LINE"
);
},
{
closed = 1;
nodes = (
"1575 988 LINE",
"1631 1242 LINE",
"163 1242 LINE",
"107 988 LINE"
);
}
);
width = 1508;
},
{
layerId = "E58920B2-55F1-4AE6-872B-62598678C0E3";
paths = (
{
closed = 1;
nodes = (
"112 0 LINE",
"262 678 LINE",
"1134 678 LINE",
"984 0 LINE",
"1068 0 LINE",
"1387 1440 LINE",
"1303 1440 LINE",
"1153 762 LINE",
"281 762 LINE",
"431 1440 LINE",
"347 1440 LINE",
"28 0 LINE"
);
},
{
closed = 1;
nodes = (
"1429 996 LINE",
"1447 1080 LINE",
"127 1080 LINE",
"109 996 LINE"
);
}
);
width = 1360;
},
{
layerId = "A27E663E-A13B-4DBD-B069-4CF983ECD621";
name = Layer5;
width = 1240;
},
{
layerId = "6751CA47-F6ED-42D7-BE33-6F49EA595F73";
name = Layer4;
width = 1450;
},
{
layerId = "3F31DAF6-41B6-44B9-8019-106AE6FC3ECE";
name = Layer3;
width = 1200;
}
);
leftKerningGroup = H;
rightKerningGroup = H;
unicode = 0126;
},
{
glyphname = I;
layers = (
{
layerId = "A27E663E-A13B-4DBD-B069-4CF983ECD621";
name = Layer5;
width = 1076;
},
{
layerId = "6751CA47-F6ED-42D7-BE33-6F49EA595F73";
name = Layer4;
width = 426;
},
{
layerId = "3F31DAF6-41B6-44B9-8019-106AE6FC3ECE";
name = Layer3;
width = 1200;
},
{
hints = (
{
place = "{8, 280}";
type = Stem;
}
);
layerId = "0AC95DCC-852B-4BE6-AF8C-4094AF10EB8A";
paths = (
{
closed = 1;
nodes = (
"300 0 LINE",
"619 1440 LINE",
"347 1440 LINE",
"28 0 LINE"
);
}
);
width = 592;
},
{
layerId = "E58920B2-55F1-4AE6-872B-62598678C0E3";
paths = (
{
closed = 1;
nodes = (
"112 0 LINE",
"431 1440 LINE",
"347 1440 LINE",
"28 0 LINE"
);
}
);
width = 404;
}
);
leftKerningGroup = n;
rightKerningGroup = u;
unicode = 0049;
},
{
glyphname = J;
layers = (
{
layerId = "A27E663E-A13B-4DBD-B069-4CF983ECD621";
name = Layer5;
width = 1140;
},
{
layerId = "6751CA47-F6ED-42D7-BE33-6F49EA595F73";
name = Layer4;
width = 830;
},
{
layerId = "3F31DAF6-41B6-44B9-8019-106AE6FC3ECE";
name = Layer3;
width = 1200;
},
{
layerId = "0AC95DCC-852B-4BE6-AF8C-4094AF10EB8A";
paths = (
{
closed = 1;
nodes = (
"495.699 -30 OFFCURVE",
"604.033 21.245 OFFCURVE",
"724 172 CURVE SMOOTH",
"806.093 274.349 OFFCURVE",
"812.2 352.118 OFFCURVE",
"840 480 CURVE SMOOTH",
"1053 1440 LINE",
"777 1440 LINE",
"564 480 LINE SMOOTH",
"549.267 411.861 OFFCURVE",
"549.433 370.418 OFFCURVE",
"511 312 CURVE SMOOTH",
"469.075 247.016 OFFCURVE",
"425.38 224 OFFCURVE",
"348 224 CURVE SMOOTH",
"259.03 224 OFFCURVE",
"210.088 272.498 OFFCURVE",
"216 360 CURVE",
"-66 296 LINE",
"-47.27 75.644 OFFCURVE",
"79.326 -30 OFFCURVE",
"303 -30 CURVE SMOOTH"
);
}
);
width = 1026;
},
{
layerId = "E58920B2-55F1-4AE6-872B-62598678C0E3";
paths = (
{
closed = 1;
nodes = (
"380.293 -28 OFFCURVE",
"469.959 15.948 OFFCURVE",
"569 142 CURVE SMOOTH",
"643.965 236.241 OFFCURVE",
"652.386 306.604 OFFCURVE",
"678 424 CURVE SMOOTH",
"903 1440 LINE",
"819 1440 LINE",
"594 424 LINE SMOOTH",
"572.212 325.483 OFFCURVE",
"566.846 266.035 OFFCURVE",
"505 186 CURVE SMOOTH",
"430.633 90.239 OFFCURVE",
"363.199 56 OFFCURVE",
"242 56 CURVE SMOOTH",
"98.143 56 OFFCURVE",
"17.492 127.996 OFFCURVE",
"14 270 CURVE",
"-77 250 LINE",
"-73.701 65.276 OFFCURVE",
"32.278 -28 OFFCURVE",
"220 -28 CURVE SMOOTH"
);
}
);
width = 878;
}
);
leftKerningGroup = J;
rightKerningGroup = J;
unicode = 004A;
},
{
glyphname = K;
layers = (
{
layerId = "A27E663E-A13B-4DBD-B069-4CF983ECD621";
name = Layer5;
width = 1194;
},
{
layerId = "6751CA47-F6ED-42D7-BE33-6F49EA595F73";
name = Layer4;
width = 1168;
},
{
layerId = "3F31DAF6-41B6-44B9-8019-106AE6FC3ECE";
name = Layer3;
width = 1200;
},
{
layerId = "0AC95DCC-852B-4BE6-AF8C-4094AF10EB8A";
paths = (
{
closed = 1;
nodes = (
"280 0 LINE",
"425 656 LINE",
"854 0 LINE",
"1198 0 LINE",
"720 730 LINE",
"1479 1440 LINE",
"1147 1440 LINE",
"452 776 LINE",
"599 1440 LINE",
"327 1440 LINE",
"8 0 LINE"
);
}
);
width = 1330;
},
{
layerId = "E58920B2-55F1-4AE6-872B-62598678C0E3";
paths = (
{
closed = 1;
nodes = (
"92 0 LINE",
"259 752 LINE",
"868 0 LINE",
"984 0 LINE",
"381 752 LINE",
"1239 1440 LINE",
"1123 1440 LINE",
"259 752 LINE",
"411 1440 LINE",
"327 1440 LINE",
"8 0 LINE"
);
}
);
width = 1116;
}
);
leftKerningGroup = H;
rightKerningGroup = K;
unicode = 004B;
},
{
glyphname = L;
layers = (
{
layerId = "A27E663E-A13B-4DBD-B069-4CF983ECD621";
name = Layer5;
width = 1146;
},
{
layerId = "6751CA47-F6ED-42D7-BE33-6F49EA595F73";
name = Layer4;
width = 862;
},
{
layerId = "3F31DAF6-41B6-44B9-8019-106AE6FC3ECE";
name = Layer3;
width = 1200;
},
{
layerId = "0AC95DCC-852B-4BE6-AF8C-4094AF10EB8A";
paths = (
{
closed = 1;
nodes = (
"920 0 LINE",
"976 254 LINE",
"356 254 LINE",
"619 1440 LINE",
"347 1440 LINE",
"28 0 LINE"
);
}
);
width = 1082;
},
{
layerId = "E58920B2-55F1-4AE6-872B-62598678C0E3";
paths = (
{
closed = 1;
nodes = (
"828 0 LINE",
"847 84 LINE",
"131 84 LINE",
"431 1440 LINE",
"347 1440 LINE",
"28 0 LINE"
);
}
);
width = 990;
}
);
rightKerningGroup = L;
unicode = 004C;
},
{
glyphname = M;
layers = (
{
layerId = "A27E663E-A13B-4DBD-B069-4CF983ECD621";
name = Layer5;
width = 1300;
},
{
layerId = "6751CA47-F6ED-42D7-BE33-6F49EA595F73";
name = Layer4;
width = 1828;
},
{
layerId = "3F31DAF6-41B6-44B9-8019-106AE6FC3ECE";
name = Layer3;
width = 1200;
},
{
layerId = "0AC95DCC-852B-4BE6-AF8C-4094AF10EB8A";
paths = (
{
closed = 1;
nodes = (
"262 0 LINE",
"453 860 LINE",
"680 0 LINE",
"776 0 LINE",
"1385 860 LINE",
"1194 0 LINE",
"1448 0 LINE",
"1767 1440 LINE",
"1523 1440 LINE",
"835 484 LINE",
"571 1440 LINE",
"327 1440 LINE",
"8 0 LINE"
);
}
);
width = 1720;
},
{
layerId = "E58920B2-55F1-4AE6-872B-62598678C0E3";
paths = (
{
closed = 1;
nodes = (
"92 0 LINE",
"366 1238 LINE",
"652 0 LINE",
"746 0 LINE",
"1580 1238 LINE",
"1306 2 LINE",
"1390 2 LINE",
"1709 1440 LINE",
"1625 1440 LINE",
"723 102 LINE",
"407 1440 LINE",
"327 1440 LINE",
"8 0 LINE"
);
}
);
width = 1662;
}
);
leftKerningGroup = M;
rightKerningGroup = M;
unicode = 004D;
},
{
glyphname = N;
layers = (
{
layerId = "A27E663E-A13B-4DBD-B069-4CF983ECD621";
name = Layer5;
width = 1240;
},
{
layerId = "6751CA47-F6ED-42D7-BE33-6F49EA595F73";
name = Layer4;
width = 1450;
},
{
layerId = "3F31DAF6-41B6-44B9-8019-106AE6FC3ECE";
name = Layer3;
width = 1200;
},
{
layerId = "0AC95DCC-852B-4BE6-AF8C-4094AF10EB8A";
paths = (
{
closed = 1;
nodes = (
"284 0 LINE",
"497 960 LINE",
"910 0 LINE",
"1186 0 LINE",
"1505 1440 LINE",
"1229 1440 LINE",
"1016 480 LINE",
"603 1440 LINE",
"327 1440 LINE",
"8 0 LINE"
);
}
);
width = 1458;
},
{
layerId = "E58920B2-55F1-4AE6-872B-62598678C0E3";
paths = (
{
closed = 1;
nodes = (
"92 0 LINE",
"378 1292 LINE",
"968 0 LINE",
"1052 0 LINE",
"1371 1440 LINE",
"1287 1440 LINE",
"1001 150 LINE",
"411 1440 LINE",
"327 1440 LINE",
"8 0 LINE"
);
}
);
width = 1324;
}
);
leftKerningGroup = M;
rightKerningGroup = M;
unicode = 004E;
},
{
glyphname = Eng;
layers = (
{
layerId = "0AC95DCC-852B-4BE6-AF8C-4094AF10EB8A";
paths = (
{
closed = 1;
nodes = (
"1016 480 LINE",
"603 1440 LINE",
"327 1440 LINE",
"8 0 LINE",
"284 0 LINE",
"497 960 LINE",
"867 102 LINE SMOOTH",
"926 -44 OFFCURVE",
"940 -100 OFFCURVE",
"927 -158 CURVE SMOOTH",
"911 -228 OFFCURVE",
"851 -264 OFFCURVE",
"751 -264 CURVE SMOOTH",
"731 -264 OFFCURVE",
"718 -262 OFFCURVE",
"669 -258 CURVE",
"624 -458 LINE",
"671 -472 OFFCURVE",
"726 -478 OFFCURVE",
"780 -478 CURVE SMOOTH",
"982 -478 OFFCURVE",
"1102 -378 OFFCURVE",
"1147 -176 CURVE SMOOTH",
"1505 1440 LINE",
"1229 1440 LINE"
);
}
);
width = 1458;
},
{
layerId = "E58920B2-55F1-4AE6-872B-62598678C0E3";
paths = (
{
closed = 1;
nodes = (
"1001 150 LINE",
"411 1440 LINE",
"327 1440 LINE",
"8 0 LINE",
"92 0 LINE",
"378 1292 LINE",
"940 62 LINE SMOOTH",
"958 20 OFFCURVE",
"960 -38 OFFCURVE",
"944 -110 CURVE SMOOTH",
"915 -238 OFFCURVE",
"888 -272 OFFCURVE",
"816 -272 CURVE SMOOTH",
"800 -272 OFFCURVE",
"780 -270 OFFCURVE",
"759 -266 CURVE",
"741 -348 LINE",
"773 -356 OFFCURVE",
"795 -358 OFFCURVE",
"821 -358 CURVE SMOOTH",
"927 -358 OFFCURVE",
"984 -306 OFFCURVE",
"1010 -190 CURVE SMOOTH",
"1371 1440 LINE",
"1287 1440 LINE"
);
}
);
width = 1324;
},
{
layerId = "A27E663E-A13B-4DBD-B069-4CF983ECD621";
name = Layer5;
width = 1240;
},
{
layerId = "6751CA47-F6ED-42D7-BE33-6F49EA595F73";
name = Layer4;
width = 1450;
},
{
layerId = "3F31DAF6-41B6-44B9-8019-106AE6FC3ECE";
name = Layer3;
width = 1200;
}
);
leftKerningGroup = N;
rightKerningGroup = N;
unicode = 014A;
},
{
glyphname = O;
layers = (
{
layerId = "A27E663E-A13B-4DBD-B069-4CF983ECD621";
name = Layer5;
width = 1242;
},
{
layerId = "6751CA47-F6ED-42D7-BE33-6F49EA595F73";
name = Layer4;
width = 1468;
},
{
layerId = "3F31DAF6-41B6-44B9-8019-106AE6FC3ECE";
name = Layer3;
width = 1200;
},
{
layerId = "0AC95DCC-852B-4BE6-AF8C-4094AF10EB8A";
paths = (
{
closed = 1;
nodes = (
"1119.225 -30 OFFCURVE",
"1373.155 223.415 OFFCURVE",
"1484 720 CURVE SMOOTH",
"1582.438 1165.458 OFFCURVE",
"1383.211 1470 OFFCURVE",
"952 1470 CURVE SMOOTH",
"451.889 1470 OFFCURVE",
"197.749 1216.641 OFFCURVE",
"88 720 CURVE SMOOTH",
"-11.373 274.807 OFFCURVE",
"187.842 -30 OFFCURVE",
"619 -30 CURVE SMOOTH"
);
},
{
closed = 1;
nodes = (
"412.887 229.855 OFFCURVE",
"311.94 433.164 OFFCURVE",
"376 720 CURVE SMOOTH",
"445.524 1036.016 OFFCURVE",
"584.267 1218.553 OFFCURVE",
"895 1214 CURVE SMOOTH",
"1158.209 1210.143 OFFCURVE",
"1259.146 1007.029 OFFCURVE",
"1196 720 CURVE SMOOTH",
"1125.441 404.063 OFFCURVE",
"986.885 221.445 OFFCURVE",
"676 226 CURVE SMOOTH"
);
}
);
width = 1516;
},
{
layerId = "E58920B2-55F1-4AE6-872B-62598678C0E3";
paths = (
{
closed = 1;
nodes = (
"1047.473 -30 OFFCURVE",
"1272.361 236.722 OFFCURVE",
"1380 720 CURVE SMOOTH",
"1477.203 1160.922 OFFCURVE",
"1308.714 1470 OFFCURVE",
"900 1470 CURVE SMOOTH",
"419.659 1470 OFFCURVE",
"194.558 1203.356 OFFCURVE",
"88 720 CURVE SMOOTH",
"-10.157 279.294 OFFCURVE",
"158.363 -30 OFFCURVE",
"567 -30 CURVE SMOOTH"
);
},
{
closed = 1;
nodes = (
"228.866 54 OFFCURVE",
"87.125 330.534 OFFCURVE",
"178 720 CURVE SMOOTH",
"275.695 1143.347 OFFCURVE",
"462.033 1386 OFFCURVE",
"881 1386 CURVE SMOOTH",
"1236.953 1386 OFFCURVE",
"1376.04 1110.18 OFFCURVE",
"1290 720 CURVE SMOOTH",
"1195.279 295.388 OFFCURVE",
"1005.995 54 OFFCURVE",
"586 54 CURVE SMOOTH"
);
}
);
width = 1412;
}
);
leftKerningGroup = O;
rightKerningGroup = O;
unicode = 004F;
},
{
glyphname = Oslash;
layers = (
{
layerId = "A27E663E-A13B-4DBD-B069-4CF983ECD621";
name = Layer5;
width = 1244;
},
{
layerId = "3F31DAF6-41B6-44B9-8019-106AE6FC3ECE";
name = Layer3;
width = 1200;
},
{
layerId = "6751CA47-F6ED-42D7-BE33-6F49EA595F73";
name = Layer4;
width = 1476;
},
{
components = (
{
name = O;
alignment = -1;
}
);
layerId = "0AC95DCC-852B-4BE6-AF8C-4094AF10EB8A";
paths = (
{
closed = 1;
nodes = (
"329 138 LINE",
"348 162 LINE",
"1323 1044 LINE",
"1353 1062 LINE",
"1611 1294 LINE",
"1457 1466 LINE",
"1222 1254 LINE",
"1205 1232 LINE",
"232 354 LINE",
"192 324 LINE",
"-6 144 LINE",
"148 -26 LINE"
);
}
);
width = 1516;
},
{
components = (
{
name = O;
alignment = -1;
}
);
layerId = "E58920B2-55F1-4AE6-872B-62598678C0E3";
paths = (
{
closed = 1;
nodes = (
"167 174 LINE",
"199 202 LINE",
"1322 1174 LINE",
"1342 1190 LINE",
"1586 1404 LINE",
"1536 1459 LINE",
"1310 1262 LINE",
"1285 1242 LINE",
"160 270 LINE",
"133 246 LINE",
"-115 32 LINE",
"-66 -26 LINE"
);
}
);
width = 1412;
}
);
leftKerningGroup = O;
rightKerningGroup = O;
unicode = 00D8;
},
{
glyphname = P;
layers = (
{
layerId = "A27E663E-A13B-4DBD-B069-4CF983ECD621";
name = Layer5;
width = 1188;
},
{
layerId = "6751CA47-F6ED-42D7-BE33-6F49EA595F73";
name = Layer4;
width = 1128;
},
{
layerId = "3F31DAF6-41B6-44B9-8019-106AE6FC3ECE";
name = Layer3;
width = 1200;
},
{
layerId = "0AC95DCC-852B-4BE6-AF8C-4094AF10EB8A";
paths = (
{
closed = 1;
nodes = (
"280 0 LINE",
"388 488 LINE",
"724 488 LINE SMOOTH",
"772.013 488 OFFCURVE",
"798.537 488.698 OFFCURVE",
"846 496 CURVE SMOOTH",
"1128.591 538.655 OFFCURVE",
"1259.262 682.84 OFFCURVE",
"1322 964 CURVE SMOOTH",
"1377.273 1216.38 OFFCURVE",
"1294.078 1393.427 OFFCURVE",
"1053 1432 CURVE SMOOTH",
"1007.164 1439.639 OFFCURVE",
"981.456 1440 OFFCURVE",
"935 1440 CURVE SMOOTH",
"327 1440 LINE",
"8 0 LINE"
);
},
{
closed = 1;
nodes = (
"543 1186 LINE",
"867 1186 LINE SMOOTH",
"902.69 1186 OFFCURVE",
"922.75 1186.148 OFFCURVE",
"957 1176 CURVE SMOOTH",
"1053.933 1147.767 OFFCURVE",
"1071.161 1070.27 OFFCURVE",
"1048 964 CURVE SMOOTH",
"1021.076 847.328 OFFCURVE",
"977.597 781.637 OFFCURVE",
"863 752 CURVE SMOOTH",
"826.632 742.302 OFFCURVE",
"805.614 742 OFFCURVE",
"768 742 CURVE SMOOTH",
"444 742 LINE"
);
}
);
width = 1300;
},
{
layerId = "E58920B2-55F1-4AE6-872B-62598678C0E3";
paths = (
{
closed = 1;
nodes = (
"92 0 LINE",
"220 576 LINE",
"666 576 LINE SMOOTH",
"694 576 OFFCURVE",
"722 578 OFFCURVE",
"759 584 CURVE SMOOTH",
"975 616 OFFCURVE",
"1146 792 OFFCURVE",
"1193 1008 CURVE SMOOTH",
"1241 1224 OFFCURVE",
"1148 1400 OFFCURVE",
"947 1432 CURVE SMOOTH",
"913 1438 OFFCURVE",
"885 1440 OFFCURVE",
"857 1440 CURVE SMOOTH",
"327 1440 LINE",
"8 0 LINE"
);
},
{
closed = 1;
nodes = (
"393 1356 LINE",
"839 1356 LINE SMOOTH",
"861 1356 OFFCURVE",
"894 1354 OFFCURVE",
"925 1348 CURVE SMOOTH",
"1084 1316 OFFCURVE",
"1139 1170 OFFCURVE",
"1103 1008 CURVE SMOOTH",
"1068 846 OFFCURVE",
"947 700 OFFCURVE",
"774 668 CURVE SMOOTH",
"741 662 OFFCURVE",
"706 660 OFFCURVE",
"684 660 CURVE SMOOTH",
"238 660 LINE"
);
}
);
width = 1162;
}
);
unicode = 0050;
},
{
glyphname = Thorn;
layers = (
{
layerId = "0AC95DCC-852B-4BE6-AF8C-4094AF10EB8A";
paths = (
{
closed = 1;
nodes = (
"284 0 LINE",
"339 246 LINE",
"665 246 LINE SMOOTH",
"856.678 246 OFFCURVE",
"960.993 298.792 OFFCURVE",
"1093 438 CURVE SMOOTH",
"1183.422 530.741 OFFCURVE",
"1225.372 593.198 OFFCURVE",
"1252 720 CURVE SMOOTH",
"1274.496 832.481 OFFCURVE",
"1271.307 900.462 OFFCURVE",
"1218 1002 CURVE",
"1170.548 1099.276 OFFCURVE",
"1118.749 1139.75 OFFCURVE",
"1016 1174 CURVE SMOOTH",
"962.453 1191.434 OFFCURVE",
"931.309 1196 OFFCURVE",
"875 1196 CURVE SMOOTH",
"549 1196 LINE",
"603 1440 LINE",
"327 1440 LINE",
"8 0 LINE"
);
},
{
closed = 1;
nodes = (
"492 940 LINE",
"816 940 LINE SMOOTH",
"882.569 940 OFFCURVE",
"919.209 918.243 OFFCURVE",
"955 862 CURVE",
"987.997 813.774 OFFCURVE",
"985.989 777.713 OFFCURVE",
"976 720 CURVE SMOOTH",
"964.82 660.374 OFFCURVE",
"944.307 631.45 OFFCURVE",
"902 588 CURVE SMOOTH",
"844.337 528.201 OFFCURVE",
"801.88 500 OFFCURVE",
"719 500 CURVE SMOOTH",
"395 500 LINE"
);
}
);
width = 1284;
},
{
layerId = "E58920B2-55F1-4AE6-872B-62598678C0E3";
paths = (
{
closed = 1;
nodes = (
"92 0 LINE",
"156 288 LINE",
"582 288 LINE SMOOTH",
"700 288 OFFCURVE",
"834 342 OFFCURVE",
"931 430 CURVE SMOOTH",
"1019 508 OFFCURVE",
"1086 612 OFFCURVE",
"1110 720 CURVE SMOOTH",
"1135 836 OFFCURVE",
"1111 952 OFFCURVE",
"1043 1032 CURVE SMOOTH",
"1011 1070 OFFCURVE",
"968 1102 OFFCURVE",
"921 1122 CURVE SMOOTH",
"875 1142 OFFCURVE",
"825 1152 OFFCURVE",
"773 1152 CURVE SMOOTH",
"347 1152 LINE",
"411 1440 LINE",
"327 1440 LINE",
"8 0 LINE"
);
},
{
closed = 1;
nodes = (
"329 1068 LINE",
"755 1068 LINE SMOOTH",
"841 1068 OFFCURVE",
"922 1030 OFFCURVE",
"969 970 CURVE SMOOTH",
"1020 904 OFFCURVE",
"1038 814 OFFCURVE",
"1020 720 CURVE SMOOTH",
"1003 638 OFFCURVE",
"954 558 OFFCURVE",
"888 496 CURVE SMOOTH",
"807 420 OFFCURVE",
"698 372 OFFCURVE",
"600 372 CURVE SMOOTH",
"174 372 LINE"
);
}
);
width = 1142;
},
{
layerId = "A27E663E-A13B-4DBD-B069-4CF983ECD621";
name = Layer5;
width = 1200;
},
{
layerId = "6751CA47-F6ED-42D7-BE33-6F49EA595F73";
name = Layer4;
width = 1202;
},
{
layerId = "3F31DAF6-41B6-44B9-8019-106AE6FC3ECE";
name = Layer3;
width = 1200;
}
);
leftKerningGroup = P;
rightKerningGroup = P;
unicode = 00DE;
},
{
glyphname = Q;
layers = (
{
layerId = "A27E663E-A13B-4DBD-B069-4CF983ECD621";
name = Layer5;
width = 1242;
},
{
layerId = "3F31DAF6-41B6-44B9-8019-106AE6FC3ECE";
name = Layer3;
width = 1200;
},
{
layerId = "6751CA47-F6ED-42D7-BE33-6F49EA595F73";
name = Layer4;
width = 1468;
},
{
components = (
{
name = O;
alignment = -1;
}
);
layerId = "0AC95DCC-852B-4BE6-AF8C-4094AF10EB8A";
paths = (
{
closed = 1;
nodes = (
"1331 138 LINE",
"1005 556 LINE",
"800 388 LINE",
"1127 -30 LINE"
);
}
);
width = 1516;
},
{
components = (
{
name = O;
alignment = -1;
}
);
layerId = "E58920B2-55F1-4AE6-872B-62598678C0E3";
paths = (
{
closed = 1;
nodes = (
"1214 38 LINE",
"931 402 LINE",
"850 336 LINE",
"1136 -28 LINE"
);
}
);
width = 1412;
}
);
leftKerningGroup = O;
rightKerningGroup = O;
unicode = 0051;
},
{
glyphname = R;
layers = (
{
layerId = "7447FE7B-D73D-4904-ADEA-265673B512E2";
name = public.background;
paths = (
{
closed = 1;
nodes = (
"224 0 LINE",
"224 576 LINE",
"670 576 LINE SMOOTH",
"698 576 OFFCURVE",
"726 578 OFFCURVE",
"762 584 CURVE SMOOTH",
"970 616 OFFCURVE",
"1102 792 OFFCURVE",
"1102 1008 CURVE SMOOTH",
"1102 1224 OFFCURVE",
"970 1400 OFFCURVE",
"762 1432 CURVE SMOOTH",
"726 1438 OFFCURVE",
"698 1440 OFFCURVE",
"670 1440 CURVE SMOOTH",
"140 1440 LINE",
"140 0 LINE"
);
},
{
closed = 1;
nodes = (
"1142 0 LINE",
"830 640 LINE",
"758 586 LINE",
"1042 0 LINE"
);
},
{
closed = 1;
nodes = (
"224 1356 LINE",
"670 1356 LINE SMOOTH",
"692 1356 OFFCURVE",
"726 1354 OFFCURVE",
"758 1348 CURVE SMOOTH",
"924 1316 OFFCURVE",
"1012 1170 OFFCURVE",
"1012 1008 CURVE SMOOTH",
"1012 846 OFFCURVE",
"924 700 OFFCURVE",
"758 668 CURVE SMOOTH",
"726 662 OFFCURVE",
"692 660 OFFCURVE",
"670 660 CURVE SMOOTH",
"224 660 LINE"
);
}
);
width = 1340;
},
{
layerId = "63ADE33C-C0F2-45DC-8BA2-2E70B1572FB0";
name = Layer6;
width = 1184;
},
{
layerId = "A27E663E-A13B-4DBD-B069-4CF983ECD621";
name = Layer5;
width = 1102;
},
{
layerId = "6751CA47-F6ED-42D7-BE33-6F49EA595F73";
name = Layer4;
width = 1200;
},
{
layerId = "0AC95DCC-852B-4BE6-AF8C-4094AF10EB8A";
paths = (
{
closed = 1;
nodes = (
"280 0 LINE",
"388 488 LINE",
"724 488 LINE",
"846 496 LINE",
"1128.591 538.655 OFFCURVE",
"1259.262 682.84 OFFCURVE",
"1322 964 CURVE SMOOTH",
"1377.273 1216.38 OFFCURVE",
"1294.078 1393.427 OFFCURVE",
"1053 1432 CURVE SMOOTH",
"1007.164 1439.639 OFFCURVE",
"981.456 1440 OFFCURVE",
"935 1440 CURVE SMOOTH",
"327 1440 LINE",
"8 0 LINE"
);
},
{
closed = 1;
nodes = (
"1128 0 LINE",
"958 640 LINE",
"666 586 LINE",
"820 0 LINE"
);
},
{
closed = 1;
nodes = (
"543 1186 LINE",
"867 1186 LINE SMOOTH",
"902.69 1186 OFFCURVE",
"922.75 1186.148 OFFCURVE",
"957 1176 CURVE SMOOTH",
"1053.933 1147.767 OFFCURVE",
"1071.161 1070.27 OFFCURVE",
"1048 964 CURVE SMOOTH",
"1021.076 847.328 OFFCURVE",
"977.597 781.637 OFFCURVE",
"863 752 CURVE SMOOTH",
"826.632 742.302 OFFCURVE",
"805.614 742 OFFCURVE",
"768 742 CURVE SMOOTH",
"444 742 LINE"
);
}
);
width = 1340;
},
{
layerId = "E58920B2-55F1-4AE6-872B-62598678C0E3";
paths = (
{
closed = 1;
nodes = (
"92 0 LINE",
"220 576 LINE",
"770 576 LINE",
"789 590 LINE",
"990 632 OFFCURVE",
"1148 802 OFFCURVE",
"1193 1008 CURVE SMOOTH",
"1241 1224 OFFCURVE",
"1148 1400 OFFCURVE",
"947 1432 CURVE SMOOTH",
"913 1438 OFFCURVE",
"885 1440 OFFCURVE",
"857 1440 CURVE SMOOTH",
"327 1440 LINE",
"8 0 LINE"
);
},
{
closed = 1;
nodes = (
"1010 0 LINE",
"840 640 LINE",
"756 586 LINE",
"910 0 LINE"
);
},
{
closed = 1;
nodes = (
"393 1356 LINE",
"839 1356 LINE SMOOTH",
"861 1356 OFFCURVE",
"894 1354 OFFCURVE",
"925 1348 CURVE SMOOTH",
"1084 1316 OFFCURVE",
"1139 1170 OFFCURVE",
"1103 1008 CURVE SMOOTH",
"1068 846 OFFCURVE",
"947 700 OFFCURVE",
"774 668 CURVE SMOOTH",
"741 662 OFFCURVE",
"706 660 OFFCURVE",
"684 660 CURVE SMOOTH",
"238 660 LINE"
);
}
);
width = 1222;
}
);
leftKerningGroup = P;
rightKerningGroup = R;
unicode = 0052;
},
{
glyphname = S;
layers = (
{
layerId = "7447FE7B-D73D-4904-ADEA-265673B512E2";
name = public.background;
paths = (
{
closed = 1;
nodes = (
"1112 1050 LINE",
"1086 1226 OFFCURVE",
"994 1326 OFFCURVE",
"890 1392 CURVE SMOOTH",
"808 1444 OFFCURVE",
"680 1470 OFFCURVE",
"576 1470 CURVE SMOOTH",
"486 1470 OFFCURVE",
"384 1450 OFFCURVE",
"302 1402 CURVE SMOOTH",
"190 1336 OFFCURVE",
"116 1222 OFFCURVE",
"116 1084 CURVE SMOOTH",
"116 1002 OFFCURVE",
"146 926 OFFCURVE",
"212 866 CURVE SMOOTH",
"290 794 OFFCURVE",
"382 772 OFFCURVE",
"470 746 CURVE SMOOTH",
"732 668 LINE SMOOTH",
"824 640 OFFCURVE",
"910 616 OFFCURVE",
"970 554 CURVE SMOOTH",
"1016 508 OFFCURVE",
"1036 442 OFFCURVE",
"1036 382 CURVE SMOOTH",
"1036 268 OFFCURVE",
"988 190 OFFCURVE",
"910 134 CURVE SMOOTH",
"834 78 OFFCURVE",
"720 54 OFFCURVE",
"612 54 CURVE SMOOTH",
"464 54 OFFCURVE",
"352 98 OFFCURVE",
"262 178 CURVE SMOOTH",
"194 238 OFFCURVE",
"162 306 OFFCURVE",
"144 374 CURVE",
"60 358 LINE",
"76 282 OFFCURVE",
"114 202 OFFCURVE",
"176 136 CURVE SMOOTH",
"296 12 OFFCURVE",
"464 -30 OFFCURVE",
"610 -30 CURVE SMOOTH",
"756 -30 OFFCURVE",
"866 -2 OFFCURVE",
"964 66 CURVE SMOOTH",
"1062 134 OFFCURVE",
"1118 248 OFFCURVE",
"1118 382 CURVE SMOOTH",
"1118 476 OFFCURVE",
"1094 550 OFFCURVE",
"1026 618 CURVE SMOOTH",
"954 688 OFFCURVE",
"850 724 OFFCURVE",
"756 752 CURVE SMOOTH",
"494 830 LINE SMOOTH",
"402 858 OFFCURVE",
"330 884 OFFCURVE",
"270 936 CURVE SMOOTH",
"222 978 OFFCURVE",
"206 1046 OFFCURVE",
"206 1090 CURVE SMOOTH",
"206 1208 OFFCURVE",
"278 1282 OFFCURVE",
"346 1326 CURVE SMOOTH",
"412 1368 OFFCURVE",
"496 1386 OFFCURVE",
"578 1386 CURVE SMOOTH",
"664 1386 OFFCURVE",
"764 1362 OFFCURVE",
"832 1324 CURVE SMOOTH",
"932 1268 OFFCURVE",
"1006 1180 OFFCURVE",
"1028 1034 CURVE"
);
}
);
width = 1342;
},
{
layerId = "BD936841-78ED-4F7E-A3FC-D5A6245A6992";
name = Layer7;
width = 1206;
},
{
layerId = "63ADE33C-C0F2-45DC-8BA2-2E70B1572FB0";
name = Layer6;
width = 1232;
},
{
layerId = "A27E663E-A13B-4DBD-B069-4CF983ECD621";
name = Layer5;
width = 1200;
},
{
layerId = "0AC95DCC-852B-4BE6-AF8C-4094AF10EB8A";
paths = (
{
closed = 1;
nodes = (
"913.182 -30 OFFCURVE",
"1147.814 81.222 OFFCURVE",
"1225 428 CURVE SMOOTH",
"1272.981 645.413 OFFCURVE",
"1145.243 764.031 OFFCURVE",
"916 830 CURVE SMOOTH",
"681 898 LINE SMOOTH",
"576.862 926.728 OFFCURVE",
"502.247 959.106 OFFCURVE",
"523 1052 CURVE SMOOTH",
"554.001 1189.482 OFFCURVE",
"657.288 1218.715 OFFCURVE",
"807 1214 CURVE SMOOTH",
"956.739 1209.357 OFFCURVE",
"1043.967 1140.617 OFFCURVE",
"1045 996 CURVE",
"1350 1046 LINE",
"1339.384 1332.629 OFFCURVE",
"1163.812 1464.016 OFFCURVE",
"867 1468 CURVE SMOOTH",
"523.238 1470.331 OFFCURVE",
"305.625 1362.549 OFFCURVE",
"234 1038 CURVE SMOOTH",
"190.567 842.908 OFFCURVE",
"280.574 721.863 OFFCURVE",
"477 662 CURVE SMOOTH",
"826 552 LINE SMOOTH",
"906.094 526.065 OFFCURVE",
"951.2 484.74 OFFCURVE",
"934 408 CURVE SMOOTH",
"900.891 255.188 OFFCURVE",
"786.093 224 OFFCURVE",
"620 224 CURVE SMOOTH",
"443.413 224 OFFCURVE",
"342.121 309.314 OFFCURVE",
"339 482 CURVE",
"46 440 LINE",
"23.619 128.799 OFFCURVE",
"216.986 -30 OFFCURVE",
"545 -30 CURVE SMOOTH"
);
}
);
width = 1342;
},
{
layerId = "E58920B2-55F1-4AE6-872B-62598678C0E3";
paths = (
{
closed = 1;
nodes = (
"799.967 -30 OFFCURVE",
"1001.686 72.473 OFFCURVE",
"1069 376 CURVE SMOOTH",
"1111.386 565.658 OFFCURVE",
"1016.908 679.082 OFFCURVE",
"824 740 CURVE SMOOTH",
"546 830 LINE SMOOTH",
"386.839 880.261 OFFCURVE",
"283.576 946.59 OFFCURVE",
"317 1094 CURVE SMOOTH",
"366.289 1318.537 OFFCURVE",
"521.51 1386 OFFCURVE",
"761 1386 CURVE SMOOTH",
"1004.073 1386 OFFCURVE",
"1145.866 1264.622 OFFCURVE",
"1125 1034 CURVE",
"1213 1050 LINE",
"1234.668 1325.179 OFFCURVE",
"1067.89 1470 OFFCURVE",
"780 1470 CURVE SMOOTH",
"479.248 1470 OFFCURVE",
"289.246 1375.963 OFFCURVE",
"226 1092 CURVE SMOOTH",
"187.48 919.792 OFFCURVE",
"275.319 818.145 OFFCURVE",
"451 762 CURVE SMOOTH",
"787 654 LINE SMOOTH",
"938.718 605.726 OFFCURVE",
"1019.555 522.878 OFFCURVE",
"987 376 CURVE SMOOTH",
"932.191 128.723 OFFCURVE",
"761.647 54 OFFCURVE",
"498 54 CURVE SMOOTH",
"256.314 54 OFFCURVE",
"104.206 146.153 OFFCURVE",
"95 374 CURVE",
"7 358 LINE",
"7 85.892 OFFCURVE",
"188.736 -30 OFFCURVE",
"479 -30 CURVE SMOOTH"
);
}
);
width = 1178;
}
);
leftKerningGroup = S;
rightKerningGroup = S;
unicode = 0053;
},
{
glyphname = Germandbls;
layers = (
{
layerId = "0AC95DCC-852B-4BE6-AF8C-4094AF10EB8A";
paths = (
{
closed = 1;
nodes = (
"1129.198 -30 OFFCURVE",
"1302.059 116.07 OFFCURVE",
"1371 428 CURVE SMOOTH",
"1419.627 645.884 OFFCURVE",
"1340.783 793.885 OFFCURVE",
"1128 845 CURVE",
"1495 1299 LINE",
"1313.901 1426.932 OFFCURVE",
"1191.735 1470 OFFCURVE",
"970 1470 CURVE SMOOTH",
"644.795 1470 OFFCURVE",
"456.523 1377.775 OFFCURVE",
"291 1099 CURVE SMOOTH",
"226.171 991.443 OFFCURVE",
"210.316 922.451 OFFCURVE",
"183 800 CURVE SMOOTH",
"6 0 LINE",
"280 0 LINE",
"445 746 LINE SMOOTH",
"466.06 838.001 OFFCURVE",
"478.07 889.392 OFFCURVE",
"522 973 CURVE SMOOTH",
"618.204 1154.35 OFFCURVE",
"737.894 1216 OFFCURVE",
"944 1216 CURVE SMOOTH",
"1020.148 1216 OFFCURVE",
"1063.825 1213.087 OFFCURVE",
"1132 1179 CURVE",
"836 832 LINE",
"849 664 LINE",
"1028.78 664 OFFCURVE",
"1141.82 588.281 OFFCURVE",
"1109 438 CURVE SMOOTH",
"1077.379 291.115 OFFCURVE",
"983.812 236 OFFCURVE",
"830 236 CURVE SMOOTH",
"761.982 236 OFFCURVE",
"723.368 238.714 OFFCURVE",
"661 266 CURVE",
"602 0 LINE",
"678.719 -33.899 OFFCURVE",
"727.291 -30 OFFCURVE",
"811 -30 CURVE SMOOTH"
);
}
);
width = 1528;
},
{
layerId = "E58920B2-55F1-4AE6-872B-62598678C0E3";
paths = (
{
closed = 1;
nodes = (
"953.087 -30 OFFCURVE",
"1128.602 99.21 OFFCURVE",
"1195 398 CURVE SMOOTH",
"1247.755 634.058 OFFCURVE",
"1129.546 787.822 OFFCURVE",
"886 809 CURVE",
"1275 1310 LINE",
"1142.971 1425.971 OFFCURVE",
"1047.66 1470 OFFCURVE",
"872 1470 CURVE SMOOTH",
"572.789 1470 OFFCURVE",
"395.812 1378.798 OFFCURVE",
"274 1108 CURVE SMOOTH",
"236.802 1027.882 OFFCURVE",
"225.648 980.075 OFFCURVE",
"206 894 CURVE SMOOTH",
"8 0 LINE",
"100 0 LINE",
"280 812 LINE SMOOTH",
"304.469 919.663 OFFCURVE",
"316.547 979.87 OFFCURVE",
"361 1081 CURVE SMOOTH",
"455.233 1302.647 OFFCURVE",
"596.665 1382 OFFCURVE",
"839 1382 CURVE SMOOTH",
"971.116 1382 OFFCURVE",
"1046.125 1360.616 OFFCURVE",
"1150 1279 CURVE",
"777 806 LINE",
"759 728 LINE",
"1003.508 719.141 OFFCURVE",
"1152.11 607.307 OFFCURVE",
"1106 397 CURVE SMOOTH",
"1053.778 159.826 OFFCURVE",
"913.726 58 OFFCURVE",
"669 58 CURVE SMOOTH",
"598.824 58 OFFCURVE",
"559.9 62.762 OFFCURVE",
"493 84 CURVE",
"474 0 LINE",
"539 -21.667 OFFCURVE",
"576.46 -30 OFFCURVE",
"645 -30 CURVE SMOOTH"
);
}
);
width = 1359;
}
);
leftKerningGroup = b;
rightKerningGroup = b;
unicode = 1E9E;
},
{
glyphname = T;
layers = (
{
layerId = "A27E663E-A13B-4DBD-B069-4CF983ECD621";
name = Layer5;
width = 1172;
},
{
layerId = "6751CA47-F6ED-42D7-BE33-6F49EA595F73";
name = Layer4;
width = 1026;
},
{
layerId = "3F31DAF6-41B6-44B9-8019-106AE6FC3ECE";
name = Layer3;
width = 1200;
},
{
layerId = "0AC95DCC-852B-4BE6-AF8C-4094AF10EB8A";
paths = (
{
closed = 1;
nodes = (
"614 0 LINE",
"877 1186 LINE",
"1331 1186 LINE",
"1387 1440 LINE",
"207 1440 LINE",
"151 1186 LINE",
"605 1186 LINE",
"342 0 LINE"
);
}
);
width = 1220;
},
{
layerId = "E58920B2-55F1-4AE6-872B-62598678C0E3";
paths = (
{
closed = 1;
nodes = (
"500 0 LINE",
"801 1356 LINE",
"1329 1356 LINE",
"1347 1440 LINE",
"207 1440 LINE",
"189 1356 LINE",
"717 1356 LINE",
"416 0 LINE"
);
}
);
width = 1180;
}
);
leftKerningGroup = T;
rightKerningGroup = T;
unicode = 0054;
},
{
glyphname = Tbar;
layers = (
{
layerId = "A27E663E-A13B-4DBD-B069-4CF983ECD621";
name = Layer5;
width = 1172;
},
{
layerId = "3F31DAF6-41B6-44B9-8019-106AE6FC3ECE";
name = Layer3;
width = 1200;
},
{
layerId = "6751CA47-F6ED-42D7-BE33-6F49EA595F73";
name = Layer4;
width = 1026;
},
{
components = (
{
name = T;
alignment = -1;
}
);
layerId = "0AC95DCC-852B-4BE6-AF8C-4094AF10EB8A";
paths = (
{
closed = 1;
nodes = (
"1087 584 LINE",
"1148 856 LINE",
"188 856 LINE",
"127 584 LINE"
);
}
);
width = 1220;
},
{
components = (
{
name = T;
alignment = -1;
}
);
layerId = "E58920B2-55F1-4AE6-872B-62598678C0E3";
paths = (
{
closed = 1;
nodes = (
"1028 678 LINE",
"1047 762 LINE",
"207 762 LINE",
"188 678 LINE"
);
}
);
width = 1180;
}
);
leftKerningGroup = X;
rightKerningGroup = X;
unicode = 0166;
},
{
glyphname = U;
layers = (
{
layerId = "7447FE7B-D73D-4904-ADEA-265673B512E2";
name = public.background;
paths = (
{
closed = 1;
nodes = (
"1156 1440 LINE",
"1156 610 LINE SMOOTH",
"1156 524 OFFCURVE",
"1152 452 OFFCURVE",
"1136 386 CURVE SMOOTH",
"1090 194 OFFCURVE",
"902 50 OFFCURVE",
"690 50 CURVE SMOOTH",
"478 50 OFFCURVE",
"290 194 OFFCURVE",
"244 386 CURVE SMOOTH",
"228 452 OFFCURVE",
"224 524 OFFCURVE",
"224 610 CURVE SMOOTH",
"224 1440 LINE",
"140 1440 LINE",
"140 506 LINE SMOOTH",
"140 426 OFFCURVE",
"152 356 OFFCURVE",
"178 294 CURVE SMOOTH",
"258 100 OFFCURVE",
"434 -30 OFFCURVE",
"690 -30 CURVE SMOOTH",
"946 -30 OFFCURVE",
"1122 100 OFFCURVE",
"1202 294 CURVE SMOOTH",
"1228 356 OFFCURVE",
"1240 426 OFFCURVE",
"1240 506 CURVE SMOOTH",
"1240 1440 LINE"
);
}
);
width = 1452;
},
{
layerId = "BD936841-78ED-4F7E-A3FC-D5A6245A6992";
name = Layer7;
width = 1240;
},
{
layerId = "63ADE33C-C0F2-45DC-8BA2-2E70B1572FB0";
name = Layer6;
width = 1450;
},
{
layerId = "A27E663E-A13B-4DBD-B069-4CF983ECD621";
name = Layer5;
width = 1200;
},
{
layerId = "0AC95DCC-852B-4BE6-AF8C-4094AF10EB8A";
paths = (
{
closed = 1;
nodes = (
"989.323 -30 OFFCURVE",
"1212.662 147.547 OFFCURVE",
"1300 540 CURVE SMOOTH",
"1499 1440 LINE",
"1223 1440 LINE",
"1024 542 LINE SMOOTH",
"976.932 328.474 OFFCURVE",
"861.028 226 OFFCURVE",
"644 226 CURVE SMOOTH",
"455.058 226 OFFCURVE",
"362.156 352.704 OFFCURVE",
"404 542 CURVE SMOOTH",
"603 1440 LINE",
"327 1438 LINE",
"128 540 LINE SMOOTH",
"51.373 195.674 OFFCURVE",
"233.567 -30 OFFCURVE",
"587 -30 CURVE SMOOTH"
);
}
);
width = 1452;
},
{
layerId = "E58920B2-55F1-4AE6-872B-62598678C0E3";
paths = (
{
closed = 1;
nodes = (
"929.966 -30 OFFCURVE",
"1138.707 139.68 OFFCURVE",
"1221 510 CURVE SMOOTH",
"1427 1440 LINE",
"1343 1440 LINE",
"1143 538 LINE SMOOTH",
"1070.617 211.82 OFFCURVE",
"898.951 50 OFFCURVE",
"569 50 CURVE SMOOTH",
"282.953 50 OFFCURVE",
"146.433 247.038 OFFCURVE",
"211 538 CURVE SMOOTH",
"411 1440 LINE",
"327 1440 LINE",
"121 510 LINE SMOOTH",
"49.057 184.26 OFFCURVE",
"218.751 -30 OFFCURVE",
"551 -30 CURVE SMOOTH"
);
}
);
width = 1380;
}
);
leftKerningGroup = U;
rightKerningGroup = U;
unicode = 0055;
},
{
glyphname = V;
layers = (
{
layerId = "A27E663E-A13B-4DBD-B069-4CF983ECD621";
name = Layer5;
width = 1208;
},
{
layerId = "6751CA47-F6ED-42D7-BE33-6F49EA595F73";
name = Layer4;
width = 1246;
},
{
layerId = "3F31DAF6-41B6-44B9-8019-106AE6FC3ECE";
name = Layer3;
width = 1200;
},
{
layerId = "0AC95DCC-852B-4BE6-AF8C-4094AF10EB8A";
paths = (
{
closed = 1;
nodes = (
"724 0 LINE",
"1483 1440 LINE",
"1203 1440 LINE",
"575 256 LINE",
"477 1440 LINE",
"197 1440 LINE",
"318 0 LINE"
);
}
);
width = 1306;
},
{
layerId = "E58920B2-55F1-4AE6-872B-62598678C0E3";
paths = (
{
closed = 1;
nodes = (
"492 0 LINE",
"1335 1440 LINE",
"1245 1440 LINE",
"473 122 LINE",
"287 1440 LINE",
"197 1440 LINE",
"402 0 LINE"
);
}
);
width = 1158;
}
);
leftKerningGroup = V;
rightKerningGroup = V;
unicode = 0056;
},
{
glyphname = W;
layers = (
{
layerId = "A27E663E-A13B-4DBD-B069-4CF983ECD621";
name = Layer5;
width = 1298;
},
{
layerId = "6751CA47-F6ED-42D7-BE33-6F49EA595F73";
name = Layer4;
width = 1812;
},
{
layerId = "3F31DAF6-41B6-44B9-8019-106AE6FC3ECE";
name = Layer3;
width = 1200;
},
{
layerId = "0AC95DCC-852B-4BE6-AF8C-4094AF10EB8A";
paths = (
{
closed = 1;
nodes = (
"578 0 LINE",
"1072 972 LINE",
"1136 0 LINE",
"1404 0 LINE",
"2145 1440 LINE",
"1859 1440 LINE",
"1370 450 LINE",
"1319 1440 LINE",
"1033 1438 LINE",
"544 450 LINE",
"493 1440 LINE",
"207 1440 LINE",
"310 0 LINE"
);
}
);
width = 1978;
},
{
layerId = "E58920B2-55F1-4AE6-872B-62598678C0E3";
paths = (
{
closed = 1;
nodes = (
"408 0 LINE",
"1061 1286 LINE",
"1146 0 LINE",
"1234 0 LINE",
"1965 1440 LINE",
"1877 1440 LINE",
"1224 152 LINE",
"1139 1440 LINE",
"1051 1440 LINE",
"398 152 LINE",
"313 1440 LINE",
"227 1440 LINE",
"320 0 LINE"
);
}
);
width = 1818;
}
);
leftKerningGroup = V;
rightKerningGroup = V;
unicode = 0057;
},
{
glyphname = X;
layers = (
{
layerId = "A27E663E-A13B-4DBD-B069-4CF983ECD621";
name = Layer5;
width = 1254;
},
{
layerId = "6751CA47-F6ED-42D7-BE33-6F49EA595F73";
name = Layer4;
width = 1532;
},
{
layerId = "3F31DAF6-41B6-44B9-8019-106AE6FC3ECE";
name = Layer3;
width = 1200;
},
{
layerId = "0AC95DCC-852B-4BE6-AF8C-4094AF10EB8A";
paths = (
{
closed = 1;
nodes = (
"224 0 LINE",
"652 496 LINE",
"858 0 LINE",
"1192 0 LINE",
"871 728 LINE",
"1499 1440 LINE",
"1163 1440 LINE",
"755 960 LINE",
"555 1440 LINE",
"221 1440 LINE",
"533 728 LINE",
"-112 0 LINE"
);
}
);
width = 1344;
},
{
layerId = "E58920B2-55F1-4AE6-872B-62598678C0E3";
paths = (
{
closed = 1;
nodes = (
"-12 0 LINE",
"586 660 LINE",
"894 0 LINE",
"994 0 LINE",
"650 730 LINE",
"1301 1440 LINE",
"1201 1440 LINE",
"617 798 LINE",
"319 1440 LINE",
"219 1440 LINE",
"556 730 LINE",
"-112 0 LINE"
);
}
);
width = 1146;
}
);
leftKerningGroup = X;
rightKerningGroup = X;
unicode = 0058;
},
{
glyphname = Y;
layers = (
{
layerId = "A27E663E-A13B-4DBD-B069-4CF983ECD621";
name = Layer5;
width = 1190;
},
{
layerId = "6751CA47-F6ED-42D7-BE33-6F49EA595F73";
name = Layer4;
width = 1138;
},
{
layerId = "3F31DAF6-41B6-44B9-8019-106AE6FC3ECE";
name = Layer3;
width = 1200;
},
{
layerId = "0AC95DCC-852B-4BE6-AF8C-4094AF10EB8A";
paths = (
{
closed = 1;
nodes = (
"636 0 LINE",
"766 586 LINE",
"1447 1440 LINE",
"1129 1440 LINE",
"697 898 LINE",
"505 1440 LINE",
"187 1440 LINE",
"490 586 LINE",
"360 0 LINE"
);
}
);
width = 1260;
},
{
layerId = "E58920B2-55F1-4AE6-872B-62598678C0E3";
paths = (
{
closed = 1;
nodes = (
"430 0 LINE",
"566 612 LINE",
"1225 1440 LINE",
"1129 1440 LINE",
"545 708 LINE",
"283 1440 LINE",
"187 1440 LINE",
"482 612 LINE",
"346 0 LINE"
);
}
);
width = 1038;
}
);
leftKerningGroup = Y;
rightKerningGroup = Y;
unicode = 0059;
},
{
glyphname = Z;
layers = (
{
layerId = "A27E663E-A13B-4DBD-B069-4CF983ECD621";
name = Layer5;
width = 1200;
},
{
layerId = "6751CA47-F6ED-42D7-BE33-6F49EA595F73";
name = Layer4;
width = 1200;
},
{
layerId = "3F31DAF6-41B6-44B9-8019-106AE6FC3ECE";
name = Layer3;
width = 1200;
},
{
layerId = "0AC95DCC-852B-4BE6-AF8C-4094AF10EB8A";
paths = (
{
closed = 1;
nodes = (
"1108 0 LINE",
"1165 256 LINE",
"505 256 LINE",
"1440 1406 LINE",
"1447 1440 LINE",
"347 1440 LINE",
"291 1186 LINE",
"915 1186 LINE",
"-24 34 LINE",
"-32 0 LINE"
);
}
);
width = 1360;
},
{
layerId = "E58920B2-55F1-4AE6-872B-62598678C0E3";
paths = (
{
closed = 1;
nodes = (
"930 0 LINE",
"948 82 LINE",
"114 82 LINE",
"1242 1406 LINE",
"1249 1440 LINE",
"287 1440 LINE",
"269 1356 LINE",
"1107 1356 LINE",
"-25 30 LINE",
"-32 0 LINE"
);
}
);
width = 1162;
}
);
leftKerningGroup = Z;
rightKerningGroup = Z;
unicode = 005A;
},
{
glyphname = a;
layers = (
{
layerId = "7447FE7B-D73D-4904-ADEA-265673B512E2";
name = public.background;
paths = (
{
closed = 1;
nodes = (
"628 -30 OFFCURVE",
"796 36 OFFCURVE",
"886 196 CURVE",
"886 0 LINE",
"964 0 LINE",
"964 676 LINE",
"964 732 OFFCURVE",
"960 782 OFFCURVE",
"946 834 CURVE SMOOTH",
"898 1008 OFFCURVE",
"766 1110 OFFCURVE",
"566 1110 CURVE SMOOTH",
"336 1110 OFFCURVE",
"166 1020 OFFCURVE",
"122 822 CURVE",
"210 794 LINE",
"254 964 OFFCURVE",
"382 1026 OFFCURVE",
"560 1026 CURVE SMOOTH",
"772 1026 OFFCURVE",
"880 896 OFFCURVE",
"880 664 CURVE",
"676 638 OFFCURVE",
"508 624 OFFCURVE",
"352 588 CURVE SMOOTH",
"156 542 OFFCURVE",
"80 426 OFFCURVE",
"80 292 CURVE SMOOTH",
"80 92 OFFCURVE",
"234 -30 OFFCURVE",
"434 -30 CURVE SMOOTH"
);
},
{
closed = 1;
nodes = (
"280 54 OFFCURVE",
"168 140 OFFCURVE",
"168 292 CURVE SMOOTH",
"168 404 OFFCURVE",
"250 476 OFFCURVE",
"380 512 CURVE SMOOTH",
"528 554 OFFCURVE",
"688 562 OFFCURVE",
"880 582 CURVE",
"880 502 OFFCURVE",
"878 362 OFFCURVE",
"832 268 CURVE SMOOTH",
"760 122 OFFCURVE",
"618 54 OFFCURVE",
"436 54 CURVE SMOOTH"
);
}
);
width = 1084;
},
{
layerId = "BD936841-78ED-4F7E-A3FC-D5A6245A6992";
name = Layer7;
width = 1180;
},
{
layerId = "63ADE33C-C0F2-45DC-8BA2-2E70B1572FB0";
name = Layer6;
width = 1070;
},
{
layerId = "A27E663E-A13B-4DBD-B069-4CF983ECD621";
name = Layer5;
width = 1200;
},
{
hints = (
{
horizontal = 1;
place = "{-30, 328}";
type = Stem;
},
{
horizontal = 1;
place = "{494, 194}";
type = Stem;
},
{
horizontal = 1;
place = "{862, 248}";
type = Stem;
},
{
horizontal = 1;
place = "{0, 0}";
type = Stem;
},
{
horizontal = 1;
place = "{298, 4}";
type = Stem;
},
{
horizontal = 1;
place = "{0, 676}";
type = Stem;
},
{
horizontal = 1;
place = "{0, 328}";
type = Stem;
}
);
layerId = "0AC95DCC-852B-4BE6-AF8C-4094AF10EB8A";
paths = (
{
closed = 1;
nodes = (
"502 -30 OFFCURVE",
"610.409 29.374 OFFCURVE",
"749 176 CURVE",
"725 222 LINE",
"676 0 LINE",
"914 0 LINE",
"1048 602 LINE SMOOTH",
"1070.035 700.992 OFFCURVE",
"1090.54 758.69 OFFCURVE",
"1061 856 CURVE SMOOTH",
"1008.21 1029.901 OFFCURVE",
"885 1110 OFFCURVE",
"694 1110 CURVE SMOOTH",
"436 1110 OFFCURVE",
"284.891 1035.028 OFFCURVE",
"165 808 CURVE",
"394 730 LINE",
"451.911 831.345 OFFCURVE",
"522 862 OFFCURVE",
"639 862 CURVE SMOOTH",
"759 862 OFFCURVE",
"822.857 789.633 OFFCURVE",
"798 676 CURVE",
"908 730 LINE",
"676.375 696.277 OFFCURVE",
"543.969 699.128 OFFCURVE",
"322 624 CURVE SMOOTH",
"143.608 563.271 OFFCURVE",
"54.531 481.104 OFFCURVE",
"14 298 CURVE SMOOTH",
"-30.469 97.103 OFFCURVE",
"86 -30 OFFCURVE",
"301 -30 CURVE SMOOTH"
);
},
{
closed = 1;
nodes = (
"318.366 184 OFFCURVE",
"264 226 OFFCURVE",
"281 302 CURVE SMOOTH",
"298 378 OFFCURVE",
"346.127 398.828 OFFCURVE",
"420 426 CURVE SMOOTH",
"578.153 480.105 OFFCURVE",
"672.09 481.72 OFFCURVE",
"837 508 CURVE",
"761 528 LINE",
"743.567 445.59 OFFCURVE",
"736.966 397.024 OFFCURVE",
"689 328 CURVE SMOOTH",
"613.966 220.024 OFFCURVE",
"538.74 184 OFFCURVE",
"407 184 CURVE SMOOTH"
);
}
);
width = 1166;
},
{
hints = (
{
horizontal = 1;
place = "{-30, 84}";
type = Stem;
},
{
horizontal = 1;
place = "{580, 84}";
type = Stem;
},
{
horizontal = 1;
place = "{1026, 84}";
type = Stem;
},
{
horizontal = 1;
place = "{284, 2}";
type = Stem;
},
{
horizontal = 1;
place = "{0, 408}";
type = Stem;
},
{
horizontal = 1;
place = "{0, 0}";
type = Stem;
}
);
layerId = "E58920B2-55F1-4AE6-872B-62598678C0E3";
paths = (
{
closed = 1;
nodes = (
"583.858 -30 OFFCURVE",
"739.209 54.419 OFFCURVE",
"859 294 CURVE",
"820 296 LINE",
"754 0 LINE",
"832 0 LINE",
"982 634 LINE SMOOTH",
"1000.992 714.272 OFFCURVE",
"1011.786 759.994 OFFCURVE",
"1002 842 CURVE SMOOTH",
"981.138 1016.824 OFFCURVE",
"854.305 1110 OFFCURVE",
"666 1110 CURVE SMOOTH",
"416.738 1110 OFFCURVE",
"272.663 1029.081 OFFCURVE",
"168 804 CURVE",
"255 780 LINE",
"340.568 955.361 OFFCURVE",
"448.18 1026 OFFCURVE",
"643 1026 CURVE SMOOTH",
"853.866 1026 OFFCURVE",
"946.181 869.967 OFFCURVE",
"892 648 CURVE",
"926 668 LINE",
"709.318 640.041 OFFCURVE",
"588.527 635.592 OFFCURVE",
"374 594 CURVE SMOOTH",
"172.744 553.999 OFFCURVE",
"54.956 482.703 OFFCURVE",
"11 286 CURVE SMOOTH",
"-33.242 88.018 OFFCURVE",
"94.174 -30 OFFCURVE",
"315 -30 CURVE SMOOTH"
);
},
{
closed = 1;
nodes = (
"164.338 54 OFFCURVE",
"66.588 138.144 OFFCURVE",
"99 284 CURVE SMOOTH",
"131.876 431.943 OFFCURVE",
"223.378 480.904 OFFCURVE",
"374 516 CURVE SMOOTH",
"585.237 565.843 OFFCURVE",
"706.007 566.001 OFFCURVE",
"922 586 CURVE",
"885 620 LINE",
"867.286 535.859 OFFCURVE",
"858.999 488.978 OFFCURVE",
"830 408 CURVE SMOOTH",
"740.839 159.023 OFFCURVE",
"594.236 54 OFFCURVE",
"330 54 CURVE SMOOTH"
);
}
);
width = 1084;
}
);
leftKerningGroup = a;
rightKerningGroup = a;
unicode = 0061;
},
{
glyphname = ae;
layers = (
{
layerId = "0AC95DCC-852B-4BE6-AF8C-4094AF10EB8A";
paths = (
{
closed = 1;
nodes = (
"1436.713 -30 OFFCURVE",
"1572.244 63.343 OFFCURVE",
"1705 282 CURVE",
"1465 360 LINE",
"1401.61 263.303 OFFCURVE",
"1339.308 224 OFFCURVE",
"1224 224 CURVE SMOOTH",
"1062.62 224 OFFCURVE",
"1009.289 356.328 OFFCURVE",
"1050 540 CURVE SMOOTH",
"1094.792 744.765 OFFCURVE",
"1169.534 874 OFFCURVE",
"1368 874 CURVE SMOOTH",
"1520.674 874 OFFCURVE",
"1561.295 743.11 OFFCURVE",
"1522 564 CURVE SMOOTH",
"1500 464 LINE",
"1755 464 LINE",
"1864.547 835.08 OFFCURVE",
"1749.572 1110 OFFCURVE",
"1420 1110 CURVE SMOOTH",
"1041.149 1110 OFFCURVE",
"858.523 905.649 OFFCURVE",
"775 526 CURVE SMOOTH",
"700.918 194.687 OFFCURVE",
"856.265 -30 OFFCURVE",
"1182 -30 CURVE SMOOTH"
);
},
{
closed = 1;
nodes = (
"317.031 182 OFFCURVE",
"263.164 224.199 OFFCURVE",
"281 300 CURVE SMOOTH",
"315.594 458.146 OFFCURVE",
"449.676 450.718 OFFCURVE",
"620 470 CURVE SMOOTH",
"854 498 LINE",
"764 532 LINE",
"747.848 439.124 OFFCURVE",
"736.115 385.565 OFFCURVE",
"677 312 CURVE SMOOTH",
"598.87 215.84 OFFCURVE",
"529.865 182 OFFCURVE",
"406 182 CURVE SMOOTH"
);
},
{
closed = 1;
nodes = (
"546.468 -30 OFFCURVE",
"674.317 34.406 OFFCURVE",
"823 212 CURVE",
"1057 644 LINE",
"1072.994 719.972 OFFCURVE",
"1082.947 762.593 OFFCURVE",
"1076 840 CURVE SMOOTH",
"1058.034 1041.219 OFFCURVE",
"917.375 1110 OFFCURVE",
"702 1110 CURVE SMOOTH",
"444.396 1110 OFFCURVE",
"307.101 1019.309 OFFCURVE",
"164 804 CURVE",
"392 730 LINE",
"455.32 828.255 OFFCURVE",
"521.961 862 OFFCURVE",
"639 862 CURVE SMOOTH",
"769.478 862 OFFCURVE",
"827.929 762.517 OFFCURVE",
"782 630 CURVE",
"857 682 LINE",
"604 650 LINE SMOOTH",
"297.288 612.251 OFFCURVE",
"75.752 576.886 OFFCURVE",
"12 290 CURVE SMOOTH",
"-32.502 90.286 OFFCURVE",
"93.939 -30 OFFCURVE",
"315 -30 CURVE SMOOTH"
);
},
{
closed = 1;
nodes = (
"1630 464 LINE",
"1676 674 LINE",
"999 674 LINE",
"953 464 LINE"
);
}
);
width = 1868;
},
{
layerId = "E58920B2-55F1-4AE6-872B-62598678C0E3";
paths = (
{
closed = 1;
nodes = (
"1450.083 -30 OFFCURVE",
"1578.521 55.511 OFFCURVE",
"1711 258 CURVE",
"1654 298 LINE",
"1538.7 128.621 OFFCURVE",
"1431.97 54 OFFCURVE",
"1228 54 CURVE SMOOTH",
"976.695 54 OFFCURVE",
"888.996 256.968 OFFCURVE",
"952 540 CURVE SMOOTH",
"1019.635 844.356 OFFCURVE",
"1144.645 1026 OFFCURVE",
"1443 1026 CURVE SMOOTH",
"1689.51 1026 OFFCURVE",
"1769.147 825.182 OFFCURVE",
"1715 544 CURVE",
"1708 516 LINE",
"1794 516 LINE",
"1870.628 861.311 OFFCURVE",
"1769.705 1110 OFFCURVE",
"1466 1110 CURVE SMOOTH",
"1108.599 1110 OFFCURVE",
"948.251 903.665 OFFCURVE",
"868 542 CURVE SMOOTH",
"793.933 207.699 OFFCURVE",
"907.214 -30 OFFCURVE",
"1209 -30 CURVE SMOOTH"
);
},
{
closed = 1;
nodes = (
"163.774 54 OFFCURVE",
"67.222 141.533 OFFCURVE",
"100 290 CURVE SMOOTH",
"144.179 489.238 OFFCURVE",
"298.843 520 OFFCURVE",
"517 520 CURVE SMOOTH",
"867 520 LINE",
"872 560 LINE",
"846.017 438.747 OFFCURVE",
"830.319 369.63 OFFCURVE",
"759 268 CURVE SMOOTH",
"647.26 102.929 OFFCURVE",
"530.026 54 OFFCURVE",
"330 54 CURVE SMOOTH"
);
},
{
closed = 1;
nodes = (
"594.072 -30 OFFCURVE",
"746.619 60.344 OFFCURVE",
"873 300 CURVE",
"982 676 LINE",
"995.106 737.164 OFFCURVE",
"1001.405 771.462 OFFCURVE",
"999 834 CURVE SMOOTH",
"990.148 1026.54 OFFCURVE",
"867.331 1110 OFFCURVE",
"666 1110 CURVE SMOOTH",
"419.899 1110 OFFCURVE",
"268.687 1044.605 OFFCURVE",
"172 822 CURVE",
"254 794 LINE",
"336.622 969.573 OFFCURVE",
"453.327 1026 OFFCURVE",
"649 1026 CURVE SMOOTH",
"871.157 1026 OFFCURVE",
"945.214 840.724 OFFCURVE",
"878 588 CURVE",
"883 600 LINE",
"535 600 LINE SMOOTH",
"258.958 600 OFFCURVE",
"69.146 546.306 OFFCURVE",
"13 292 CURVE SMOOTH",
"-31.959 90.185 OFFCURVE",
"97.941 -30 OFFCURVE",
"323 -30 CURVE SMOOTH"
);
},
{
closed = 1;
nodes = (
"1744 516 LINE",
"1763 600 LINE",
"931 600 LINE",
"912 516 LINE"
);
}
);
width = 1892;
},
{
layerId = "7447FE7B-D73D-4904-ADEA-265673B512E2";
name = public.background;
paths = (
{
closed = 1;
nodes = (
"1547 -30 OFFCURVE",
"1704 70 OFFCURVE",
"1787 258 CURVE",
"1721 298 LINE",
"1645 136 OFFCURVE",
"1517 54 OFFCURVE",
"1346 54 CURVE SMOOTH",
"1095 54 OFFCURVE",
"965 246 OFFCURVE",
"965 540 CURVE SMOOTH",
"965 826 OFFCURVE",
"1091 1030 OFFCURVE",
"1346 1026 CURVE",
"1596 1030 OFFCURVE",
"1719 840 OFFCURVE",
"1726 544 CURVE",
"1726 516 LINE",
"1811 516 LINE",
"1811 870 OFFCURVE",
"1662 1110 OFFCURVE",
"1346 1110 CURVE SMOOTH",
"1048 1110 OFFCURVE",
"880 880 OFFCURVE",
"880 540 CURVE SMOOTH",
"880 206 OFFCURVE",
"1046 -30 OFFCURVE",
"1346 -30 CURVE SMOOTH"
);
},
{
closed = 1;
nodes = (
"280 54 OFFCURVE",
"168 140 OFFCURVE",
"168 292 CURVE SMOOTH",
"168 404 OFFCURVE",
"236 464 OFFCURVE",
"300 492 CURVE SMOOTH",
"388 530 OFFCURVE",
"700 520 OFFCURVE",
"882 520 CURVE",
"880 440 OFFCURVE",
"874 360 OFFCURVE",
"830 268 CURVE SMOOTH",
"762 122 OFFCURVE",
"618 54 OFFCURVE",
"436 54 CURVE SMOOTH"
);
},
{
closed = 1;
nodes = (
"708 -32 OFFCURVE",
"870 82 OFFCURVE",
"938 300 CURVE",
"946 834 LINE",
"900 1008 OFFCURVE",
"766 1110 OFFCURVE",
"566 1110 CURVE SMOOTH",
"336 1110 OFFCURVE",
"166 1020 OFFCURVE",
"122 822 CURVE",
"210 794 LINE",
"254 964 OFFCURVE",
"382 1026 OFFCURVE",
"560 1026 CURVE SMOOTH",
"852 1026 OFFCURVE",
"886 792 OFFCURVE",
"882 600 CURVE",
"660 600 OFFCURVE",
"392 610 OFFCURVE",
"268 566 CURVE SMOOTH",
"150 524 OFFCURVE",
"80 422 OFFCURVE",
"80 292 CURVE SMOOTH",
"80 92 OFFCURVE",
"234 -28 OFFCURVE",
"434 -30 CURVE SMOOTH"
);
},
{
closed = 1;
nodes = (
"1762 516 LINE",
"1762 600 LINE",
"931 600 LINE",
"931 516 LINE"
);
}
);
width = 1868;
},
{
layerId = "BD936841-78ED-4F7E-A3FC-D5A6245A6992";
name = Layer7;
width = 1338;
},
{
layerId = "63ADE33C-C0F2-45DC-8BA2-2E70B1572FB0";
name = Layer6;
width = 2058;
},
{
layerId = "A27E663E-A13B-4DBD-B069-4CF983ECD621";
name = Layer5;
width = 1200;
}
);
leftKerningGroup = a;
rightKerningGroup = e;
unicode = 00E6;
},
{
glyphname = b;
layers = (
{
layerId = "0AC95DCC-852B-4BE6-AF8C-4094AF10EB8A";
paths = (
{
closed = 1;
nodes = (
"898.868 -30 OFFCURVE",
"1073.967 170.85 OFFCURVE",
"1156 540 CURVE SMOOTH",
"1230.516 876.854 OFFCURVE",
"1089.684 1110 OFFCURVE",
"770 1110 CURVE SMOOTH",
"412.133 1110 OFFCURVE",
"252.529 902.38 OFFCURVE",
"172 540 CURVE SMOOTH",
"97.653 205.44 OFFCURVE",
"222.563 -30 OFFCURVE",
"531 -30 CURVE SMOOTH"
);
},
{
closed = 1;
nodes = (
"246 0 LINE",
"410 740 LINE",
"444 740 LINE",
"599 1440 LINE",
"325 1440 LINE",
"6 0 LINE"
);
},
{
closed = 1;
nodes = (
"375.322 212 OFFCURVE",
"323.295 349.767 OFFCURVE",
"366 540 CURVE SMOOTH",
"409.989 740.508 OFFCURVE",
"481.883 868 OFFCURVE",
"676 868 CURVE SMOOTH",
"847.731 868 OFFCURVE",
"910.539 731.427 OFFCURVE",
"868 540 CURVE SMOOTH",
"822.01 335.848 OFFCURVE",
"740.712 212 OFFCURVE",
"541 212 CURVE SMOOTH"
);
}
);
width = 1248;
},
{
layerId = "E58920B2-55F1-4AE6-872B-62598678C0E3";
paths = (
{
closed = 1;
nodes = (
"820.996 -30 OFFCURVE",
"979.359 179.114 OFFCURVE",
"1060 542 CURVE SMOOTH",
"1133.934 873.143 OFFCURVE",
"1027.788 1110 OFFCURVE",
"732 1110 CURVE SMOOTH",
"377.555 1110 OFFCURVE",
"222.036 901.615 OFFCURVE",
"142 542 CURVE SMOOTH",
"68.593 209.086 OFFCURVE",
"168.812 -30 OFFCURVE",
"463 -30 CURVE SMOOTH"
);
},
{
closed = 1;
nodes = (
"86 0 LINE",
"274 850 LINE",
"280 850 LINE",
"411 1440 LINE",
"327 1440 LINE",
"8 0 LINE"
);
},
{
closed = 1;
nodes = (
"230.315 54 OFFCURVE",
"143.64 257.8 OFFCURVE",
"206 542 CURVE SMOOTH",
"273.799 845.48 OFFCURVE",
"399.225 1026 OFFCURVE",
"697 1026 CURVE SMOOTH",
"946.47 1026 OFFCURVE",
"1032.277 823.779 OFFCURVE",
"970 542 CURVE SMOOTH",
"903.149 237.333 OFFCURVE",
"779.971 54 OFFCURVE",
"482 54 CURVE SMOOTH"
);
}
);
width = 1152;
},
{
layerId = "A27E663E-A13B-4DBD-B069-4CF983ECD621";
name = Layer5;
width = 1192;
},
{
layerId = "6751CA47-F6ED-42D7-BE33-6F49EA595F73";
name = Layer4;
width = 1150;
},
{
layerId = "3F31DAF6-41B6-44B9-8019-106AE6FC3ECE";
name = Layer3;
width = 1200;
}
);
leftKerningGroup = n;
rightKerningGroup = o;
unicode = 0062;
},
{
glyphname = c;
layers = (
{
layerId = "A27E663E-A13B-4DBD-B069-4CF983ECD621";
name = Layer5;
width = 1190;
},
{
layerId = "6751CA47-F6ED-42D7-BE33-6F49EA595F73";
name = Layer4;
width = 1132;
},
{
layerId = "3F31DAF6-41B6-44B9-8019-106AE6FC3ECE";
name = Layer3;
width = 1200;
},
{
layerId = "0AC95DCC-852B-4BE6-AF8C-4094AF10EB8A";
paths = (
{
closed = 1;
nodes = (
"762.424 -30 OFFCURVE",
"921.031 71.602 OFFCURVE",
"1047 328 CURVE",
"782 386 LINE",
"723.258 274.925 OFFCURVE",
"658.701 224 OFFCURVE",
"534 224 CURVE SMOOTH",
"371.096 224 OFFCURVE",
"314.913 356.085 OFFCURVE",
"356 540 CURVE SMOOTH",
"399.909 737.591 OFFCURVE",
"480.449 856 OFFCURVE",
"674 856 CURVE SMOOTH",
"787.137 856 OFFCURVE",
"844.807 793.083 OFFCURVE",
"852 678 CURVE",
"1140 750 LINE",
"1141.101 994.413 OFFCURVE",
"988.989 1110 OFFCURVE",
"734 1110 CURVE SMOOTH",
"350.12 1110 OFFCURVE",
"151.43 920.068 OFFCURVE",
"68 540 CURVE SMOOTH",
"-7.317 201.074 OFFCURVE",
"147.008 -30 OFFCURVE",
"477 -30 CURVE SMOOTH"
);
}
);
width = 1166;
},
{
layerId = "E58920B2-55F1-4AE6-872B-62598678C0E3";
paths = (
{
closed = 1;
nodes = (
"666.386 -30 OFFCURVE",
"789.803 47.594 OFFCURVE",
"928 234 CURVE",
"854 270 LINE",
"746.501 114.235 OFFCURVE",
"642.962 54 OFFCURVE",
"454 54 CURVE SMOOTH",
"196.339 54 OFFCURVE",
"98.88 255.061 OFFCURVE",
"158 540 CURVE",
"230.7 847.905 OFFCURVE",
"364.314 1026 OFFCURVE",
"669 1026 CURVE SMOOTH",
"837.345 1026 OFFCURVE",
"941.338 968.183 OFFCURVE",
"975 808 CURVE",
"1063 842 LINE",
"1027.233 1039.91 OFFCURVE",
"896.425 1110 OFFCURVE",
"688 1110 CURVE SMOOTH",
"323.174 1110 OFFCURVE",
"154.791 906.215 OFFCURVE",
"68 540 CURVE",
"-0.585 204.034 OFFCURVE",
"125.284 -30 OFFCURVE",
"435 -30 CURVE SMOOTH"
);
}
);
width = 1078;
}
);
leftKerningGroup = o;
rightKerningGroup = c;
unicode = 0063;
},
{
glyphname = d;
layers = (
{
layerId = "A27E663E-A13B-4DBD-B069-4CF983ECD621";
name = Layer5;
width = 1192;
},
{
layerId = "6751CA47-F6ED-42D7-BE33-6F49EA595F73";
name = Layer4;
width = 1150;
},
{
layerId = "3F31DAF6-41B6-44B9-8019-106AE6FC3ECE";
name = Layer3;
width = 1200;
},
{
layerId = "0AC95DCC-852B-4BE6-AF8C-4094AF10EB8A";
paths = (
{
closed = 1;
nodes = (
"802.384 -30 OFFCURVE",
"970.64 173.881 OFFCURVE",
"1052 540 CURVE SMOOTH",
"1126.125 873.565 OFFCURVE",
"1009.217 1110 OFFCURVE",
"706 1110 CURVE SMOOTH",
"333.118 1110 OFFCURVE",
"150.42 912.584 OFFCURVE",
"68 540 CURVE SMOOTH",
"-6.561 204.475 OFFCURVE",
"125.592 -30 OFFCURVE",
"439 -30 CURVE SMOOTH"
);
},
{
closed = 1;
nodes = (
"369.179 212 OFFCURVE",
"313.059 349.386 OFFCURVE",
"356 540 CURVE SMOOTH",
"401.896 746.534 OFFCURVE",
"488.997 868 OFFCURVE",
"692 868 CURVE SMOOTH",
"854.496 868 OFFCURVE",
"899.62 729.709 OFFCURVE",
"858 540 CURVE SMOOTH",
"812.481 337.234 OFFCURVE",
"734.668 212 OFFCURVE",
"537 212 CURVE SMOOTH"
);
},
{
closed = 1;
nodes = (
"978 0 LINE",
"1297 1440 LINE",
"1023 1440 LINE",
"868 740 LINE",
"902 740 LINE",
"738 0 LINE"
);
}
);
width = 1250;
},
{
layerId = "E58920B2-55F1-4AE6-872B-62598678C0E3";
paths = (
{
closed = 1;
nodes = (
"761.246 -30 OFFCURVE",
"907.126 184.289 OFFCURVE",
"986 542 CURVE SMOOTH",
"1059.864 873.881 OFFCURVE",
"947.535 1110 OFFCURVE",
"648 1110 CURVE SMOOTH",
"297.192 1110 OFFCURVE",
"147.727 899.086 OFFCURVE",
"68 542 CURVE SMOOTH",
"-6.316 207.577 OFFCURVE",
"108.371 -30 OFFCURVE",
"411 -30 CURVE SMOOTH"
);
},
{
closed = 1;
nodes = (
"179.762 54 OFFCURVE",
"95.701 258.078 OFFCURVE",
"158 542 CURVE SMOOTH",
"224.91 844.741 OFFCURVE",
"348.504 1026 OFFCURVE",
"645 1026 CURVE SMOOTH",
"896.123 1026 OFFCURVE",
"984.999 823.993 OFFCURVE",
"922 542 CURVE SMOOTH",
"854.937 236.368 OFFCURVE",
"729.38 54 OFFCURVE",
"430 54 CURVE SMOOTH"
);
},
{
closed = 1;
nodes = (
"880 0 LINE",
"1199 1440 LINE",
"1115 1440 LINE",
"984 850 LINE",
"990 850 LINE",
"802 0 LINE"
);
}
);
width = 1152;
}
);
leftKerningGroup = o;
rightKerningGroup = u;
unicode = 0064;
},
{
glyphname = eth;
layers = (
{
layerId = "0AC95DCC-852B-4BE6-AF8C-4094AF10EB8A";
paths = (
{
closed = 1;
nodes = (
"830.081 -30 OFFCURVE",
"1022.856 147.704 OFFCURVE",
"1103 510 CURVE SMOOTH",
"1173.227 826.836 OFFCURVE",
"1242.932 1025.866 OFFCURVE",
"1077 1304 CURVE SMOOTH",
"975.753 1476.119 OFFCURVE",
"850.652 1514.04 OFFCURVE",
"649 1520 CURVE",
"561 1314 LINE",
"809.633 1295.668 OFFCURVE",
"964.19 1195.364 OFFCURVE",
"948 966 CURVE",
"858.158 1015.7 OFFCURVE",
"802.722 1036 OFFCURVE",
"700 1036 CURVE SMOOTH",
"333.813 1036 OFFCURVE",
"138.838 862.412 OFFCURVE",
"59 502 CURVE SMOOTH",
"-11.046 183.238 OFFCURVE",
"145.114 -30 OFFCURVE",
"463 -30 CURVE SMOOTH"
);
},
{
closed = 1;
nodes = (
"357.913 210 OFFCURVE",
"293.458 331.478 OFFCURVE",
"332 504 CURVE SMOOTH",
"372.952 691.782 OFFCURVE",
"459.687 796 OFFCURVE",
"646 796 CURVE SMOOTH",
"804.078 796 OFFCURVE",
"868.188 675.382 OFFCURVE",
"830 504 CURVE SMOOTH",
"787.585 316.162 OFFCURVE",
"703.113 210 OFFCURVE",
"517 210 CURVE SMOOTH"
);
},
{
closed = 1;
nodes = (
"1156 1434 LINE",
"1037 1566 LINE",
"624 1190 LINE",
"743 1058 LINE"
);
}
);
width = 1202;
},
{
layerId = "E58920B2-55F1-4AE6-872B-62598678C0E3";
paths = (
{
closed = 1;
nodes = (
"790.125 -34.688 OFFCURVE",
"967.652 151.259 OFFCURVE",
"1046 506 CURVE SMOOTH",
"1101.646 755.295 OFFCURVE",
"1170.156 898.014 OFFCURVE",
"1098 1144 CURVE SMOOTH",
"1037.305 1368.457 OFFCURVE",
"898.761 1451.711 OFFCURVE",
"663 1466 CURVE",
"635 1384 LINE",
"933.894 1361.86 OFFCURVE",
"1060.066 1161.463 OFFCURVE",
"1026 850 CURVE",
"957.063 1005.109 OFFCURVE",
"845.386 1040.209 OFFCURVE",
"672 1038 CURVE SMOOTH",
"317.852 1042.614 OFFCURVE",
"141.82 857.119 OFFCURVE",
"60 504 CURVE SMOOTH",
"-7.047 184.542 OFFCURVE",
"131.186 -33.883 OFFCURVE",
"435 -30 CURVE SMOOTH"
);
},
{
closed = 1;
nodes = (
"201.721 54 OFFCURVE",
"90.623 238.218 OFFCURVE",
"150 504 CURVE SMOOTH",
"214.735 799.623 OFFCURVE",
"358.539 958.513 OFFCURVE",
"653 954 CURVE",
"904.072 957.938 OFFCURVE",
"1015.509 772.829 OFFCURVE",
"956 506 CURVE SMOOTH",
"890.919 211.537 OFFCURVE",
"748.209 54 OFFCURVE",
"454 54 CURVE SMOOTH"
);
},
{
closed = 1;
nodes = (
"1087 1512 LINE",
"1033 1564 LINE",
"676 1210 LINE",
"731 1158 LINE"
);
}
);
width = 1146;
},
{
layerId = "A27E663E-A13B-4DBD-B069-4CF983ECD621";
name = Layer5;
width = 1196;
},
{
layerId = "6751CA47-F6ED-42D7-BE33-6F49EA595F73";
name = Layer4;
width = 1170;
},
{
layerId = "3F31DAF6-41B6-44B9-8019-106AE6FC3ECE";
name = Layer3;
width = 1200;
}
);
leftKerningGroup = d;
rightKerningGroup = b;
unicode = 00F0;
},
{
glyphname = e;
layers = (
{
layerId = "7447FE7B-D73D-4904-ADEA-265673B512E2";
name = public.background;
paths = (
{
closed = 1;
nodes = (
"854 -30 OFFCURVE",
"1046 94 OFFCURVE",
"1122 282 CURVE",
"850 360 LINE",
"810 272 OFFCURVE",
"730 224 OFFCURVE",
"626 224 CURVE SMOOTH",
"462 224 OFFCURVE",
"368 338 OFFCURVE",
"368 540 CURVE SMOOTH",
"368 762 OFFCURVE",
"454 874 OFFCURVE",
"626 874 CURVE SMOOTH",
"798 874 OFFCURVE",
"862 790 OFFCURVE",
"862 564 CURVE SMOOTH",
"862 464 LINE",
"1131 464 LINE",
"1164 856 OFFCURVE",
"966 1110 OFFCURVE",
"626 1110 CURVE SMOOTH",
"298 1110 OFFCURVE",
"80 876 OFFCURVE",
"80 526 CURVE SMOOTH",
"80 198 OFFCURVE",
"310 -30 OFFCURVE",
"642 -30 CURVE SMOOTH"
);
},
{
closed = 1;
nodes = (
"1000 464 LINE",
"1000 666 LINE",
"284 666 LINE",
"284 464 LINE"
);
}
);
width = 1216;
},
{
layerId = "63ADE33C-C0F2-45DC-8BA2-2E70B1572FB0";
name = Layer6;
width = 1194;
},
{
layerId = "A27E663E-A13B-4DBD-B069-4CF983ECD621";
name = Layer5;
width = 1168;
},
{
layerId = "6751CA47-F6ED-42D7-BE33-6F49EA595F73";
name = Layer4;
width = 1200;
},
{
layerId = "0AC95DCC-852B-4BE6-AF8C-4094AF10EB8A";
paths = (
{
closed = 1;
nodes = (
"767.003 -30 OFFCURVE",
"910.955 58.786 OFFCURVE",
"1053 282 CURVE",
"798 360 LINE",
"730.41 260.868 OFFCURVE",
"663.893 224 OFFCURVE",
"544 224 CURVE SMOOTH",
"377.362 224 OFFCURVE",
"314.869 355.369 OFFCURVE",
"356 540 CURVE SMOOTH",
"402.043 751.03 OFFCURVE",
"492.453 874 OFFCURVE",
"700 874 CURVE SMOOTH",
"853.098 874 OFFCURVE",
"894.901 743.147 OFFCURVE",
"855 564 CURVE SMOOTH",
"833 464 LINE",
"1102 464 LINE",
"1215.671 835.324 OFFCURVE",
"1081.544 1110 OFFCURVE",
"740 1110 CURVE SMOOTH",
"349.65 1110 OFFCURVE",
"150.354 913.374 OFFCURVE",
"65 526 CURVE SMOOTH",
"-9.388 191.256 OFFCURVE",
"162.963 -30 OFFCURVE",
"503 -30 CURVE SMOOTH"
);
},
{
closed = 1;
nodes = (
"971 464 LINE",
"1016 666 LINE",
"300 666 LINE",
"255 464 LINE"
);
}
);
width = 1216;
},
{
layerId = "E58920B2-55F1-4AE6-872B-62598678C0E3";
paths = (
{
closed = 1;
nodes = (
"685.421 -30 OFFCURVE",
"820.909 52.475 OFFCURVE",
"965 258 CURVE",
"904 298 LINE",
"778.86 126.069 OFFCURVE",
"665.999 54 OFFCURVE",
"454 54 CURVE SMOOTH",
"194.918 54 OFFCURVE",
"94.283 255.58 OFFCURVE",
"158 540 CURVE SMOOTH",
"226.307 849.393 OFFCURVE",
"363.369 1026 OFFCURVE",
"669 1026 CURVE SMOOTH",
"924.335 1026 OFFCURVE",
"1019.804 827.153 OFFCURVE",
"965 544 CURVE",
"958 516 LINE",
"1048 516 LINE",
"1125.637 863.519 OFFCURVE",
"1003.886 1110 OFFCURVE",
"688 1110 CURVE SMOOTH",
"321.854 1110 OFFCURVE",
"149.105 908.09 OFFCURVE",
"68 540 CURVE SMOOTH",
"-6.283 204.773 OFFCURVE",
"123.337 -30 OFFCURVE",
"435 -30 CURVE SMOOTH"
);
},
{
closed = 1;
nodes = (
"996 516 LINE",
"1015 600 LINE",
"135 600 LINE",
"116 516 LINE"
);
}
);
width = 1146;
}
);
leftKerningGroup = o;
rightKerningGroup = e;
unicode = 0065;
},
{
glyphname = eogonek;
layers = (
{
layerId = "A27E663E-A13B-4DBD-B069-4CF983ECD621";
name = Layer5;
width = 1194;
},
{
layerId = "3F31DAF6-41B6-44B9-8019-106AE6FC3ECE";
name = Layer3;
width = 1200;
},
{
layerId = "6751CA47-F6ED-42D7-BE33-6F49EA595F73";
name = Layer4;
width = 1168;
},
{
components = (
{
name = e;
alignment = -1;
}
);
layerId = "0AC95DCC-852B-4BE6-AF8C-4094AF10EB8A";
paths = (
{
closed = 1;
nodes = (
"792 -440 OFFCURVE",
"831 -410 OFFCURVE",
"859 -374 CURVE",
"793 -250 LINE",
"755 -276 OFFCURVE",
"700 -290 OFFCURVE",
"682 -262 CURVE",
"668 -242 OFFCURVE",
"682 -206 OFFCURVE",
"689 -194 CURVE",
"709 -156 OFFCURVE",
"746 -100 OFFCURVE",
"796 -36 CURVE SMOOTH",
"846 28 OFFCURVE",
"909 106 OFFCURVE",
"993 204 CURVE",
"829 232 LINE",
"767 178 OFFCURVE",
"692 92 OFFCURVE",
"655 48 CURVE SMOOTH",
"617 4 OFFCURVE",
"556 -64 OFFCURVE",
"517 -124 CURVE SMOOTH",
"456 -216 OFFCURVE",
"450 -324 OFFCURVE",
"488 -390 CURVE SMOOTH",
"532 -470 OFFCURVE",
"641 -502 OFFCURVE",
"744 -460 CURVE SMOOTH"
);
}
);
width = 1216;
},
{
components = (
{
name = e;
alignment = -1;
}
);
layerId = "E58920B2-55F1-4AE6-872B-62598678C0E3";
paths = (
{
closed = 1;
nodes = (
"657 -448 OFFCURVE",
"692 -426 OFFCURVE",
"721 -402 CURVE",
"682 -344 LINE",
"624 -388 OFFCURVE",
"546 -424 OFFCURVE",
"504 -370 CURVE SMOOTH",
"482 -342 OFFCURVE",
"492 -306 OFFCURVE",
"511 -268 CURVE SMOOTH",
"536 -216 OFFCURVE",
"582 -162 OFFCURVE",
"627 -112 CURVE SMOOTH",
"669 -66 OFFCURVE",
"870 118 OFFCURVE",
"954 242 CURVE",
"868 236 LINE",
"781 104 OFFCURVE",
"612 -26 OFFCURVE",
"560 -80 CURVE SMOOTH",
"509 -132 OFFCURVE",
"464 -188 OFFCURVE",
"435 -246 CURVE SMOOTH",
"400 -318 OFFCURVE",
"395 -382 OFFCURVE",
"433 -430 CURVE SMOOTH",
"468 -476 OFFCURVE",
"538 -494 OFFCURVE",
"617 -464 CURVE SMOOTH"
);
}
);
width = 1146;
}
);
leftKerningGroup = e;
rightKerningGroup = e;
unicode = 0119;
},
{
glyphname = f;
layers = (
{
layerId = "A27E663E-A13B-4DBD-B069-4CF983ECD621";
name = Layer5;
width = 1104;
},
{
layerId = "6751CA47-F6ED-42D7-BE33-6F49EA595F73";
name = Layer4;
width = 596;
},
{
layerId = "3F31DAF6-41B6-44B9-8019-106AE6FC3ECE";
name = Layer3;
width = 1200;
},
{
layerId = "0AC95DCC-852B-4BE6-AF8C-4094AF10EB8A";
paths = (
{
closed = 1;
nodes = (
"370 0 LINE",
"623 1140 LINE SMOOTH",
"640.201 1219.39 OFFCURVE",
"690.091 1250 OFFCURVE",
"773 1250 CURVE SMOOTH",
"897 1250 LINE",
"946 1470 LINE",
"812 1470 LINE SMOOTH",
"668.74 1470 OFFCURVE",
"580.536 1465.456 OFFCURVE",
"474 1370 CURVE SMOOTH",
"376.168 1283.262 OFFCURVE",
"365.006 1203.585 OFFCURVE",
"337 1076 CURVE SMOOTH",
"98 0 LINE"
);
},
{
closed = 1;
nodes = (
"813 870 LINE",
"859 1080 LINE",
"167 1080 LINE",
"121 870 LINE"
);
}
);
width = 772;
},
{
layerId = "E58920B2-55F1-4AE6-872B-62598678C0E3";
paths = (
{
closed = 1;
nodes = (
"208 0 LINE",
"473 1194 LINE SMOOTH",
"502.134 1326.926 OFFCURVE",
"570.954 1394 OFFCURVE",
"705 1394 CURVE SMOOTH",
"835 1394 LINE",
"852 1470 LINE",
"712 1470 LINE SMOOTH",
"621.482 1470 OFFCURVE",
"568.01 1460.483 OFFCURVE",
"499 1402 CURVE SMOOTH",
"429.905 1341.821 OFFCURVE",
"410.213 1291.362 OFFCURVE",
"390 1202 CURVE SMOOTH",
"124 0 LINE"
);
},
{
closed = 1;
nodes = (
"747 996 LINE",
"765 1080 LINE",
"167 1080 LINE",
"149 996 LINE"
);
}
);
width = 678;
}
);
leftKerningGroup = f;
rightKerningGroup = f;
unicode = 0066;
},
{
glyphname = g;
layers = (
{
layerId = "A27E663E-A13B-4DBD-B069-4CF983ECD621";
name = Layer5;
width = 1192;
},
{
layerId = "6751CA47-F6ED-42D7-BE33-6F49EA595F73";
name = Layer4;
width = 1150;
},
{
layerId = "3F31DAF6-41B6-44B9-8019-106AE6FC3ECE";
name = Layer3;
width = 1200;
},
{
layerId = "0AC95DCC-852B-4BE6-AF8C-4094AF10EB8A";
paths = (
{
closed = 1;
nodes = (
"625.155 -510 OFFCURVE",
"796.044 -457.097 OFFCURVE",
"911 -220 CURVE SMOOTH",
"937.145 -165.334 OFFCURVE",
"946.857 -133.141 OFFCURVE",
"960 -74 CURVE SMOOTH",
"1215 1080 LINE",
"977 1080 LINE",
"792 244 LINE",
"758 244 LINE",
"688 -70 LINE",
"662.399 -209.642 OFFCURVE",
"564.995 -252 OFFCURVE",
"416 -252 CURVE SMOOTH",
"334.021 -252 OFFCURVE",
"281.786 -230.117 OFFCURVE",
"258 -154 CURVE",
"-21 -276 LINE",
"44.065 -454.611 OFFCURVE",
"163.506 -510 OFFCURVE",
"357 -510 CURVE SMOOTH"
);
},
{
closed = 1;
nodes = (
"802.384 -30 OFFCURVE",
"970.64 173.881 OFFCURVE",
"1052 540 CURVE SMOOTH",
"1126.125 873.565 OFFCURVE",
"1009.217 1110 OFFCURVE",
"706 1110 CURVE SMOOTH",
"333.118 1110 OFFCURVE",
"150.42 912.584 OFFCURVE",
"68 540 CURVE SMOOTH",
"-6.561 204.475 OFFCURVE",
"125.592 -30 OFFCURVE",
"439 -30 CURVE SMOOTH"
);
},
{
closed = 1;
nodes = (
"369.179 212 OFFCURVE",
"313.059 349.386 OFFCURVE",
"356 540 CURVE SMOOTH",
"401.896 746.534 OFFCURVE",
"488.997 868 OFFCURVE",
"692 868 CURVE SMOOTH",
"854.496 868 OFFCURVE",
"899.62 729.709 OFFCURVE",
"858 540 CURVE SMOOTH",
"812.481 337.234 OFFCURVE",
"734.668 212 OFFCURVE",
"537 212 CURVE SMOOTH"
);
}
);
width = 1248;
},
{
layerId = "E58920B2-55F1-4AE6-872B-62598678C0E3";
paths = (
{
closed = 1;
nodes = (
"591.625 -510 OFFCURVE",
"749.451 -395.42 OFFCURVE",
"842 -126 CURVE SMOOTH",
"867.012 -54.537 OFFCURVE",
"877.29 -14.06 OFFCURVE",
"893 60 CURVE SMOOTH",
"1119 1080 LINE",
"1041 1080 LINE",
"876 336 LINE",
"868 336 LINE",
"807 60 LINE SMOOTH",
"740.169 -241.212 OFFCURVE",
"620.347 -424 OFFCURVE",
"326 -424 CURVE SMOOTH",
"163.127 -424 OFFCURVE",
"61.415 -373.368 OFFCURVE",
"21 -220 CURVE",
"-64 -270 LINE",
"-6.32 -450.995 OFFCURVE",
"113.205 -510 OFFCURVE",
"307 -510 CURVE SMOOTH"
);
},
{
closed = 1;
nodes = (
"761.246 -30 OFFCURVE",
"907.126 184.289 OFFCURVE",
"986 542 CURVE SMOOTH",
"1059.864 873.881 OFFCURVE",
"947.535 1110 OFFCURVE",
"648 1110 CURVE SMOOTH",
"297.192 1110 OFFCURVE",
"147.727 899.086 OFFCURVE",
"68 542 CURVE SMOOTH",
"-6.316 207.577 OFFCURVE",
"108.371 -30 OFFCURVE",
"411 -30 CURVE SMOOTH"
);
},
{
closed = 1;
nodes = (
"179.762 54 OFFCURVE",
"95.701 258.078 OFFCURVE",
"158 542 CURVE SMOOTH",
"224.91 844.741 OFFCURVE",
"348.504 1026 OFFCURVE",
"645 1026 CURVE SMOOTH",
"896.123 1026 OFFCURVE",
"984.999 823.993 OFFCURVE",
"922 542 CURVE SMOOTH",
"854.937 236.368 OFFCURVE",
"729.38 54 OFFCURVE",
"430 54 CURVE SMOOTH"
);
}
);
width = 1152;
}
);
leftKerningGroup = g;
rightKerningGroup = g;
unicode = 0067;
},
{
glyphname = h;
layers = (
{
layerId = "7447FE7B-D73D-4904-ADEA-265673B512E2";
name = public.background;
paths = (
{
closed = 1;
nodes = (
"1026 0 LINE",
"1026 526 LINE",
"1030 730 OFFCURVE",
"998 922 OFFCURVE",
"834 1034 CURVE SMOOTH",
"750 1090 OFFCURVE",
"650 1110 OFFCURVE",
"556 1102 CURVE",
"460 1098 OFFCURVE",
"362 1064 OFFCURVE",
"290 996 CURVE SMOOTH",
"218 928 OFFCURVE",
"178 834 OFFCURVE",
"160 744 CURVE SMOOTH",
"146 676 OFFCURVE",
"148 670 OFFCURVE",
"146 474 CURVE",
"224 474 LINE",
"224 562 OFFCURVE",
"220 648 OFFCURVE",
"238 728 CURVE",
"252 808 OFFCURVE",
"288 884 OFFCURVE",
"346 936 CURVE",
"402 990 OFFCURVE",
"480 1018 OFFCURVE",
"560 1022 CURVE SMOOTH",
"642 1026 OFFCURVE",
"722 1008 OFFCURVE",
"788 966 CURVE",
"924 874 OFFCURVE",
"942 720 OFFCURVE",
"942 526 CURVE SMOOTH",
"942 0 LINE"
);
},
{
closed = 1;
nodes = (
"224 0 LINE",
"224 590 LINE",
"218 590 LINE",
"218 1440 LINE",
"140 1440 LINE",
"140 0 LINE"
);
}
);
width = 1272;
},
{
layerId = "BD936841-78ED-4F7E-A3FC-D5A6245A6992";
name = Layer7;
width = 1188;
},
{
layerId = "63ADE33C-C0F2-45DC-8BA2-2E70B1572FB0";
name = Layer6;
width = 1128;
},
{
layerId = "A27E663E-A13B-4DBD-B069-4CF983ECD621";
name = Layer5;
width = 1200;
},
{
layerId = "0AC95DCC-852B-4BE6-AF8C-4094AF10EB8A";
paths = (
{
closed = 1;
nodes = (
"1020 0 LINE",
"1154 606 LINE SMOOTH",
"1219.833 902.25 OFFCURVE",
"1114.904 1112 OFFCURVE",
"845 1112 CURVE SMOOTH",
"511.929 1112 OFFCURVE",
"337.184 950.685 OFFCURVE",
"264 622 CURVE",
"403 548 LINE",
"445.507 737.863 OFFCURVE",
"517.194 856 OFFCURVE",
"702 856 CURVE SMOOTH",
"867.708 856 OFFCURVE",
"901.632 708.817 OFFCURVE",
"857 510 CURVE SMOOTH",
"744 0 LINE"
);
},
{
closed = 1;
nodes = (
"282 0 LINE",
"437 700 LINE",
"403 700 LINE",
"567 1440 LINE",
"325 1440 LINE",
"6 0 LINE"
);
}
);
width = 1272;
},
{
layerId = "E58920B2-55F1-4AE6-872B-62598678C0E3";
paths = (
{
closed = 1;
nodes = (
"894 0 LINE",
"1024 588 LINE SMOOTH",
"1091.167 890.723 OFFCURVE",
"979.373 1104 OFFCURVE",
"701 1104 CURVE SMOOTH",
"371.228 1104 OFFCURVE",
"217.582 920.016 OFFCURVE",
"144 588 CURVE",
"223 590 LINE",
"283.789 866.532 OFFCURVE",
"409.15 1022 OFFCURVE",
"683 1022 CURVE SMOOTH",
"914.994 1022 OFFCURVE",
"994.845 834.003 OFFCURVE",
"937 572 CURVE SMOOTH",
"810 0 LINE"
);
},
{
closed = 1;
nodes = (
"92 0 LINE",
"223 590 LINE",
"217 590 LINE",
"405 1440 LINE",
"327 1440 LINE",
"8 0 LINE"
);
}
);
width = 1146;
}
);
leftKerningGroup = h;
rightKerningGroup = h;
unicode = 0068;
},
{
glyphname = i;
layers = (
{
layerId = "A27E663E-A13B-4DBD-B069-4CF983ECD621";
name = Layer5;
width = 1060;
},
{
layerId = "3F31DAF6-41B6-44B9-8019-106AE6FC3ECE";
name = Layer3;
width = 1200;
},
{
layerId = "6751CA47-F6ED-42D7-BE33-6F49EA595F73";
name = Layer4;
width = 326;
},
{
components = (
{
name = idotless;
alignment = -1;
}
);
layerId = "0AC95DCC-852B-4BE6-AF8C-4094AF10EB8A";
paths = (
{
closed = 1;
nodes = (
"573 1230 LINE",
"626 1470 LINE",
"354 1470 LINE",
"301 1230 LINE"
);
}
);
width = 592;
},
{
components = (
{
name = idotless;
alignment = -1;
}
);
layerId = "E58920B2-55F1-4AE6-872B-62598678C0E3";
paths = (
{
closed = 1;
nodes = (
"403 1312 LINE",
"431 1440 LINE",
"347 1440 LINE",
"319 1312 LINE"
);
}
);
width = 404;
}
);
leftKerningGroup = i;
rightKerningGroup = i;
unicode = 0069;
},
{
glyphname = idotless;
layers = (
{
layerId = "A27E663E-A13B-4DBD-B069-4CF983ECD621";
name = Layer5;
width = 1060;
},
{
layerId = "3F31DAF6-41B6-44B9-8019-106AE6FC3ECE";
name = Layer3;
width = 1200;
},
{
layerId = "6751CA47-F6ED-42D7-BE33-6F49EA595F73";
name = Layer4;
width = 326;
},
{
layerId = "0AC95DCC-852B-4BE6-AF8C-4094AF10EB8A";
paths = (
{
closed = 1;
nodes = (
"300 0 LINE",
"539 1080 LINE",
"267 1080 LINE",
"28 0 LINE"
);
}
);
width = 592;
},
{
layerId = "E58920B2-55F1-4AE6-872B-62598678C0E3";
paths = (
{
closed = 1;
nodes = (
"112 0 LINE",
"351 1080 LINE",
"267 1080 LINE",
"28 0 LINE"
);
}
);
width = 404;
}
);
leftKerningGroup = i;
rightKerningGroup = i;
unicode = 0131;
},
{
glyphname = j;
layers = (
{
layerId = "A27E663E-A13B-4DBD-B069-4CF983ECD621";
name = Layer5;
width = 1068;
},
{
layerId = "6751CA47-F6ED-42D7-BE33-6F49EA595F73";
name = Layer4;
width = 378;
},
{
layerId = "3F31DAF6-41B6-44B9-8019-106AE6FC3ECE";
name = Layer3;
width = 1200;
},
{
layerId = "0AC95DCC-852B-4BE6-AF8C-4094AF10EB8A";
paths = (
{
closed = 1;
nodes = (
"-74 -480 LINE SMOOTH",
"108 -480 OFFCURVE",
"248 -368 OFFCURVE",
"287 -196 CURVE SMOOTH",
"569 1080 LINE",
"297 1080 LINE",
"44 -64 LINE SMOOTH",
"21 -168 OFFCURVE",
"-30 -226 OFFCURVE",
"-154 -226 CURVE SMOOTH",
"-202 -226 LINE",
"-258 -480 LINE"
);
},
{
closed = 1;
nodes = (
"603 1230 LINE",
"656 1470 LINE",
"384 1470 LINE",
"331 1230 LINE"
);
}
);
width = 602;
},
{
layerId = "E58920B2-55F1-4AE6-872B-62598678C0E3";
paths = (
{
closed = 1;
nodes = (
"-192 -480 LINE SMOOTH",
"-18 -480 OFFCURVE",
"68 -404 OFFCURVE",
"109 -220 CURVE SMOOTH",
"397 1080 LINE",
"313 1080 LINE",
"23 -230 LINE SMOOTH",
"-4 -354 OFFCURVE",
"-87 -394 OFFCURVE",
"-171 -394 CURVE SMOOTH",
"-239 -394 LINE",
"-258 -480 LINE"
);
},
{
closed = 1;
nodes = (
"449 1312 LINE",
"477 1440 LINE",
"393 1440 LINE",
"365 1312 LINE"
);
}
);
width = 450;
}
);
leftKerningGroup = j;
rightKerningGroup = j;
unicode = 006A;
},
{
glyphname = jcircumflex;
layers = (
{
components = (
{
name = circumflexcomb;
transform = "{1, 0, 0, 1, -355, -360}";
alignment = -1;
}
);
layerId = "0AC95DCC-852B-4BE6-AF8C-4094AF10EB8A";
paths = (
{
closed = 1;
nodes = (
"-74 -480 LINE SMOOTH",
"108 -480 OFFCURVE",
"248 -368 OFFCURVE",
"287 -196 CURVE SMOOTH",
"569 1080 LINE",
"297 1080 LINE",
"44 -64 LINE SMOOTH",
"21 -168 OFFCURVE",
"-30 -226 OFFCURVE",
"-154 -226 CURVE SMOOTH",
"-202 -226 LINE",
"-258 -480 LINE"
);
}
);
width = 602;
},
{
components = (
{
name = circumflexcomb;
transform = "{1, 0, 0, 1, -318, -360}";
alignment = -1;
}
);
layerId = "E58920B2-55F1-4AE6-872B-62598678C0E3";
paths = (
{
closed = 1;
nodes = (
"-192 -480 LINE SMOOTH",
"-18 -480 OFFCURVE",
"68 -404 OFFCURVE",
"109 -220 CURVE SMOOTH",
"397 1080 LINE",
"313 1080 LINE",
"23 -230 LINE SMOOTH",
"-4 -354 OFFCURVE",
"-87 -394 OFFCURVE",
"-171 -394 CURVE SMOOTH",
"-239 -394 LINE",
"-258 -480 LINE"
);
}
);
width = 450;
}
);
leftKerningGroup = j;
rightKerningGroup = j;
unicode = 0135;
},
{
glyphname = k;
layers = (
{
layerId = "A27E663E-A13B-4DBD-B069-4CF983ECD621";
name = Layer5;
width = 1168;
},
{
layerId = "6751CA47-F6ED-42D7-BE33-6F49EA595F73";
name = Layer4;
width = 1000;
},
{
layerId = "3F31DAF6-41B6-44B9-8019-106AE6FC3ECE";
name = Layer3;
width = 1200;
},
{
layerId = "0AC95DCC-852B-4BE6-AF8C-4094AF10EB8A";
paths = (
{
closed = 1;
nodes = (
"284 0 LINE",
"399 520 LINE",
"658 0 LINE",
"1012 0 LINE",
"716 540 LINE",
"1225 1080 LINE",
"889 1080 LINE",
"408 560 LINE",
"603 1440 LINE",
"327 1440 LINE",
"6 0 LINE"
);
}
);
width = 1104;
},
{
layerId = "E58920B2-55F1-4AE6-872B-62598678C0E3";
paths = (
{
closed = 1;
nodes = (
"92 0 LINE",
"207 520 LINE",
"700 0 LINE",
"844 0 LINE",
"314 540 LINE",
"997 1080 LINE",
"871 1080 LINE",
"216 560 LINE",
"411 1440 LINE",
"327 1440 LINE",
"8 0 LINE"
);
}
);
width = 936;
}
);
leftKerningGroup = k;
rightKerningGroup = k;
unicode = 006B;
},
{
glyphname = l;
layers = (
{
layerId = "A27E663E-A13B-4DBD-B069-4CF983ECD621";
name = Layer5;
width = 1060;
},
{
layerId = "6751CA47-F6ED-42D7-BE33-6F49EA595F73";
name = Layer4;
width = 326;
},
{
layerId = "3F31DAF6-41B6-44B9-8019-106AE6FC3ECE";
name = Layer3;
width = 1200;
},
{
layerId = "0AC95DCC-852B-4BE6-AF8C-4094AF10EB8A";
paths = (
{
closed = 1;
nodes = (
"300 0 LINE",
"626 1470 LINE",
"354 1470 LINE",
"28 0 LINE"
);
}
);
width = 592;
},
{
layerId = "E58920B2-55F1-4AE6-872B-62598678C0E3";
paths = (
{
closed = 1;
nodes = (
"112 0 LINE",
"438 1470 LINE",
"354 1470 LINE",
"28 0 LINE"
);
}
);
width = 404;
}
);
leftKerningGroup = i;
rightKerningGroup = i;
unicode = 006C;
},
{
glyphname = m;
layers = (
{
layerId = "7447FE7B-D73D-4904-ADEA-265673B512E2";
name = public.background;
paths = (
{
closed = 1;
nodes = (
"140 0 LINE",
"224 0 LINE",
"224 860 LINE",
"218 860 LINE",
"218 1080 LINE",
"140 1080 LINE"
);
},
{
closed = 1;
nodes = (
"864 0 LINE",
"866 668 LINE SMOOTH",
"866 834 OFFCURVE",
"862 944 OFFCURVE",
"732 1042 CURVE SMOOTH",
"668 1090 OFFCURVE",
"588 1110 OFFCURVE",
"512 1110 CURVE SMOOTH",
"402 1110 OFFCURVE",
"296 1064 OFFCURVE",
"226 980 CURVE SMOOTH",
"168 910 OFFCURVE",
"146 812 OFFCURVE",
"150 718 CURVE",
"224 718 LINE",
"224 794 OFFCURVE",
"232 860 OFFCURVE",
"284 928 CURVE SMOOTH",
"336 998 OFFCURVE",
"420 1034 OFFCURVE",
"510 1034 CURVE SMOOTH",
"570 1034 OFFCURVE",
"632 1014 OFFCURVE",
"678 976 CURVE SMOOTH",
"780 894 OFFCURVE",
"782 808 OFFCURVE",
"782 668 CURVE SMOOTH",
"780 0 LINE"
);
},
{
closed = 1;
nodes = (
"1506 0 LINE",
"1508 668 LINE SMOOTH",
"1508 834 OFFCURVE",
"1504 944 OFFCURVE",
"1374 1042 CURVE SMOOTH",
"1310 1090 OFFCURVE",
"1230 1110 OFFCURVE",
"1154 1110 CURVE SMOOTH",
"1044 1110 OFFCURVE",
"938 1064 OFFCURVE",
"868 980 CURVE SMOOTH",
"810 910 OFFCURVE",
"788 812 OFFCURVE",
"792 718 CURVE",
"866 718 LINE",
"866 794 OFFCURVE",
"874 860 OFFCURVE",
"926 928 CURVE SMOOTH",
"978 998 OFFCURVE",
"1062 1034 OFFCURVE",
"1152 1034 CURVE SMOOTH",
"1212 1034 OFFCURVE",
"1274 1014 OFFCURVE",
"1320 976 CURVE SMOOTH",
"1422 894 OFFCURVE",
"1424 808 OFFCURVE",
"1424 668 CURVE SMOOTH",
"1422 0 LINE"
);
}
);
width = 1832;
},
{
layerId = "BD936841-78ED-4F7E-A3FC-D5A6245A6992";
name = Layer7;
width = 1282;
},
{
layerId = "63ADE33C-C0F2-45DC-8BA2-2E70B1572FB0";
name = Layer6;
width = 1716;
},
{
layerId = "A27E663E-A13B-4DBD-B069-4CF983ECD621";
name = Layer5;
width = 1200;
},
{
layerId = "0AC95DCC-852B-4BE6-AF8C-4094AF10EB8A";
paths = (
{
closed = 1;
nodes = (
"1580 0 LINE",
"1737 710 LINE SMOOTH",
"1789.898 945.546 OFFCURVE",
"1681.323 1106 OFFCURVE",
"1451 1106 CURVE SMOOTH",
"1184.39 1106 OFFCURVE",
"1035.332 989.749 OFFCURVE",
"978 730 CURVE",
"1075 654 LINE",
"1104.916 791.392 OFFCURVE",
"1172.53 864 OFFCURVE",
"1310 864 CURVE SMOOTH",
"1431.074 864 OFFCURVE",
"1478.823 770.34 OFFCURVE",
"1449 638 CURVE SMOOTH",
"1308 0 LINE"
);
},
{
closed = 1;
nodes = (
"280 0 LINE",
"440 722 LINE",
"406 722 LINE",
"485 1080 LINE",
"245 1080 LINE",
"6 0 LINE"
);
},
{
closed = 1;
nodes = (
"930 0 LINE",
"1087 710 LINE SMOOTH",
"1139.237 945.067 OFFCURVE",
"1034.394 1106 OFFCURVE",
"807 1106 CURVE SMOOTH",
"539.2 1106 OFFCURVE",
"386.58 993.722 OFFCURVE",
"329 734 CURVE",
"425 654 LINE",
"454.916 791.392 OFFCURVE",
"522.53 864 OFFCURVE",
"660 864 CURVE SMOOTH",
"781.074 864 OFFCURVE",
"828.823 770.34 OFFCURVE",
"799 638 CURVE SMOOTH",
"658 0 LINE"
);
}
);
width = 1832;
},
{
layerId = "E58920B2-55F1-4AE6-872B-62598678C0E3";
paths = (
{
closed = 1;
nodes = (
"1374 0 LINE",
"1542 750 LINE SMOOTH",
"1590.083 965.411 OFFCURVE",
"1484.791 1110 OFFCURVE",
"1270 1110 CURVE SMOOTH",
"1006.056 1110 OFFCURVE",
"866.372 980.197 OFFCURVE",
"819 718 CURVE",
"893 718 LINE",
"938.636 924.656 OFFCURVE",
"1040.146 1034 OFFCURVE",
"1247 1034 CURVE SMOOTH",
"1415.757 1034 OFFCURVE",
"1495.361 916.623 OFFCURVE",
"1457 744 CURVE SMOOTH",
"1290 0 LINE"
);
},
{
closed = 1;
nodes = (
"92 0 LINE",
"283 860 LINE",
"277 860 LINE",
"325 1080 LINE",
"247 1080 LINE",
"8 0 LINE"
);
},
{
closed = 1;
nodes = (
"732 0 LINE",
"899 744 LINE SMOOTH",
"947.136 962.329 OFFCURVE",
"844.633 1110 OFFCURVE",
"630 1110 CURVE SMOOTH",
"377.552 1110 OFFCURVE",
"238.574 996.769 OFFCURVE",
"184 750 CURVE",
"251 718 LINE",
"297.125 923.952 OFFCURVE",
"397.058 1034 OFFCURVE",
"603 1034 CURVE SMOOTH",
"775.686 1034 OFFCURVE",
"853.708 910.141 OFFCURVE",
"814 730 CURVE SMOOTH",
"650 0 LINE"
);
}
);
width = 1628;
}
);
leftKerningGroup = m;
rightKerningGroup = m;
unicode = 006D;
},
{
glyphname = n;
layers = (
{
layerId = "A27E663E-A13B-4DBD-B069-4CF983ECD621";
name = Layer5;
width = 1188;
},
{
layerId = "6751CA47-F6ED-42D7-BE33-6F49EA595F73";
name = Layer4;
width = 1128;
},
{
layerId = "3F31DAF6-41B6-44B9-8019-106AE6FC3ECE";
name = Layer3;
width = 1200;
},
{
layerId = "0AC95DCC-852B-4BE6-AF8C-4094AF10EB8A";
paths = (
{
closed = 1;
nodes = (
"1020 0 LINE",
"1154 606 LINE SMOOTH",
"1219.833 902.25 OFFCURVE",
"1114.904 1112 OFFCURVE",
"845 1112 CURVE SMOOTH",
"511.929 1112 OFFCURVE",
"337.184 950.685 OFFCURVE",
"264 622 CURVE",
"403 548 LINE",
"445.507 737.863 OFFCURVE",
"517.194 856 OFFCURVE",
"702 856 CURVE SMOOTH",
"867.708 856 OFFCURVE",
"901.632 708.817 OFFCURVE",
"857 510 CURVE SMOOTH",
"744 0 LINE"
);
},
{
closed = 1;
nodes = (
"282 0 LINE",
"442 722 LINE",
"408 722 LINE",
"487 1080 LINE",
"245 1080 LINE",
"6 0 LINE"
);
}
);
width = 1272;
},
{
layerId = "E58920B2-55F1-4AE6-872B-62598678C0E3";
paths = (
{
closed = 1;
nodes = (
"894 0 LINE",
"1024 588 LINE SMOOTH",
"1091.167 890.723 OFFCURVE",
"979.373 1104 OFFCURVE",
"701 1104 CURVE SMOOTH",
"371.228 1104 OFFCURVE",
"217.582 920.016 OFFCURVE",
"144 588 CURVE",
"223 590 LINE",
"283.789 866.532 OFFCURVE",
"409.15 1022 OFFCURVE",
"683 1022 CURVE SMOOTH",
"914.994 1022 OFFCURVE",
"994.845 834.003 OFFCURVE",
"937 572 CURVE SMOOTH",
"810 0 LINE"
);
},
{
closed = 1;
nodes = (
"92 0 LINE",
"283 860 LINE",
"277 860 LINE",
"325 1080 LINE",
"247 1080 LINE",
"8 0 LINE"
);
}
);
width = 1146;
}
);
leftKerningGroup = m;
rightKerningGroup = m;
unicode = 006E;
},
{
glyphname = eng;
layers = (
{
layerId = "A27E663E-A13B-4DBD-B069-4CF983ECD621";
name = Layer5;
width = 1188;
},
{
layerId = "3F31DAF6-41B6-44B9-8019-106AE6FC3ECE";
name = Layer3;
width = 1200;
},
{
layerId = "6751CA47-F6ED-42D7-BE33-6F49EA595F73";
name = Layer4;
width = 1128;
},
{
components = (
{
name = n;
alignment = -1;
}
);
layerId = "0AC95DCC-852B-4BE6-AF8C-4094AF10EB8A";
paths = (
{
closed = 1;
nodes = (
"844 -442 OFFCURVE",
"946 -334 OFFCURVE",
"981 -176 CURVE SMOOTH",
"1021 4 LINE",
"745 4 LINE",
"715 -132 LINE SMOOTH",
"679 -294 OFFCURVE",
"562 -272 OFFCURVE",
"501 -268 CURVE",
"458 -458 LINE",
"526 -476 OFFCURVE",
"604 -488 OFFCURVE",
"706 -468 CURVE SMOOTH"
);
}
);
width = 1272;
},
{
components = (
{
name = n;
alignment = -1;
}
);
layerId = "E58920B2-55F1-4AE6-872B-62598678C0E3";
paths = (
{
closed = 1;
nodes = (
"774 -344 OFFCURVE",
"827 -304 OFFCURVE",
"852 -190 CURVE SMOOTH",
"894 2 LINE",
"810 2 LINE",
"786 -110 LINE SMOOTH",
"754 -252 OFFCURVE",
"727 -286 OFFCURVE",
"601 -266 CURVE",
"583 -348 LINE",
"621 -358 OFFCURVE",
"654 -362 OFFCURVE",
"711 -356 CURVE"
);
}
);
width = 1146;
}
);
leftKerningGroup = n;
rightKerningGroup = n;
unicode = 014B;
},
{
glyphname = o;
layers = (
{
layerId = "A27E663E-A13B-4DBD-B069-4CF983ECD621";
name = Layer5;
width = 1196;
},
{
layerId = "6751CA47-F6ED-42D7-BE33-6F49EA595F73";
name = Layer4;
width = 1178;
},
{
layerId = "3F31DAF6-41B6-44B9-8019-106AE6FC3ECE";
name = Layer3;
width = 1200;
},
{
layerId = "0AC95DCC-852B-4BE6-AF8C-4094AF10EB8A";
paths = (
{
closed = 1;
nodes = (
"874.056 -30 OFFCURVE",
"1076.719 157.941 OFFCURVE",
"1162 540 CURVE SMOOTH",
"1237.389 880.267 OFFCURVE",
"1075.827 1110 OFFCURVE",
"740 1110 CURVE SMOOTH",
"353.995 1110 OFFCURVE",
"152.631 921.403 OFFCURVE",
"68 540 CURVE SMOOTH",
"-7.321 200.04 OFFCURVE",
"152.551 -30 OFFCURVE",
"487 -30 CURVE SMOOTH"
);
},
{
closed = 1;
nodes = (
"377.423 224 OFFCURVE",
"315.072 355.346 OFFCURVE",
"356 540 CURVE SMOOTH",
"399.679 740.285 OFFCURVE",
"486.716 856 OFFCURVE",
"684 856 CURVE SMOOTH",
"851.194 856 OFFCURVE",
"914.438 724.861 OFFCURVE",
"874 540 CURVE SMOOTH",
"828.771 339.701 OFFCURVE",
"741.699 224 OFFCURVE",
"544 224 CURVE SMOOTH"
);
}
);
width = 1254;
},
{
layerId = "E58920B2-55F1-4AE6-872B-62598678C0E3";
paths = (
{
closed = 1;
nodes = (
"801.837 -30 OFFCURVE",
"974.027 173.123 OFFCURVE",
"1056 542 CURVE SMOOTH",
"1130.053 876.24 OFFCURVE",
"999.519 1110 OFFCURVE",
"688 1110 CURVE SMOOTH",
"322.584 1110 OFFCURVE",
"150.035 908.999 OFFCURVE",
"68 542 CURVE SMOOTH",
"-6.08 205.639 OFFCURVE",
"122.932 -30 OFFCURVE",
"435 -30 CURVE SMOOTH"
);
},
{
closed = 1;
nodes = (
"194.591 54 OFFCURVE",
"94.857 256.401 OFFCURVE",
"158 542 CURVE SMOOTH",
"226.444 850.542 OFFCURVE",
"363.924 1026 OFFCURVE",
"669 1026 CURVE SMOOTH",
"927.639 1026 OFFCURVE",
"1028.682 825.517 OFFCURVE",
"966 542 CURVE SMOOTH",
"897.498 231.598 OFFCURVE",
"760.492 54 OFFCURVE",
"454 54 CURVE SMOOTH"
);
}
);
width = 1148;
}
);
leftKerningGroup = o;
rightKerningGroup = o;
unicode = 006F;
},
{
glyphname = oslash;
layers = (
{
layerId = "A27E663E-A13B-4DBD-B069-4CF983ECD621";
name = Layer5;
width = 1196;
},
{
layerId = "3F31DAF6-41B6-44B9-8019-106AE6FC3ECE";
name = Layer3;
width = 1200;
},
{
layerId = "6751CA47-F6ED-42D7-BE33-6F49EA595F73";
name = Layer4;
width = 1176;
},
{
components = (
{
name = o;
alignment = -1;
}
);
layerId = "0AC95DCC-852B-4BE6-AF8C-4094AF10EB8A";
paths = (
{
closed = 1;
nodes = (
"305 140 LINE",
"375 228 LINE",
"988 730 LINE",
"1060 756 LINE",
"1272 928 LINE",
"1132 1110 LINE",
"929 944 LINE",
"896 882 LINE",
"270 372 LINE",
"180 332 LINE",
"-43 150 LINE",
"97 -30 LINE"
);
}
);
width = 1254;
},
{
components = (
{
name = o;
alignment = -1;
}
);
layerId = "E58920B2-55F1-4AE6-872B-62598678C0E3";
paths = (
{
closed = 1;
nodes = (
"153 158 LINE",
"180 180 LINE",
"989 842 LINE",
"1016 864 LINE",
"1211 1022 LINE",
"1163 1080 LINE",
"998 946 LINE",
"966 920 LINE",
"141 246 LINE",
"114 224 LINE",
"-87 60 LINE",
"-40 0 LINE"
);
}
);
width = 1148;
}
);
leftKerningGroup = o;
rightKerningGroup = o;
unicode = 00F8;
},
{
glyphname = p;
layers = (
{
layerId = "A27E663E-A13B-4DBD-B069-4CF983ECD621";
name = Layer5;
width = 1192;
},
{
layerId = "6751CA47-F6ED-42D7-BE33-6F49EA595F73";
name = Layer4;
width = 1146;
},
{
layerId = "3F31DAF6-41B6-44B9-8019-106AE6FC3ECE";
name = Layer3;
width = 1200;
},
{
layerId = "0AC95DCC-852B-4BE6-AF8C-4094AF10EB8A";
paths = (
{
closed = 1;
nodes = (
"898.868 -30 OFFCURVE",
"1073.967 170.85 OFFCURVE",
"1156 540 CURVE SMOOTH",
"1230.516 876.854 OFFCURVE",
"1089.684 1110 OFFCURVE",
"770 1110 CURVE SMOOTH",
"412.133 1110 OFFCURVE",
"252.529 902.38 OFFCURVE",
"172 540 CURVE SMOOTH",
"97.653 205.44 OFFCURVE",
"222.563 -30 OFFCURVE",
"531 -30 CURVE SMOOTH"
);
},
{
closed = 1;
nodes = (
"174 -480 LINE",
"355 340 LINE",
"321 340 LINE",
"485 1080 LINE",
"245 1080 LINE",
"-100 -480 LINE"
);
},
{
closed = 1;
nodes = (
"375.322 212 OFFCURVE",
"323.295 349.767 OFFCURVE",
"366 540 CURVE SMOOTH",
"409.989 740.508 OFFCURVE",
"481.883 868 OFFCURVE",
"676 868 CURVE SMOOTH",
"847.731 868 OFFCURVE",
"910.539 731.427 OFFCURVE",
"868 540 CURVE SMOOTH",
"822.01 335.848 OFFCURVE",
"740.712 212 OFFCURVE",
"541 212 CURVE SMOOTH"
);
}
);
width = 1248;
},
{
layerId = "E58920B2-55F1-4AE6-872B-62598678C0E3";
paths = (
{
closed = 1;
nodes = (
"820.996 -30 OFFCURVE",
"979.359 179.114 OFFCURVE",
"1060 542 CURVE SMOOTH",
"1133.934 873.143 OFFCURVE",
"1027.788 1110 OFFCURVE",
"732 1110 CURVE SMOOTH",
"377.555 1110 OFFCURVE",
"222.036 901.615 OFFCURVE",
"142 542 CURVE SMOOTH",
"68.593 209.086 OFFCURVE",
"168.812 -30 OFFCURVE",
"463 -30 CURVE SMOOTH"
);
},
{
closed = 1;
nodes = (
"-14 -480 LINE",
"143 230 LINE",
"137 230 LINE",
"325 1080 LINE",
"247 1080 LINE",
"-98 -480 LINE"
);
},
{
closed = 1;
nodes = (
"230.315 54 OFFCURVE",
"143.64 257.8 OFFCURVE",
"206 542 CURVE SMOOTH",
"273.799 845.48 OFFCURVE",
"399.225 1026 OFFCURVE",
"697 1026 CURVE SMOOTH",
"946.47 1026 OFFCURVE",
"1032.277 823.779 OFFCURVE",
"970 542 CURVE SMOOTH",
"903.149 237.333 OFFCURVE",
"779.971 54 OFFCURVE",
"482 54 CURVE SMOOTH"
);
}
);
width = 1152;
}
);
leftKerningGroup = m;
rightKerningGroup = o;
unicode = 0070;
},
{
glyphname = thorn;
layers = (
{
layerId = "A27E663E-A13B-4DBD-B069-4CF983ECD621";
name = Layer5;
width = 1192;
},
{
layerId = "3F31DAF6-41B6-44B9-8019-106AE6FC3ECE";
name = Layer3;
width = 1200;
},
{
layerId = "6751CA47-F6ED-42D7-BE33-6F49EA595F73";
name = Layer4;
width = 1146;
},
{
components = (
{
name = p;
alignment = -1;
}
);
layerId = "0AC95DCC-852B-4BE6-AF8C-4094AF10EB8A";
paths = (
{
closed = 1;
nodes = (
"474 864 LINE",
"601 1440 LINE",
"327 1440 LINE",
"200 864 LINE"
);
}
);
width = 1248;
},
{
components = (
{
name = p;
alignment = -1;
}
);
layerId = "E58920B2-55F1-4AE6-872B-62598678C0E3";
paths = (
{
closed = 1;
nodes = (
"265 782 LINE",
"411 1440 LINE",
"327 1440 LINE",
"181 782 LINE"
);
}
);
width = 1152;
}
);
leftKerningGroup = p;
rightKerningGroup = p;
unicode = 00FE;
},
{
glyphname = q;
layers = (
{
layerId = "0AC95DCC-852B-4BE6-AF8C-4094AF10EB8A";
paths = (
{
closed = 1;
nodes = (
"802.384 -30 OFFCURVE",
"970.64 173.881 OFFCURVE",
"1052 540 CURVE SMOOTH",
"1126.125 873.565 OFFCURVE",
"1009.217 1110 OFFCURVE",
"706 1110 CURVE SMOOTH",
"333.118 1110 OFFCURVE",
"150.42 912.584 OFFCURVE",
"68 540 CURVE SMOOTH",
"-6.561 204.475 OFFCURVE",
"125.592 -30 OFFCURVE",
"439 -30 CURVE SMOOTH"
);
},
{
closed = 1;
nodes = (
"369.179 212 OFFCURVE",
"313.059 349.386 OFFCURVE",
"356 540 CURVE SMOOTH",
"401.896 746.534 OFFCURVE",
"488.997 868 OFFCURVE",
"692 868 CURVE SMOOTH",
"854.496 868 OFFCURVE",
"899.62 729.709 OFFCURVE",
"858 540 CURVE SMOOTH",
"812.481 337.234 OFFCURVE",
"734.668 212 OFFCURVE",
"537 212 CURVE SMOOTH"
);
},
{
closed = 1;
nodes = (
"872 -480 LINE",
"1217 1080 LINE",
"977 1080 LINE",
"813 340 LINE",
"779 340 LINE",
"598 -480 LINE"
);
}
);
width = 1250;
},
{
layerId = "E58920B2-55F1-4AE6-872B-62598678C0E3";
paths = (
{
closed = 1;
nodes = (
"761.246 -30 OFFCURVE",
"907.126 184.289 OFFCURVE",
"986 542 CURVE SMOOTH",
"1059.864 873.881 OFFCURVE",
"947.535 1110 OFFCURVE",
"648 1110 CURVE SMOOTH",
"297.192 1110 OFFCURVE",
"147.727 899.086 OFFCURVE",
"68 542 CURVE SMOOTH",
"-6.316 207.577 OFFCURVE",
"108.371 -30 OFFCURVE",
"411 -30 CURVE SMOOTH"
);
},
{
closed = 1;
nodes = (
"179.762 54 OFFCURVE",
"95.701 258.078 OFFCURVE",
"158 542 CURVE SMOOTH",
"224.91 844.741 OFFCURVE",
"348.504 1026 OFFCURVE",
"645 1026 CURVE SMOOTH",
"896.123 1026 OFFCURVE",
"984.999 823.993 OFFCURVE",
"922 542 CURVE SMOOTH",
"854.937 236.368 OFFCURVE",
"729.38 54 OFFCURVE",
"430 54 CURVE SMOOTH"
);
},
{
closed = 1;
nodes = (
"774 -480 LINE",
"1119 1080 LINE",
"1041 1080 LINE",
"853 230 LINE",
"847 230 LINE",
"690 -480 LINE"
);
}
);
width = 1152;
},
{
layerId = "A27E663E-A13B-4DBD-B069-4CF983ECD621";
name = Layer5;
width = 1192;
},
{
layerId = "6751CA47-F6ED-42D7-BE33-6F49EA595F73";
name = Layer4;
width = 1146;
},
{
layerId = "3F31DAF6-41B6-44B9-8019-106AE6FC3ECE";
name = Layer3;
width = 1200;
}
);
leftKerningGroup = q;
rightKerningGroup = q;
unicode = 0071;
},
{
glyphname = r;
layers = (
{
layerId = "A27E663E-A13B-4DBD-B069-4CF983ECD621";
name = Layer5;
width = 1112;
},
{
layerId = "6751CA47-F6ED-42D7-BE33-6F49EA595F73";
name = Layer4;
width = 648;
},
{
layerId = "3F31DAF6-41B6-44B9-8019-106AE6FC3ECE";
name = Layer3;
width = 1200;
},
{
layerId = "0AC95DCC-852B-4BE6-AF8C-4094AF10EB8A";
paths = (
{
closed = 1;
nodes = (
"282 0 LINE",
"404 552 LINE SMOOTH",
"434.058 685.114 OFFCURVE",
"483.349 755.843 OFFCURVE",
"609 808 CURVE SMOOTH",
"689.88 842.175 OFFCURVE",
"741.467 852.85 OFFCURVE",
"825 826 CURVE",
"881 1080 LINE",
"763.963 1094.784 OFFCURVE",
"695.831 1083.999 OFFCURVE",
"592 1028 CURVE SMOOTH",
"501.712 981.097 OFFCURVE",
"462.844 936.899 OFFCURVE",
"410 850 CURVE",
"429 816 LINE",
"487 1080 LINE",
"247 1080 LINE",
"8 0 LINE"
);
}
);
width = 824;
},
{
layerId = "E58920B2-55F1-4AE6-872B-62598678C0E3";
paths = (
{
closed = 1;
nodes = (
"92 0 LINE",
"210 532 LINE SMOOTH",
"249.377 711.235 OFFCURVE",
"268.555 824.281 OFFCURVE",
"414 936 CURVE SMOOTH",
"512.568 1012.558 OFFCURVE",
"588.404 1028.278 OFFCURVE",
"710 1000 CURVE",
"727 1080 LINE",
"585.151 1128.914 OFFCURVE",
"493.892 1094.755 OFFCURVE",
"376 1000 CURVE SMOOTH",
"316.346 953.441 OFFCURVE",
"289.09 920.778 OFFCURVE",
"250 856 CURVE",
"268 822 LINE",
"325 1080 LINE",
"247 1080 LINE",
"8 0 LINE"
);
}
);
width = 670;
}
);
leftKerningGroup = r;
rightKerningGroup = r;
unicode = 0072;
},
{
glyphname = s;
layers = (
{
layerId = "7447FE7B-D73D-4904-ADEA-265673B512E2";
name = public.background;
paths = (
{
closed = 1;
nodes = (
"948 798 LINE",
"930 976 OFFCURVE",
"758 1110 OFFCURVE",
"508 1110 CURVE SMOOTH",
"306 1110 OFFCURVE",
"112 1012 OFFCURVE",
"112 820 CURVE SMOOTH",
"112 660 OFFCURVE",
"248 598 OFFCURVE",
"404 554 CURVE SMOOTH",
"488 530 OFFCURVE",
"552 512 OFFCURVE",
"602 498 CURVE SMOOTH",
"742 460 OFFCURVE",
"856 426 OFFCURVE",
"856 284 CURVE SMOOTH",
"856 138 OFFCURVE",
"716 56 OFFCURVE",
"544 56 CURVE SMOOTH",
"378 56 OFFCURVE",
"208 116 OFFCURVE",
"166 276 CURVE",
"80 260 LINE",
"124 56 OFFCURVE",
"322 -28 OFFCURVE",
"536 -28 CURVE SMOOTH",
"776 -28 OFFCURVE",
"946 78 OFFCURVE",
"946 292 CURVE SMOOTH",
"946 460 OFFCURVE",
"812 532 OFFCURVE",
"636 578 CURVE SMOOTH",
"530 606 OFFCURVE",
"456 624 OFFCURVE",
"404 640 CURVE",
"272 676 OFFCURVE",
"200 732 OFFCURVE",
"200 820 CURVE SMOOTH",
"200 942 OFFCURVE",
"326 1030 OFFCURVE",
"506 1026 CURVE SMOOTH",
"672 1022 OFFCURVE",
"830 964 OFFCURVE",
"862 782 CURVE"
);
}
);
width = 1094;
},
{
layerId = "BD936841-78ED-4F7E-A3FC-D5A6245A6992";
name = Layer7;
width = 1174;
},
{
layerId = "63ADE33C-C0F2-45DC-8BA2-2E70B1572FB0";
name = Layer6;
width = 1032;
},
{
layerId = "A27E663E-A13B-4DBD-B069-4CF983ECD621";
name = Layer5;
width = 1200;
},
{
layerId = "0AC95DCC-852B-4BE6-AF8C-4094AF10EB8A";
paths = (
{
closed = 1;
nodes = (
"710.406 -30 OFFCURVE",
"894.309 55.565 OFFCURVE",
"954 326 CURVE SMOOTH",
"994.23 503.859 OFFCURVE",
"877.715 592.837 OFFCURVE",
"685 646 CURVE SMOOTH",
"544.735 683.718 OFFCURVE",
"396.974 650.348 OFFCURVE",
"428 784 CURVE SMOOTH",
"447.662 871.075 OFFCURVE",
"517.431 881.912 OFFCURVE",
"614 876 CURVE SMOOTH",
"708.965 868.403 OFFCURVE",
"766.75 827.495 OFFCURVE",
"758 740 CURVE",
"1047 790 LINE",
"1065.197 1012.913 OFFCURVE",
"907.261 1110 OFFCURVE",
"660 1110 CURVE SMOOTH",
"386.469 1110 OFFCURVE",
"211.967 1027.588 OFFCURVE",
"155 770 CURVE SMOOTH",
"114.461 588.123 OFFCURVE",
"243.855 506.658 OFFCURVE",
"444 452 CURVE SMOOTH",
"572.198 415.871 OFFCURVE",
"699.127 431.436 OFFCURVE",
"673 312 CURVE SMOOTH",
"653.701 224.512 OFFCURVE",
"589.575 204 OFFCURVE",
"495 204 CURVE SMOOTH",
"378.03 204 OFFCURVE",
"307 254.714 OFFCURVE",
"307 366 CURVE",
"20 324 LINE",
"5.084 83.206 OFFCURVE",
"164.115 -30 OFFCURVE",
"423 -30 CURVE SMOOTH"
);
}
);
width = 1094;
},
{
layerId = "E58920B2-55F1-4AE6-872B-62598678C0E3";
paths = (
{
closed = 1;
nodes = (
"655.085 -28 OFFCURVE",
"823.78 43.416 OFFCURVE",
"877 286 CURVE SMOOTH",
"921.171 484.175 OFFCURVE",
"755.97 545.982 OFFCURVE",
"532 606 CURVE SMOOTH",
"360.982 651.416 OFFCURVE",
"217.34 670.577 OFFCURVE",
"250 822 CURVE SMOOTH",
"287.732 992.491 OFFCURVE",
"415.599 1028.072 OFFCURVE",
"601 1026 CURVE",
"790.426 1026 OFFCURVE",
"912.183 954.185 OFFCURVE",
"903 782 CURVE",
"993 798 LINE",
"1019.693 1011.546 OFFCURVE",
"866.946 1110 OFFCURVE",
"626 1110 CURVE SMOOTH",
"377.469 1110 OFFCURVE",
"212.075 1049.18 OFFCURVE",
"161 818 CURVE SMOOTH",
"119.694 632.122 OFFCURVE",
"282.733 586.326 OFFCURVE",
"491 526 CURVE SMOOTH",
"671.254 473.752 OFFCURVE",
"823.572 451.444 OFFCURVE",
"788 290 CURVE SMOOTH",
"746.891 105.007 OFFCURVE",
"614.803 56 OFFCURVE",
"416 56 CURVE SMOOTH",
"229.651 56 OFFCURVE",
"102.591 106.473 OFFCURVE",
"95 276 CURVE",
"6 260 LINE",
"3.634 47.026 OFFCURVE",
"160.596 -28 OFFCURVE",
"396 -28 CURVE SMOOTH"
);
}
);
width = 1028;
}
);
leftKerningGroup = s;
rightKerningGroup = s;
unicode = 0073;
},
{
glyphname = germandbls;
layers = (
{
layerId = "0AC95DCC-852B-4BE6-AF8C-4094AF10EB8A";
paths = (
{
closed = 1;
nodes = (
"890.569 -30 OFFCURVE",
"1065.006 115.216 OFFCURVE",
"1135 428 CURVE SMOOTH",
"1173.381 602.271 OFFCURVE",
"1153.84 727.286 OFFCURVE",
"999 798 CURVE",
"1096.484 874.194 OFFCURVE",
"1133.781 937.291 OFFCURVE",
"1161 1058 CURVE SMOOTH",
"1216.454 1312.437 OFFCURVE",
"1064.244 1470 OFFCURVE",
"790 1470 CURVE SMOOTH",
"544.792 1470 OFFCURVE",
"399.004 1403.223 OFFCURVE",
"285 1188 CURVE SMOOTH",
"261.168 1140.337 OFFCURVE",
"252.447 1112.033 OFFCURVE",
"241 1060 CURVE SMOOTH",
"6 0 LINE",
"280 0 LINE",
"499 986 LINE SMOOTH",
"511.648 1047.132 OFFCURVE",
"518.509 1082.732 OFFCURVE",
"557 1132 CURVE SMOOTH",
"606.797 1195.74 OFFCURVE",
"653.027 1216 OFFCURVE",
"734 1216 CURVE SMOOTH",
"845.014 1216 OFFCURVE",
"907.494 1153.711 OFFCURVE",
"885 1052 CURVE SMOOTH",
"859.287 932.785 OFFCURVE",
"785.349 888.023 OFFCURVE",
"661 880 CURVE",
"609 644 LINE",
"783.411 644 OFFCURVE",
"895.19 575.665 OFFCURVE",
"864 432 CURVE SMOOTH",
"831.944 288.818 OFFCURVE",
"740.242 236 OFFCURVE",
"590 236 CURVE SMOOTH",
"533.603 236 OFFCURVE",
"502.398 242.788 OFFCURVE",
"451 266 CURVE",
"392 0 LINE",
"457.163 -31.03 OFFCURVE",
"498.94 -30 OFFCURVE",
"571 -30 CURVE SMOOTH"
);
}
);
width = 1292;
},
{
layerId = "E58920B2-55F1-4AE6-872B-62598678C0E3";
paths = (
{
closed = 1;
nodes = (
"749.724 -28 OFFCURVE",
"921.249 104.388 OFFCURVE",
"987 402 CURVE SMOOTH",
"1035.82 621.688 OFFCURVE",
"944.806 773.179 OFFCURVE",
"732 784 CURVE",
"903.807 825.429 OFFCURVE",
"970.433 923.315 OFFCURVE",
"1009 1098 CURVE SMOOTH",
"1059.501 1322.043 OFFCURVE",
"942.768 1470 OFFCURVE",
"714 1470 CURVE SMOOTH",
"524.868 1470 OFFCURVE",
"416.691 1415.718 OFFCURVE",
"316 1256 CURVE SMOOTH",
"273.293 1187.118 OFFCURVE",
"261.116 1143.16 OFFCURVE",
"244 1064 CURVE SMOOTH",
"8 0 LINE",
"100 0 LINE",
"331 1042 LINE SMOOTH",
"346.476 1111.045 OFFCURVE",
"355.429 1149.653 OFFCURVE",
"389 1212 CURVE SMOOTH",
"458.334 1343.958 OFFCURVE",
"547.013 1386 OFFCURVE",
"697 1386 CURVE SMOOTH",
"870.816 1386 OFFCURVE",
"958.206 1271.925 OFFCURVE",
"920 1100 CURVE SMOOTH",
"878.034 909.617 OFFCURVE",
"764.811 835.617 OFFCURVE",
"568 812 CURVE",
"549 728 LINE",
"793.752 722.149 OFFCURVE",
"943.348 611.107 OFFCURVE",
"897 402 CURVE SMOOTH",
"844.591 163.974 OFFCURVE",
"707.467 58 OFFCURVE",
"463 58 CURVE SMOOTH",
"392.688 58 OFFCURVE",
"352.942 59.411 OFFCURVE",
"287 84 CURVE",
"268 0 LINE",
"332.489 -29.202 OFFCURVE",
"373.32 -28 OFFCURVE",
"444 -28 CURVE SMOOTH"
);
}
);
width = 1150;
},
{
layerId = "A27E663E-A13B-4DBD-B069-4CF983ECD621";
name = Layer5;
width = 1208;
},
{
layerId = "6751CA47-F6ED-42D7-BE33-6F49EA595F73";
name = Layer4;
width = 1256;
},
{
layerId = "3F31DAF6-41B6-44B9-8019-106AE6FC3ECE";
name = Layer3;
width = 1200;
}
);
leftKerningGroup = b;
rightKerningGroup = b;
unicode = 00DF;
},
{
glyphname = t;
layers = (
{
layerId = "A27E663E-A13B-4DBD-B069-4CF983ECD621";
name = Layer5;
width = 1110;
},
{
layerId = "6751CA47-F6ED-42D7-BE33-6F49EA595F73";
name = Layer4;
width = 632;
},
{
layerId = "3F31DAF6-41B6-44B9-8019-106AE6FC3ECE";
name = Layer3;
width = 1200;
},
{
layerId = "0AC95DCC-852B-4BE6-AF8C-4094AF10EB8A";
paths = (
{
closed = 1;
nodes = (
"706 226 LINE",
"575.722 208.235 OFFCURVE",
"474.282 166.535 OFFCURVE",
"428 280 CURVE SMOOTH",
"396.912 353.149 OFFCURVE",
"431.602 397.083 OFFCURVE",
"449 474 CURVE SMOOTH",
"650 1380 LINE",
"378 1380 LINE",
"174 458 LINE SMOOTH",
"145.643 330.88 OFFCURVE",
"104.246 257.997 OFFCURVE",
"146 134 CURVE SMOOTH",
"218.129 -81.025 OFFCURVE",
"408.61 -44.594 OFFCURVE",
"656 0 CURVE"
);
},
{
closed = 1;
nodes = (
"849 870 LINE",
"895 1080 LINE",
"127 1080 LINE",
"81 870 LINE"
);
}
);
width = 888;
},
{
layerId = "E58920B2-55F1-4AE6-872B-62598678C0E3";
paths = (
{
closed = 1;
nodes = (
"584 80 LINE",
"435.541 56.11 OFFCURVE",
"320.362 34.713 OFFCURVE",
"284 164 CURVE SMOOTH",
"261.475 239.082 OFFCURVE",
"288.781 281.77 OFFCURVE",
"305 358 CURVE SMOOTH",
"532 1380 LINE",
"448 1380 LINE",
"221 358 LINE SMOOTH",
"201.73 267.432 OFFCURVE",
"178.071 216.296 OFFCURVE",
"200 126 CURVE SMOOTH",
"238.347 -36.973 OFFCURVE",
"379.948 -39.399 OFFCURVE",
"566 0 CURVE"
);
},
{
closed = 1;
nodes = (
"787 996 LINE",
"805 1080 LINE",
"127 1080 LINE",
"109 996 LINE"
);
}
);
width = 758;
}
);
leftKerningGroup = t;
rightKerningGroup = t;
unicode = 0074;
},
{
glyphname = tbar;
layers = (
{
layerId = "A27E663E-A13B-4DBD-B069-4CF983ECD621";
name = Layer5;
width = 1110;
},
{
layerId = "3F31DAF6-41B6-44B9-8019-106AE6FC3ECE";
name = Layer3;
width = 1200;
},
{
layerId = "6751CA47-F6ED-42D7-BE33-6F49EA595F73";
name = Layer4;
width = 632;
},
{
components = (
{
name = t;
alignment = -1;
}
);
layerId = "0AC95DCC-852B-4BE6-AF8C-4094AF10EB8A";
paths = (
{
closed = 1;
nodes = (
"797 456 LINE",
"844 666 LINE",
"36 666 LINE",
"-11 456 LINE"
);
}
);
width = 928;
},
{
components = (
{
name = t;
alignment = -1;
}
);
layerId = "E58920B2-55F1-4AE6-872B-62598678C0E3";
paths = (
{
closed = 1;
nodes = (
"676 498 LINE",
"695 582 LINE",
"17 582 LINE",
"-2 498 LINE"
);
}
);
width = 798;
}
);
leftKerningGroup = t;
rightKerningGroup = t;
unicode = 0167;
},
{
glyphname = u;
layers = (
{
layerId = "A27E663E-A13B-4DBD-B069-4CF983ECD621";
name = Layer5;
width = 1188;
},
{
layerId = "6751CA47-F6ED-42D7-BE33-6F49EA595F73";
name = Layer4;
width = 1128;
},
{
layerId = "3F31DAF6-41B6-44B9-8019-106AE6FC3ECE";
name = Layer3;
width = 1200;
},
{
layerId = "0AC95DCC-852B-4BE6-AF8C-4094AF10EB8A";
paths = (
{
closed = 1;
nodes = (
"736.071 -32 OFFCURVE",
"910.816 129.315 OFFCURVE",
"984 458 CURVE",
"844 532 LINE",
"802.203 342.141 OFFCURVE",
"730.581 224 OFFCURVE",
"546 224 CURVE SMOOTH",
"380.284 224 OFFCURVE",
"347.38 371.107 OFFCURVE",
"390 570 CURVE SMOOTH",
"503 1080 LINE",
"227 1080 LINE",
"93 474 LINE SMOOTH",
"27.15 177.674 OFFCURVE",
"132.699 -32 OFFCURVE",
"403 -32 CURVE SMOOTH"
);
},
{
closed = 1;
nodes = (
"1000 0 LINE",
"1239 1080 LINE",
"965 1080 LINE",
"805 358 LINE",
"839 358 LINE",
"760 0 LINE"
);
}
);
width = 1272;
},
{
layerId = "E58920B2-55F1-4AE6-872B-62598678C0E3";
paths = (
{
closed = 1;
nodes = (
"750.4 -24 OFFCURVE",
"903.474 160.236 OFFCURVE",
"977 492 CURVE",
"899 490 LINE",
"837.1 213.831 OFFCURVE",
"712.598 58 OFFCURVE",
"439 58 CURVE SMOOTH",
"206.783 58 OFFCURVE",
"126.322 246.075 OFFCURVE",
"185 508 CURVE SMOOTH",
"311 1080 LINE",
"227 1080 LINE",
"97 492 LINE SMOOTH",
"29.816 189.199 OFFCURVE",
"142.221 -24 OFFCURVE",
"421 -24 CURVE SMOOTH"
);
},
{
closed = 1;
nodes = (
"874 0 LINE",
"1113 1080 LINE",
"1029 1080 LINE",
"839 220 LINE",
"845 220 LINE",
"796 0 LINE"
);
}
);
width = 1146;
}
);
leftKerningGroup = u;
rightKerningGroup = u;
unicode = 0075;
},
{
glyphname = v;
layers = (
{
layerId = "A27E663E-A13B-4DBD-B069-4CF983ECD621";
name = Layer5;
width = 1160;
},
{
layerId = "6751CA47-F6ED-42D7-BE33-6F49EA595F73";
name = Layer4;
width = 952;
},
{
layerId = "3F31DAF6-41B6-44B9-8019-106AE6FC3ECE";
name = Layer3;
width = 1200;
},
{
layerId = "0AC95DCC-852B-4BE6-AF8C-4094AF10EB8A";
paths = (
{
closed = 1;
nodes = (
"572 0 LINE",
"1203 1080 LINE",
"931 1080 LINE",
"510 332 LINE",
"419 1080 LINE",
"147 1080 LINE",
"300 0 LINE"
);
}
);
width = 1136;
},
{
layerId = "E58920B2-55F1-4AE6-872B-62598678C0E3";
paths = (
{
closed = 1;
nodes = (
"392 0 LINE",
"1023 1080 LINE",
"933 1080 LINE",
"373 122 LINE",
"235 1080 LINE",
"147 1080 LINE",
"300 0 LINE"
);
}
);
width = 956;
}
);
leftKerningGroup = v;
rightKerningGroup = v;
unicode = 0076;
},
{
glyphname = w;
layers = (
{
layerId = "A27E663E-A13B-4DBD-B069-4CF983ECD621";
name = Layer5;
width = 1266;
},
{
layerId = "6751CA47-F6ED-42D7-BE33-6F49EA595F73";
name = Layer4;
width = 1618;
},
{
layerId = "3F31DAF6-41B6-44B9-8019-106AE6FC3ECE";
name = Layer3;
width = 1200;
},
{
layerId = "0AC95DCC-852B-4BE6-AF8C-4094AF10EB8A";
paths = (
{
closed = 1;
nodes = (
"446 0 LINE",
"838 704 LINE",
"918 0 LINE",
"1126 0 LINE",
"1695 1080 LINE",
"1429 1080 LINE",
"1091 436 LINE",
"1034 1080 LINE",
"808 1080 LINE",
"467 436 LINE",
"413 1080 LINE",
"148 1082 LINE",
"238 0 LINE"
);
}
);
width = 1628;
},
{
layerId = "E58920B2-55F1-4AE6-872B-62598678C0E3";
paths = (
{
closed = 1;
nodes = (
"326 0 LINE",
"820 938 LINE",
"898 0 LINE",
"986 0 LINE",
"1555 1080 LINE",
"1469 1080 LINE",
"974 144 LINE",
"895 1080 LINE",
"807 1080 LINE",
"314 144 LINE",
"235 1080 LINE",
"147 1080 LINE",
"238 0 LINE"
);
}
);
width = 1488;
}
);
leftKerningGroup = v;
rightKerningGroup = v;
unicode = 0077;
},
{
glyphname = x;
layers = (
{
layerId = "A27E663E-A13B-4DBD-B069-4CF983ECD621";
name = Layer5;
width = 1162;
},
{
layerId = "6751CA47-F6ED-42D7-BE33-6F49EA595F73";
name = Layer4;
width = 968;
},
{
layerId = "3F31DAF6-41B6-44B9-8019-106AE6FC3ECE";
name = Layer3;
width = 1200;
},
{
layerId = "0AC95DCC-852B-4BE6-AF8C-4094AF10EB8A";
paths = (
{
closed = 1;
nodes = (
"208 0 LINE",
"506 332 LINE",
"654 0 LINE",
"974 0 LINE",
"707 546 LINE",
"1203 1080 LINE",
"883 1080 LINE",
"600 760 LINE",
"455 1080 LINE",
"135 1080 LINE",
"395 546 LINE",
"-112 0 LINE"
);
}
);
width = 1126;
},
{
layerId = "E58920B2-55F1-4AE6-872B-62598678C0E3";
paths = (
{
closed = 1;
nodes = (
"-6 0 LINE",
"485 484 LINE",
"760 0 LINE",
"866 0 LINE",
"547 546 LINE",
"1095 1080 LINE",
"991 1080 LINE",
"513 608 LINE",
"241 1080 LINE",
"137 1080 LINE",
"449 546 LINE",
"-112 0 LINE"
);
}
);
width = 1018;
}
);
leftKerningGroup = x;
rightKerningGroup = x;
unicode = 0078;
},
{
glyphname = y;
layers = (
{
layerId = "A27E663E-A13B-4DBD-B069-4CF983ECD621";
name = Layer5;
width = 1154;
},
{
layerId = "6751CA47-F6ED-42D7-BE33-6F49EA595F73";
name = Layer4;
width = 912;
},
{
layerId = "3F31DAF6-41B6-44B9-8019-106AE6FC3ECE";
name = Layer3;
width = 1200;
},
{
layerId = "937987C1-DDF8-46DC-870C-989F806548F6";
name = "Dec 28 18, 16:43";
paths = (
{
closed = 1;
nodes = (
"606 314 LINE",
"338 1080 LINE",
"66 1080 LINE",
"480 -30 LINE",
"286 -480 LINE",
"558 -480 LINE",
"1152 1080 LINE",
"880 1080 LINE"
);
}
);
width = 1172;
},
{
layerId = "0AC95DCC-852B-4BE6-AF8C-4094AF10EB8A";
paths = (
{
closed = 1;
nodes = (
"292 -480 LINE",
"1247 1080 LINE",
"975 1080 LINE",
"480 262 LINE",
"544 262 LINE",
"409 1080 LINE",
"127 1080 LINE",
"341 -76 LINE",
"374 92 LINE",
"40 -480 LINE"
);
}
);
width = 1140;
},
{
layerId = "E58920B2-55F1-4AE6-872B-62598678C0E3";
paths = (
{
closed = 1;
nodes = (
"158 -480 LINE",
"1069 1080 LINE",
"979 1080 LINE",
"367 32 LINE",
"431 32 LINE",
"239 1080 LINE",
"147 1080 LINE",
"363 -84 LINE",
"399 84 LINE",
"64 -480 LINE"
);
}
);
width = 1012;
}
);
leftKerningGroup = y;
rightKerningGroup = y;
unicode = 0079;
},
{
glyphname = z;
layers = (
{
layerId = "A27E663E-A13B-4DBD-B069-4CF983ECD621";
name = Layer5;
width = 1180;
},
{
layerId = "6751CA47-F6ED-42D7-BE33-6F49EA595F73";
name = Layer4;
width = 1070;
},
{
layerId = "3F31DAF6-41B6-44B9-8019-106AE6FC3ECE";
name = Layer3;
width = 1200;
},
{
layerId = "0AC95DCC-852B-4BE6-AF8C-4094AF10EB8A";
paths = (
{
closed = 1;
nodes = (
"838 0 LINE",
"890 236 LINE",
"382 236 LINE",
"1090 1046 LINE",
"1097 1080 LINE",
"207 1080 LINE",
"155 844 LINE",
"625 844 LINE",
"-84 34 LINE",
"-92 0 LINE"
);
}
);
width = 1070;
},
{
layerId = "E58920B2-55F1-4AE6-872B-62598678C0E3";
paths = (
{
closed = 1;
nodes = (
"794 0 LINE",
"814 88 LINE",
"82 88 LINE",
"1074 1046 LINE",
"1081 1080 LINE",
"195 1080 LINE",
"176 992 LINE",
"908 992 LINE",
"-85 30 LINE",
"-92 0 LINE"
);
}
);
width = 1054;
}
);
leftKerningGroup = z;
rightKerningGroup = z;
unicode = 007A;
},
{
glyphname = fl;
layers = (
{
layerId = "A27E663E-A13B-4DBD-B069-4CF983ECD621";
name = Layer5;
width = 1220;
},
{
layerId = "3F31DAF6-41B6-44B9-8019-106AE6FC3ECE";
name = Layer3;
width = 1200;
},
{
layerId = "6751CA47-F6ED-42D7-BE33-6F49EA595F73";
name = Layer4;
width = 1320;
},
{
components = (
{
name = f;
alignment = -1;
},
{
name = l;
transform = "{1, 0, 0, 1, 830, 0}";
alignment = -1;
}
);
layerId = "0AC95DCC-852B-4BE6-AF8C-4094AF10EB8A";
paths = (
{
closed = 1;
nodes = (
"1061 870 LINE",
"1107 1080 LINE",
"847 1080 LINE",
"801 870 LINE"
);
}
);
width = 1422;
},
{
components = (
{
name = f;
alignment = -1;
},
{
name = l;
transform = "{1, 0, 0, 1, 758, 0}";
alignment = -1;
}
);
layerId = "E58920B2-55F1-4AE6-872B-62598678C0E3";
paths = (
{
closed = 1;
nodes = (
"1027 996 LINE",
"1045 1080 LINE",
"725 1080 LINE",
"707 996 LINE"
);
}
);
width = 1162;
}
);
leftKerningGroup = f;
rightKerningGroup = l;
unicode = FB02;
},
{
glyphname = ordfeminine;
layers = (
{
hints = (
{
horizontal = 1;
place = "{540, 164}";
type = Stem;
},
{
horizontal = 1;
place = "{494, 194}";
type = Stem;
},
{
horizontal = 1;
place = "{986, 124}";
type = Stem;
},
{
horizontal = 1;
place = "{555, 0}";
type = Stem;
},
{
horizontal = 1;
place = "{704, 2}";
type = Stem;
},
{
horizontal = 1;
place = "{555, 338}";
type = Stem;
},
{
horizontal = 1;
place = "{555, 164}";
type = Stem;
}
);
layerId = "0AC95DCC-852B-4BE6-AF8C-4094AF10EB8A";
paths = (
{
closed = 1;
nodes = (
"341 540 OFFCURVE",
"402 570 OFFCURVE",
"472 643 CURVE",
"460 666 LINE",
"435 555 LINE",
"554 555 LINE",
"627 885 LINE SMOOTH",
"638 934 OFFCURVE",
"645 972 OFFCURVE",
"633 1012 CURVE SMOOTH",
"611 1084 OFFCURVE",
"539 1110 OFFCURVE",
"444 1110 CURVE SMOOTH",
"314 1110 OFFCURVE",
"226 1048 OFFCURVE",
"180 959 CURVE",
"294 920 LINE",
"322 969 OFFCURVE",
"377 986 OFFCURVE",
"417 986 CURVE SMOOTH",
"489 986 OFFCURVE",
"510 957 OFFCURVE",
"496 893 CURVE",
"551 920 LINE",
"421 901 OFFCURVE",
"323 889 OFFCURVE",
"258 867 CURVE SMOOTH",
"164 835 OFFCURVE",
"121 779 OFFCURVE",
"104 704 CURVE SMOOTH",
"84 614 OFFCURVE",
"132 540 OFFCURVE",
"248 540 CURVE SMOOTH"
);
},
{
closed = 1;
nodes = (
"253 647 OFFCURVE",
"229 669 OFFCURVE",
"238 706 CURVE SMOOTH",
"244 733 OFFCURVE",
"264 752 OFFCURVE",
"307 768 CURVE",
"345 781 OFFCURVE",
"390 789 OFFCURVE",
"515 809 CURVE",
"478 819 LINE",
"472 793 OFFCURVE",
"462 748 OFFCURVE",
"441 719 CURVE SMOOTH",
"425 696 OFFCURVE",
"375 647 OFFCURVE",
"300 647 CURVE SMOOTH"
);
}
);
width = 643;
},
{
hints = (
{
place = "{-52, 88}";
type = Stem;
},
{
place = "{740, 92}";
type = Stem;
},
{
place = "{754, 78}";
type = Stem;
},
{
horizontal = 1;
place = "{-30, 84}";
type = Stem;
},
{
horizontal = 1;
place = "{580, 84}";
type = Stem;
},
{
horizontal = 1;
place = "{1110, 84}";
type = Stem;
},
{
horizontal = 1;
place = "{0, 21}";
target = up;
type = BottomGhost;
}
);
layerId = "E58920B2-55F1-4AE6-872B-62598678C0E3";
paths = (
{
closed = 1;
nodes = (
"354 540 OFFCURVE",
"435 582 OFFCURVE",
"495 666 CURVE",
"484 684 LINE",
"455 555 LINE",
"534 555 LINE",
"608 889 LINE SMOOTH",
"618 932 OFFCURVE",
"623 971 OFFCURVE",
"616 1005 CURVE SMOOTH",
"600 1075 OFFCURVE",
"535 1110 OFFCURVE",
"437 1110 CURVE SMOOTH",
"315 1110 OFFCURVE",
"227 1053 OFFCURVE",
"180 958 CURVE",
"260 933 LINE",
"293 999 OFFCURVE",
"353 1027 OFFCURVE",
"418 1027 CURVE SMOOTH",
"525 1027 OFFCURVE",
"546 974 OFFCURVE",
"513 861 CURVE",
"552 904 LINE",
"465 892 OFFCURVE",
"351 880 OFFCURVE",
"272 860 CURVE SMOOTH",
"184 836 OFFCURVE",
"122 786 OFFCURVE",
"103 701 CURVE SMOOTH",
"84 614 OFFCURVE",
"131 540 OFFCURVE",
"252 540 CURVE SMOOTH"
);
},
{
closed = 1;
nodes = (
"204 615 OFFCURVE",
"183 657 OFFCURVE",
"193 702 CURVE SMOOTH",
"204 752 OFFCURVE",
"248 777 OFFCURVE",
"296 791 CURVE SMOOTH",
"360 808 OFFCURVE",
"449 816 OFFCURVE",
"540 829 CURVE",
"509 844 LINE",
"505 826 OFFCURVE",
"496 774 OFFCURVE",
"477 739 CURVE",
"449 672 OFFCURVE",
"377 615 OFFCURVE",
"281 615 CURVE SMOOTH"
);
}
);
width = 623;
}
);
unicode = 00AA;
},
{
glyphname = ordmasculine;
layers = (
{
layerId = "0AC95DCC-852B-4BE6-AF8C-4094AF10EB8A";
paths = (
{
closed = 1;
nodes = (
"503 540 OFFCURVE",
"641 657 OFFCURVE",
"678 825 CURVE SMOOTH",
"715 992 OFFCURVE",
"630 1110 OFFCURVE",
"467 1110 CURVE SMOOTH",
"307 1110 OFFCURVE",
"168 994 OFFCURVE",
"131 825 CURVE SMOOTH",
"94 658 OFFCURVE",
"178 540 OFFCURVE",
"341 540 CURVE SMOOTH"
);
},
{
closed = 1;
nodes = (
"284 667 OFFCURVE",
"253 728 OFFCURVE",
"275 825 CURVE SMOOTH",
"296 919 OFFCURVE",
"350 983 OFFCURVE",
"439 983 CURVE SMOOTH",
"525 983 OFFCURVE",
"555 921 OFFCURVE",
"534 825 CURVE SMOOTH",
"513 732 OFFCURVE",
"456 667 OFFCURVE",
"369 667 CURVE SMOOTH"
);
}
);
width = 707;
},
{
layerId = "E58920B2-55F1-4AE6-872B-62598678C0E3";
paths = (
{
closed = 1;
nodes = (
"489 540 OFFCURVE",
"614 656 OFFCURVE",
"652 826 CURVE SMOOTH",
"689 993 OFFCURVE",
"616 1110 OFFCURVE",
"454 1110 CURVE SMOOTH",
"296 1110 OFFCURVE",
"169 995 OFFCURVE",
"131 826 CURVE SMOOTH",
"94 658 OFFCURVE",
"167 540 OFFCURVE",
"328 540 CURVE SMOOTH"
);
},
{
closed = 1;
nodes = (
"238 625 OFFCURVE",
"199 704 OFFCURVE",
"226 826 CURVE SMOOTH",
"252 944 OFFCURVE",
"322 1026 OFFCURVE",
"435 1026 CURVE SMOOTH",
"546 1026 OFFCURVE",
"584 947 OFFCURVE",
"557 826 CURVE SMOOTH",
"531 707 OFFCURVE",
"459 625 OFFCURVE",
"347 625 CURVE SMOOTH"
);
}
);
width = 681;
}
);
unicode = 00BA;
},
{
glyphname = "Be-cy";
layers = (
{
layerId = "0AC95DCC-852B-4BE6-AF8C-4094AF10EB8A";
paths = (
{
closed = 1;
nodes = (
"616 0 LINE SMOOTH",
"663.54 0 OFFCURVE",
"689.707 1.149 OFFCURVE",
"737 6 CURVE SMOOTH",
"1016.447 34.381 OFFCURVE",
"1147.464 178.485 OFFCURVE",
"1209 456 CURVE SMOOTH",
"1264.323 705.496 OFFCURVE",
"1175.429 880.384 OFFCURVE",
"937 906 CURVE SMOOTH",
"890.51 911.026 OFFCURVE",
"864.759 912 OFFCURVE",
"818 912 CURVE SMOOTH",
"482 912 LINE",
"543 1186 LINE",
"1259 1186 LINE",
"1315 1440 LINE",
"327 1440 LINE",
"8 0 LINE"
);
},
{
closed = 1;
nodes = (
"426 658 LINE",
"750 658 LINE SMOOTH",
"785.535 658 OFFCURVE",
"805.295 657.712 OFFCURVE",
"840 650 CURVE SMOOTH",
"933.307 628.673 OFFCURVE",
"956.889 556.43 OFFCURVE",
"935 456 CURVE SMOOTH",
"910.774 344.847 OFFCURVE",
"864.246 285.008 OFFCURVE",
"754 262 CURVE SMOOTH",
"717.668 254.483 OFFCURVE",
"697.088 254 OFFCURVE",
"660 254 CURVE SMOOTH",
"336 254 LINE"
);
}
);
width = 1300;
},
{
layerId = "E58920B2-55F1-4AE6-872B-62598678C0E3";
paths = (
{
closed = 1;
nodes = (
"538 0 LINE SMOOTH",
"575.055 0 OFFCURVE",
"595.402 2.221 OFFCURVE",
"632 8 CURVE SMOOTH",
"889.136 46.271 OFFCURVE",
"1009.195 176.378 OFFCURVE",
"1066 432 CURVE SMOOTH",
"1116.848 660.815 OFFCURVE",
"1039.486 821.057 OFFCURVE",
"820 856 CURVE SMOOTH",
"785.014 861.998 OFFCURVE",
"765.499 864 OFFCURVE",
"730 864 CURVE SMOOTH",
"284 864 LINE",
"393 1356 LINE",
"1149 1356 LINE",
"1167 1440 LINE",
"327 1440 LINE",
"8 0 LINE"
);
},
{
closed = 1;
nodes = (
"265 780 LINE",
"711 780 LINE SMOOTH",
"744.948 780 OFFCURVE",
"763.669 778.451 OFFCURVE",
"797 772 CURVE SMOOTH",
"965.52 738.084 OFFCURVE",
"1015.735 610.809 OFFCURVE",
"976 432 CURVE SMOOTH",
"931.834 233.254 OFFCURVE",
"844.407 128.7 OFFCURVE",
"646 92 CURVE SMOOTH",
"611.453 85.719 OFFCURVE",
"592.114 84 OFFCURVE",
"557 84 CURVE SMOOTH",
"111 84 LINE"
);
}
);
width = 1162;
},
{
layerId = "A27E663E-A13B-4DBD-B069-4CF983ECD621";
name = Layer5;
width = 1200;
},
{
layerId = "6751CA47-F6ED-42D7-BE33-6F49EA595F73";
name = Layer4;
width = 1200;
},
{
layerId = "3F31DAF6-41B6-44B9-8019-106AE6FC3ECE";
name = Layer3;
width = 1200;
}
);
leftKerningGroup = N;
rightKerningGroup = P;
unicode = 0411;
},
{
glyphname = "Ge-cy";
layers = (
{
layerId = "A27E663E-A13B-4DBD-B069-4CF983ECD621";
name = Layer5;
width = 1164;
},
{
layerId = "6751CA47-F6ED-42D7-BE33-6F49EA595F73";
name = Layer4;
width = 976;
},
{
layerId = "3F31DAF6-41B6-44B9-8019-106AE6FC3ECE";
name = Layer3;
width = 1200;
},
{
layerId = "0AC95DCC-852B-4BE6-AF8C-4094AF10EB8A";
paths = (
{
closed = 1;
nodes = (
"280 0 LINE",
"543 1186 LINE",
"1211 1186 LINE",
"1267 1440 LINE",
"327 1440 LINE",
"8 0 LINE"
);
}
);
width = 1100;
},
{
layerId = "E58920B2-55F1-4AE6-872B-62598678C0E3";
paths = (
{
closed = 1;
nodes = (
"92 0 LINE",
"393 1356 LINE",
"1189 1356 LINE",
"1207 1440 LINE",
"327 1440 LINE",
"8 0 LINE"
);
}
);
width = 1040;
}
);
leftKerningGroup = B;
rightKerningGroup = T;
unicode = 0413;
},
{
glyphname = "Gheupturn-cy";
layers = (
{
layerId = "0AC95DCC-852B-4BE6-AF8C-4094AF10EB8A";
paths = (
{
closed = 1;
nodes = (
"280 0 LINE",
"543 1186 LINE",
"1231 1186 LINE",
"1340 1680 LINE",
"1068 1680 LINE",
"1015 1440 LINE",
"327 1440 LINE",
"8 0 LINE"
);
}
);
width = 1120;
},
{
layerId = "E58920B2-55F1-4AE6-872B-62598678C0E3";
paths = (
{
closed = 1;
nodes = (
"92 0 LINE",
"393 1356 LINE",
"1209 1356 LINE",
"1263 1600 LINE",
"1179 1600 LINE",
"1143 1440 LINE",
"327 1440 LINE",
"8 0 LINE"
);
}
);
width = 1060;
},
{
layerId = "A27E663E-A13B-4DBD-B069-4CF983ECD621";
name = Layer5;
width = 1164;
},
{
layerId = "6751CA47-F6ED-42D7-BE33-6F49EA595F73";
name = Layer4;
width = 976;
},
{
layerId = "3F31DAF6-41B6-44B9-8019-106AE6FC3ECE";
name = Layer3;
width = 1200;
}
);
leftKerningGroup = B;
rightKerningGroup = T;
unicode = 0490;
},
{
glyphname = "De-cy";
layers = (
{
layerId = "0AC95DCC-852B-4BE6-AF8C-4094AF10EB8A";
paths = (
{
closed = 1;
nodes = (
"147 -240 LINE",
"200 0 LINE",
"1030 0 LINE",
"977 -240 LINE",
"1249 -240 LINE",
"1358 254 LINE",
"1248 254 LINE",
"1511 1440 LINE",
"556 1442 LINE",
"471 1150 OFFCURVE",
"411 932 OFFCURVE",
"337 692 CURVE SMOOTH",
"260 440 OFFCURVE",
"158 254 OFFCURVE",
"-16 254 CURVE",
"-125 -240 LINE"
);
},
{
closed = 1;
nodes = (
"390 254 LINE",
"496 362 OFFCURVE",
"523 438 OFFCURVE",
"590 648 CURVE SMOOTH",
"656 858 OFFCURVE",
"689 990 OFFCURVE",
"747 1188 CURVE",
"1183 1186 LINE",
"976 254 LINE"
);
}
);
width = 1514;
},
{
layerId = "E58920B2-55F1-4AE6-872B-62598678C0E3";
paths = (
{
closed = 1;
nodes = (
"-21 -240 LINE",
"32 0 LINE",
"1160 0 LINE",
"1107 -240 LINE",
"1191 -240 LINE",
"1263 84 LINE",
"1163 84 LINE",
"1463 1440 LINE",
"609 1440 LINE",
"521 1112 OFFCURVE",
"464 886 OFFCURVE",
"371 608 CURVE SMOOTH",
"290 368 OFFCURVE",
"215 84 OFFCURVE",
"-33 84 CURVE",
"-105 -240 LINE"
);
},
{
closed = 1;
nodes = (
"185 84 LINE",
"299 156 OFFCURVE",
"368 324 OFFCURVE",
"445 564 CURVE SMOOTH",
"533 836 OFFCURVE",
"602 1090 OFFCURVE",
"673 1356 CURVE",
"1361 1356 LINE",
"1079 84 LINE"
);
}
);
width = 1456;
},
{
layerId = "A27E663E-A13B-4DBD-B069-4CF983ECD621";
name = Layer5;
width = 1254;
},
{
layerId = "6751CA47-F6ED-42D7-BE33-6F49EA595F73";
name = Layer4;
width = 1542;
},
{
layerId = "3F31DAF6-41B6-44B9-8019-106AE6FC3ECE";
name = Layer3;
width = 1200;
}
);
leftKerningGroup = A;
rightKerningGroup = N;
unicode = 0414;
},
{
glyphname = "Zhe-cy";
layers = (
{
layerId = "A27E663E-A13B-4DBD-B069-4CF983ECD621";
name = Layer5;
width = 1318;
},
{
layerId = "6751CA47-F6ED-42D7-BE33-6F49EA595F73";
name = Layer4;
width = 1936;
},
{
layerId = "3F31DAF6-41B6-44B9-8019-106AE6FC3ECE";
name = Layer3;
width = 1200;
},
{
layerId = "0AC95DCC-852B-4BE6-AF8C-4094AF10EB8A";
paths = (
{
closed = 1;
nodes = (
"222 0 LINE",
"797 636 LINE",
"656 0 LINE",
"928 0 LINE",
"1069 636 LINE",
"1362 0 LINE",
"1696 0 LINE",
"1348 730 LINE",
"1977 1440 LINE",
"1655 1440 LINE",
"1104 796 LINE",
"1247 1440 LINE",
"975 1440 LINE",
"832 796 LINE",
"567 1440 LINE",
"245 1440 LINE",
"560 730 LINE",
"-112 0 LINE"
);
}
);
width = 1848;
},
{
layerId = "E58920B2-55F1-4AE6-872B-62598678C0E3";
paths = (
{
closed = 1;
nodes = (
"4 0 LINE",
"867 752 LINE",
"700 0 LINE",
"784 0 LINE",
"951 752 LINE",
"1480 0 LINE",
"1596 0 LINE",
"1061 752 LINE",
"1851 1440 LINE",
"1735 1440 LINE",
"951 752 LINE",
"1103 1440 LINE",
"1019 1440 LINE",
"867 752 LINE",
"387 1440 LINE",
"271 1440 LINE",
"757 752 LINE",
"-112 0 LINE"
);
}
);
width = 1748;
}
);
leftKerningGroup = X;
rightKerningGroup = K;
unicode = 0416;
},
{
glyphname = "Ze-cy";
layers = (
{
layerId = "A27E663E-A13B-4DBD-B069-4CF983ECD621";
name = Layer5;
width = 1198;
},
{
layerId = "6751CA47-F6ED-42D7-BE33-6F49EA595F73";
name = Layer4;
width = 1188;
},
{
layerId = "3F31DAF6-41B6-44B9-8019-106AE6FC3ECE";
name = Layer3;
width = 1200;
},
{
layerId = "0AC95DCC-852B-4BE6-AF8C-4094AF10EB8A";
paths = (
{
closed = 1;
nodes = (
"900.437 -30 OFFCURVE",
"1139.394 80.728 OFFCURVE",
"1218 432 CURVE SMOOTH",
"1249.043 574.984 OFFCURVE",
"1225.085 674.458 OFFCURVE",
"1098 738 CURVE",
"1217.729 828.407 OFFCURVE",
"1263.075 905.381 OFFCURVE",
"1295 1052 CURVE SMOOTH",
"1353.887 1316.54 OFFCURVE",
"1177.667 1470 OFFCURVE",
"878 1470 CURVE SMOOTH",
"651.777 1470 OFFCURVE",
"524.736 1426.053 OFFCURVE",
"352 1280 CURVE",
"493 1080 LINE",
"590.688 1183.793 OFFCURVE",
"671.408 1216 OFFCURVE",
"814 1216 CURVE SMOOTH",
"948.12 1216 OFFCURVE",
"1030.681 1155.425 OFFCURVE",
"1005 1042 CURVE SMOOTH",
"973.772 902.677 OFFCURVE",
"870.444 874.357 OFFCURVE",
"720 868 CURVE SMOOTH",
"667.519 864.913 OFFCURVE",
"638.566 866 OFFCURVE",
"586 866 CURVE",
"529 610 LINE",
"591.379 610 OFFCURVE",
"625.65 607.82 OFFCURVE",
"688 606 CURVE SMOOTH",
"847.413 601.478 OFFCURVE",
"957.494 558.473 OFFCURVE",
"930 432 CURVE SMOOTH",
"893.503 266.972 OFFCURVE",
"773.931 226 OFFCURVE",
"596 226 CURVE SMOOTH",
"424.857 226 OFFCURVE",
"316.809 277.197 OFFCURVE",
"275 438 CURVE",
"10 278 LINE",
"93.662 34.907 OFFCURVE",
"262.967 -30 OFFCURVE",
"527 -30 CURVE SMOOTH"
);
}
);
width = 1334;
},
{
layerId = "E58920B2-55F1-4AE6-872B-62598678C0E3";
paths = (
{
closed = 1;
nodes = (
"751.995 -30 OFFCURVE",
"949.1 84.025 OFFCURVE",
"1017 392 CURVE SMOOTH",
"1056.159 569.147 OFFCURVE",
"1004.423 692.786 OFFCURVE",
"836 738 CURVE",
"1011.224 804.88 OFFCURVE",
"1083.435 900.39 OFFCURVE",
"1124 1084 CURVE SMOOTH",
"1177.068 1322.805 OFFCURVE",
"1031.701 1470 OFFCURVE",
"772 1470 CURVE SMOOTH",
"503.641 1470 OFFCURVE",
"362.517 1372.275 OFFCURVE",
"213 1148 CURVE",
"293 1114 LINE",
"422.849 1294.113 OFFCURVE",
"530.569 1386 OFFCURVE",
"751 1386 CURVE SMOOTH",
"958.229 1386 OFFCURVE",
"1076.092 1271.948 OFFCURVE",
"1034 1084 CURVE SMOOTH",
"987.373 870.497 OFFCURVE",
"852.54 792.207 OFFCURVE",
"629 782 CURVE SMOOTH",
"563.952 779.043 OFFCURVE",
"528.111 780 OFFCURVE",
"463 780 CURVE",
"444 696 LINE",
"508.762 696 OFFCURVE",
"544.297 692.641 OFFCURVE",
"609 690 CURVE SMOOTH",
"831.613 681.831 OFFCURVE",
"969.37 585.122 OFFCURVE",
"928 396 CURVE SMOOTH",
"872.463 146.085 OFFCURVE",
"712.246 54 OFFCURVE",
"450 54 CURVE SMOOTH",
"239.733 54 OFFCURVE",
"101.832 119.853 OFFCURVE",
"84 316 CURVE",
"-10 280 LINE",
"17.424 46.899 OFFCURVE",
"180.083 -30 OFFCURVE",
"429 -30 CURVE SMOOTH"
);
}
);
width = 1122;
}
);
leftKerningGroup = O;
rightKerningGroup = B;
unicode = 0417;
},
{
glyphname = "Iishort-cy";
layers = (
{
layerId = "A27E663E-A13B-4DBD-B069-4CF983ECD621";
name = Layer5;
width = 1240;
},
{
layerId = "3F31DAF6-41B6-44B9-8019-106AE6FC3ECE";
name = Layer3;
width = 1200;
},
{
layerId = "6751CA47-F6ED-42D7-BE33-6F49EA595F73";
name = Layer4;
width = 1450;
},
{
components = (
{
name = brevecomb;
transform = "{1, 0, 0, 1, 166, 0}";
alignment = -1;
}
);
layerId = "0AC95DCC-852B-4BE6-AF8C-4094AF10EB8A";
paths = (
{
closed = 1;
nodes = (
"284 0 LINE",
"1123 960 LINE",
"910 0 LINE",
"1186 0 LINE",
"1505 1440 LINE",
"1229 1440 LINE",
"390 480 LINE",
"603 1440 LINE",
"327 1440 LINE",
"8 0 LINE"
);
}
);
width = 1458;
},
{
components = (
{
name = brevecomb;
transform = "{1, 0, 0, 1, 214, 0}";
alignment = -1;
}
);
layerId = "E58920B2-55F1-4AE6-872B-62598678C0E3";
paths = (
{
closed = 1;
nodes = (
"92 0 LINE",
"1254 1292 LINE",
"968 0 LINE",
"1052 0 LINE",
"1371 1440 LINE",
"1287 1440 LINE",
"125 150 LINE",
"411 1440 LINE",
"327 1440 LINE",
"8 0 LINE"
);
}
);
width = 1324;
}
);
leftKerningGroup = N;
rightKerningGroup = N;
unicode = 0419;
},
{
glyphname = "Iigrave-cy";
layers = (
{
components = (
{
name = gravecomb;
transform = "{1, 0, 0, 1, 164, 0}";
alignment = -1;
}
);
layerId = "0AC95DCC-852B-4BE6-AF8C-4094AF10EB8A";
paths = (
{
closed = 1;
nodes = (
"284 0 LINE",
"1123 960 LINE",
"910 0 LINE",
"1186 0 LINE",
"1505 1440 LINE",
"1229 1440 LINE",
"390 480 LINE",
"603 1440 LINE",
"327 1440 LINE",
"8 0 LINE"
);
}
);
width = 1458;
},
{
components = (
{
name = gravecomb;
transform = "{1, 0, 0, 1, 191, 0}";
alignment = -1;
}
);
layerId = "E58920B2-55F1-4AE6-872B-62598678C0E3";
paths = (
{
closed = 1;
nodes = (
"92 0 LINE",
"1254 1292 LINE",
"968 0 LINE",
"1052 0 LINE",
"1371 1440 LINE",
"1287 1440 LINE",
"125 150 LINE",
"411 1440 LINE",
"327 1440 LINE",
"8 0 LINE"
);
}
);
width = 1324;
}
);
unicode = 040D;
},
{
glyphname = "Kje-cy";
layers = (
{
components = (
{
name = acutecomb;
transform = "{1, 0, 0, 1, 148, 0}";
alignment = -1;
}
);
layerId = "0AC95DCC-852B-4BE6-AF8C-4094AF10EB8A";
paths = (
{
closed = 1;
nodes = (
"280 0 LINE",
"425 656 LINE",
"854 0 LINE",
"1198 0 LINE",
"720 730 LINE",
"1479 1440 LINE",
"1147 1440 LINE",
"452 776 LINE",
"599 1440 LINE",
"327 1440 LINE",
"8 0 LINE"
);
}
);
width = 1330;
},
{
components = (
{
name = acutecomb;
transform = "{1, 0, 0, 1, 172, 0}";
alignment = -1;
}
);
layerId = "E58920B2-55F1-4AE6-872B-62598678C0E3";
paths = (
{
closed = 1;
nodes = (
"92 0 LINE",
"259 752 LINE",
"868 0 LINE",
"984 0 LINE",
"381 752 LINE",
"1239 1440 LINE",
"1123 1440 LINE",
"259 752 LINE",
"411 1440 LINE",
"327 1440 LINE",
"8 0 LINE"
);
}
);
width = 1116;
}
);
unicode = 040C;
},
{
glyphname = "El-cy";
layers = (
{
layerId = "A27E663E-A13B-4DBD-B069-4CF983ECD621";
name = Layer5;
width = 1222;
},
{
layerId = "6751CA47-F6ED-42D7-BE33-6F49EA595F73";
name = Layer4;
width = 1332;
},
{
layerId = "3F31DAF6-41B6-44B9-8019-106AE6FC3ECE";
name = Layer3;
width = 1200;
},
{
layerId = "0AC95DCC-852B-4BE6-AF8C-4094AF10EB8A";
paths = (
{
closed = 1;
nodes = (
"-92 0 LINE",
"208 -62 OFFCURVE",
"329 102 OFFCURVE",
"448 388 CURVE SMOOTH",
"573 682 OFFCURVE",
"676 1036 OFFCURVE",
"719 1186 CURVE",
"1179 1186 LINE",
"916 0 LINE",
"1188 0 LINE",
"1507 1440 LINE",
"525 1440 LINE",
"479 1266 OFFCURVE",
"358 820 OFFCURVE",
"220 488 CURVE SMOOTH",
"133 276 OFFCURVE",
"78 218 OFFCURVE",
"-42 226 CURVE"
);
}
);
width = 1460;
},
{
layerId = "E58920B2-55F1-4AE6-872B-62598678C0E3";
paths = (
{
closed = 1;
nodes = (
"-92 0 LINE",
"140 -72 OFFCURVE",
"228 146 OFFCURVE",
"316 388 CURVE SMOOTH",
"446 750 OFFCURVE",
"515 1016 OFFCURVE",
"613 1356 CURVE",
"1313 1356 LINE",
"1012 0 LINE",
"1096 0 LINE",
"1415 1440 LINE",
"543 1440 LINE",
"422 982 OFFCURVE",
"349 746 OFFCURVE",
"238 442 CURVE SMOOTH",
"116 108 OFFCURVE",
"83 66 OFFCURVE",
"-73 84 CURVE"
);
}
);
width = 1368;
}
);
leftKerningGroup = A;
rightKerningGroup = H;
unicode = 041B;
},
{
glyphname = "Pe-cy";
layers = (
{
layerId = "A27E663E-A13B-4DBD-B069-4CF983ECD621";
name = Layer5;
width = 1240;
},
{
layerId = "6751CA47-F6ED-42D7-BE33-6F49EA595F73";
name = Layer4;
width = 1450;
},
{
layerId = "3F31DAF6-41B6-44B9-8019-106AE6FC3ECE";
name = Layer3;
width = 1200;
},
{
layerId = "0AC95DCC-852B-4BE6-AF8C-4094AF10EB8A";
paths = (
{
closed = 1;
nodes = (
"280 0 LINE",
"543 1186 LINE",
"1187 1186 LINE",
"924 0 LINE",
"1196 0 LINE",
"1515 1440 LINE",
"327 1440 LINE",
"8 0 LINE"
);
}
);
width = 1468;
},
{
layerId = "E58920B2-55F1-4AE6-872B-62598678C0E3";
paths = (
{
closed = 1;
nodes = (
"92 0 LINE",
"393 1356 LINE",
"1285 1356 LINE",
"984 0 LINE",
"1068 0 LINE",
"1387 1440 LINE",
"327 1440 LINE",
"8 0 LINE"
);
}
);
width = 1340;
}
);
leftKerningGroup = H;
rightKerningGroup = H;
unicode = 041F;
},
{
glyphname = "U-cy";
layers = (
{
layerId = "A27E663E-A13B-4DBD-B069-4CF983ECD621";
name = Layer5;
width = 1180;
},
{
layerId = "6751CA47-F6ED-42D7-BE33-6F49EA595F73";
name = Layer4;
width = 1072;
},
{
layerId = "3F31DAF6-41B6-44B9-8019-106AE6FC3ECE";
name = Layer3;
width = 1200;
},
{
layerId = "0AC95DCC-852B-4BE6-AF8C-4094AF10EB8A";
paths = (
{
closed = 1;
nodes = (
"470 0 LINE",
"1469 1440 LINE",
"1179 1440 LINE",
"675 690 LINE",
"515 1440 LINE",
"207 1440 LINE",
"470 404 LINE",
"180 0 LINE"
);
}
);
width = 1282;
},
{
layerId = "E58920B2-55F1-4AE6-872B-62598678C0E3";
paths = (
{
closed = 1;
nodes = (
"382 0 LINE",
"1365 1440 LINE",
"1275 1440 LINE",
"564 404 LINE",
"317 1440 LINE",
"227 1440 LINE",
"499 310 LINE",
"286 0 LINE"
);
}
);
width = 1228;
}
);
leftKerningGroup = X;
rightKerningGroup = Y;
unicode = 0423;
},
{
glyphname = "Ef-cy";
layers = (
{
layerId = "A27E663E-A13B-4DBD-B069-4CF983ECD621";
name = Layer5;
width = 1274;
},
{
layerId = "6751CA47-F6ED-42D7-BE33-6F49EA595F73";
name = Layer4;
width = 1662;
},
{
layerId = "3F31DAF6-41B6-44B9-8019-106AE6FC3ECE";
name = Layer3;
width = 1200;
},
{
layerId = "0AC95DCC-852B-4BE6-AF8C-4094AF10EB8A";
paths = (
{
closed = 1;
nodes = (
"750 0 LINE",
"797 210 LINE",
"1176.926 143.112 OFFCURVE",
"1384.188 360.855 OFFCURVE",
"1472 760 CURVE SMOOTH",
"1553.592 1126.704 OFFCURVE",
"1372.828 1373.718 OFFCURVE",
"1043 1320 CURVE",
"1069 1440 LINE",
"799 1440 LINE",
"773 1320 LINE",
"390.575 1387.092 OFFCURVE",
"185.732 1163.291 OFFCURVE",
"96 760 CURVE SMOOTH",
"16.552 398.874 OFFCURVE",
"198.626 156.693 OFFCURVE",
"527 210 CURVE",
"480 0 LINE"
);
},
{
closed = 1;
nodes = (
"582 458 LINE",
"414.025 432.377 OFFCURVE",
"329.4 565.258 OFFCURVE",
"372 760 CURVE SMOOTH",
"420.895 977.311 OFFCURVE",
"516.67 1109.109 OFFCURVE",
"719 1076 CURVE"
);
},
{
closed = 1;
nodes = (
"989 1076 LINE",
"1160.896 1102.446 OFFCURVE",
"1240.633 959.425 OFFCURVE",
"1195 752 CURVE SMOOTH",
"1148 544.648 OFFCURVE",
"1047.91 425.648 OFFCURVE",
"852 458 CURVE"
);
}
);
width = 1496;
},
{
layerId = "E58920B2-55F1-4AE6-872B-62598678C0E3";
paths = (
{
closed = 1;
nodes = (
"471.989 0 LINE",
"511.989 182 LINE",
"916.635 111.01 OFFCURVE",
"1138.015 341.601 OFFCURVE",
"1231.989 766 CURVE SMOOTH",
"1316.975 1149.809 OFFCURVE",
"1121.52 1407.09 OFFCURVE",
"770.989 1350 CURVE",
"790.989 1440 LINE",
"706.989 1440 LINE",
"686.989 1350 LINE",
"282.755 1420.918 OFFCURVE",
"61.905 1190.135 OFFCURVE",
"-32.011 766 CURVE SMOOTH",
"-116.975 382.29 OFFCURVE",
"77.957 124.992 OFFCURVE",
"427.989 182 CURVE",
"387.989 0 LINE"
);
},
{
closed = 1;
nodes = (
"446.989 268 LINE",
"147.765 228.971 OFFCURVE",
"-13.714 445.222 OFFCURVE",
"57.989 766 CURVE SMOOTH",
"136.704 1122.84 OFFCURVE",
"322.969 1313.911 OFFCURVE",
"668.989 1266 CURVE"
);
},
{
closed = 1;
nodes = (
"752.989 1266 LINE",
"1052.242 1305.033 OFFCURVE",
"1213.035 1088.076 OFFCURVE",
"1141.989 766 CURVE SMOOTH",
"1062.468 410.25 OFFCURVE",
"876.359 220.18 OFFCURVE",
"530.989 268 CURVE"
);
}
);
width = 1384;
}
);
leftKerningGroup = O;
rightKerningGroup = O;
unicode = 0424;
},
{
glyphname = "Che-cy";
layers = (
{
layerId = "7447FE7B-D73D-4904-ADEA-265673B512E2";
name = public.background;
paths = (
{
closed = 1;
nodes = (
"1114 0 LINE",
"1114 1440 LINE",
"1030 1440 LINE",
"1030 626 LINE",
"1062 742 LINE",
"992 676 OFFCURVE",
"846 610 OFFCURVE",
"654 610 CURVE SMOOTH",
"536 610 OFFCURVE",
"418 634 OFFCURVE",
"330 730 CURVE SMOOTH",
"230 838 OFFCURVE",
"224 968 OFFCURVE",
"224 1172 CURVE SMOOTH",
"224 1440 LINE",
"140 1440 LINE",
"140 1172 LINE SMOOTH",
"140 976 OFFCURVE",
"132 812 OFFCURVE",
"260 670 CURVE SMOOTH",
"358 562 OFFCURVE",
"488 522 OFFCURVE",
"658 522 CURVE SMOOTH",
"842 522 OFFCURVE",
"972 570 OFFCURVE",
"1072 636 CURVE",
"1030 700 LINE",
"1030 0 LINE"
);
}
);
width = 1372;
},
{
layerId = "BD936841-78ED-4F7E-A3FC-D5A6245A6992";
name = Layer7;
width = 1216;
},
{
layerId = "63ADE33C-C0F2-45DC-8BA2-2E70B1572FB0";
name = Layer6;
width = 1302;
},
{
layerId = "A27E663E-A13B-4DBD-B069-4CF983ECD621";
name = Layer5;
width = 1200;
},
{
layerId = "0AC95DCC-852B-4BE6-AF8C-4094AF10EB8A";
paths = (
{
closed = 1;
nodes = (
"1100 0 LINE",
"1419 1440 LINE",
"1145 1440 LINE",
"985 718 LINE",
"1042 840 LINE",
"945.416 738.148 OFFCURVE",
"860.731 720 OFFCURVE",
"720 720 CURVE SMOOTH",
"529.562 720 OFFCURVE",
"479.803 884.043 OFFCURVE",
"530 1108 CURVE SMOOTH",
"603 1440 LINE",
"327 1440 LINE",
"235 1026 LINE SMOOTH",
"162.269 695.223 OFFCURVE",
"291.009 464 OFFCURVE",
"599 464 CURVE SMOOTH",
"761.408 464 OFFCURVE",
"859.054 468.54 OFFCURVE",
"989 566 CURVE",
"965 628 LINE",
"826 0 LINE"
);
}
);
width = 1372;
},
{
layerId = "E58920B2-55F1-4AE6-872B-62598678C0E3";
paths = (
{
closed = 1;
nodes = (
"982 0 LINE",
"1301 1440 LINE",
"1217 1440 LINE",
"1037 626 LINE",
"1094 742 LINE",
"949.22 628.244 OFFCURVE",
"841.167 610 OFFCURVE",
"657 610 CURVE SMOOTH",
"389.381 610 OFFCURVE",
"269.872 803.535 OFFCURVE",
"332 1084 CURVE SMOOTH",
"411 1440 LINE",
"327 1440 LINE",
"240 1048 LINE SMOOTH",
"170.339 731.927 OFFCURVE",
"329.593 522 OFFCURVE",
"648 522 CURVE SMOOTH",
"826.599 522 OFFCURVE",
"926.09 547.095 OFFCURVE",
"1081 636 CURVE",
"1053 700 LINE",
"898 0 LINE"
);
}
);
width = 1254;
}
);
leftKerningGroup = M;
rightKerningGroup = N;
unicode = 0427;
},
{
glyphname = "Tse-cy";
layers = (
{
layerId = "0AC95DCC-852B-4BE6-AF8C-4094AF10EB8A";
paths = (
{
closed = 1;
nodes = (
"1317 -240 LINE",
"1423 240 LINE",
"1261 240 LINE",
"1518 1400 LINE",
"1246 1400 LINE",
"989 240 LINE",
"333 240 LINE",
"599 1440 LINE",
"327 1440 LINE",
"8 0 LINE",
"1098 0 LINE",
"1045 -240 LINE"
);
}
);
width = 1522;
},
{
layerId = "E58920B2-55F1-4AE6-872B-62598678C0E3";
paths = (
{
closed = 1;
nodes = (
"1201 -160 LINE",
"1255 84 LINE",
"1107 84 LINE",
"1407 1440 LINE",
"1323 1440 LINE",
"1023 84 LINE",
"111 84 LINE",
"411 1440 LINE",
"327 1440 LINE",
"8 0 LINE",
"1152 0 LINE",
"1117 -160 LINE"
);
}
);
width = 1388;
},
{
layerId = "A27E663E-A13B-4DBD-B069-4CF983ECD621";
name = Layer5;
width = 1264;
},
{
layerId = "6751CA47-F6ED-42D7-BE33-6F49EA595F73";
name = Layer4;
width = 1606;
},
{
layerId = "3F31DAF6-41B6-44B9-8019-106AE6FC3ECE";
name = Layer3;
width = 1200;
}
);
leftKerningGroup = H;
rightKerningGroup = "tse-cy";
unicode = 0426;
},
{
glyphname = "Sha-cy";
layers = (
{
layerId = "A27E663E-A13B-4DBD-B069-4CF983ECD621";
name = Layer5;
width = 1312;
},
{
layerId = "6751CA47-F6ED-42D7-BE33-6F49EA595F73";
name = Layer4;
width = 1900;
},
{
layerId = "3F31DAF6-41B6-44B9-8019-106AE6FC3ECE";
name = Layer3;
width = 1200;
},
{
layerId = "0AC95DCC-852B-4BE6-AF8C-4094AF10EB8A";
paths = (
{
closed = 1;
nodes = (
"1648 0 LINE",
"1967 1440 LINE",
"1695 1440 LINE",
"1432 254 LINE",
"1020 254 LINE",
"1283 1440 LINE",
"1011 1440 LINE",
"748 254 LINE",
"336 254 LINE",
"599 1440 LINE",
"327 1440 LINE",
"8 0 LINE"
);
}
);
width = 1920;
},
{
layerId = "E58920B2-55F1-4AE6-872B-62598678C0E3";
paths = (
{
closed = 1;
nodes = (
"1488 0 LINE",
"1807 1440 LINE",
"1723 1440 LINE",
"1423 84 LINE",
"809 84 LINE",
"1109 1440 LINE",
"1025 1440 LINE",
"725 84 LINE",
"111 84 LINE",
"411 1440 LINE",
"327 1440 LINE",
"8 0 LINE"
);
}
);
width = 1760;
}
);
leftKerningGroup = H;
rightKerningGroup = H;
unicode = 0428;
},
{
glyphname = "Shcha-cy";
layers = (
{
layerId = "A27E663E-A13B-4DBD-B069-4CF983ECD621";
name = Layer5;
width = 1324;
},
{
layerId = "3F31DAF6-41B6-44B9-8019-106AE6FC3ECE";
name = Layer3;
width = 1200;
},
{
layerId = "6751CA47-F6ED-42D7-BE33-6F49EA595F73";
name = Layer4;
width = 1980;
},
{
components = (
{
name = "Sha-cy";
alignment = -1;
}
);
layerId = "0AC95DCC-852B-4BE6-AF8C-4094AF10EB8A";
paths = (
{
closed = 1;
nodes = (
"1757 -240 LINE",
"1863 240 LINE",
"1451 240 LINE",
"1398 0 LINE",
"1538 0 LINE",
"1485 -240 LINE"
);
}
);
width = 1962;
},
{
components = (
{
name = "Sha-cy";
alignment = -1;
}
);
layerId = "E58920B2-55F1-4AE6-872B-62598678C0E3";
paths = (
{
closed = 1;
nodes = (
"1601 -160 LINE",
"1655 84 LINE",
"1431 84 LINE",
"1412 0 LINE",
"1552 0 LINE",
"1517 -160 LINE"
);
}
);
width = 1788;
}
);
leftKerningGroup = H;
rightKerningGroup = "tse-cy";
unicode = 0429;
},
{
glyphname = "Dzhe-cy";
layers = (
{
layerId = "0AC95DCC-852B-4BE6-AF8C-4094AF10EB8A";
paths = (
{
closed = 1;
nodes = (
"731 -240 LINE",
"784 0 LINE",
"1288 0 LINE",
"1607 1440 LINE",
"1335 1440 LINE",
"1072 254 LINE",
"336 254 LINE",
"599 1440 LINE",
"327 1440 LINE",
"8 0 LINE",
"512 0 LINE",
"459 -240 LINE"
);
}
);
width = 1560;
},
{
layerId = "E58920B2-55F1-4AE6-872B-62598678C0E3";
paths = (
{
closed = 1;
nodes = (
"567 -240 LINE",
"620 0 LINE",
"1148 0 LINE",
"1467 1440 LINE",
"1383 1440 LINE",
"1083 84 LINE",
"111 84 LINE",
"411 1440 LINE",
"327 1440 LINE",
"8 0 LINE",
"536 0 LINE",
"483 -240 LINE"
);
}
);
width = 1420;
},
{
layerId = "A27E663E-A13B-4DBD-B069-4CF983ECD621";
name = Layer5;
width = 1252;
},
{
layerId = "6751CA47-F6ED-42D7-BE33-6F49EA595F73";
name = Layer4;
width = 1526;
},
{
layerId = "3F31DAF6-41B6-44B9-8019-106AE6FC3ECE";
name = Layer3;
width = 1200;
}
);
leftKerningGroup = "Sha-cy";
rightKerningGroup = "Sha-cy";
unicode = 040F;
},
{
glyphname = "Softsign-cy";
layers = (
{
layerId = "A27E663E-A13B-4DBD-B069-4CF983ECD621";
name = Layer5;
width = 1196;
},
{
layerId = "6751CA47-F6ED-42D7-BE33-6F49EA595F73";
name = Layer4;
width = 1176;
},
{
layerId = "3F31DAF6-41B6-44B9-8019-106AE6FC3ECE";
name = Layer3;
width = 1200;
},
{
layerId = "0AC95DCC-852B-4BE6-AF8C-4094AF10EB8A";
paths = (
{
closed = 1;
nodes = (
"614 0 LINE SMOOTH",
"662.01 0 OFFCURVE",
"688.514 0.877 OFFCURVE",
"736 8 CURVE SMOOTH",
"1018.661 50.346 OFFCURVE",
"1149.245 194.763 OFFCURVE",
"1212 476 CURVE SMOOTH",
"1267.227 728.167 OFFCURVE",
"1184.006 904.971 OFFCURVE",
"943 944 CURVE SMOOTH",
"897.164 951.639 OFFCURVE",
"871.456 952 OFFCURVE",
"825 952 CURVE SMOOTH",
"489 952 LINE",
"597 1440 LINE",
"325 1440 LINE",
"6 0 LINE"
);
},
{
closed = 1;
nodes = (
"433 698 LINE",
"757 698 LINE SMOOTH",
"792.69 698 OFFCURVE",
"812.75 698.148 OFFCURVE",
"847 688 CURVE SMOOTH",
"943.933 659.767 OFFCURVE",
"961.161 582.27 OFFCURVE",
"938 476 CURVE SMOOTH",
"911.076 359.328 OFFCURVE",
"867.597 293.637 OFFCURVE",
"753 264 CURVE SMOOTH",
"716.632 254.302 OFFCURVE",
"695.614 254 OFFCURVE",
"658 254 CURVE SMOOTH",
"334 254 LINE"
);
}
);
width = 1318;
},
{
layerId = "E58920B2-55F1-4AE6-872B-62598678C0E3";
paths = (
{
closed = 1;
nodes = (
"538 0 LINE SMOOTH",
"575.055 0 OFFCURVE",
"595.402 2.221 OFFCURVE",
"632 8 CURVE SMOOTH",
"889.136 46.271 OFFCURVE",
"1009.195 176.378 OFFCURVE",
"1066 432 CURVE SMOOTH",
"1116.848 660.815 OFFCURVE",
"1039.486 821.057 OFFCURVE",
"820 856 CURVE SMOOTH",
"785.014 861.998 OFFCURVE",
"765.499 864 OFFCURVE",
"730 864 CURVE SMOOTH",
"284 864 LINE",
"411 1440 LINE",
"327 1440 LINE",
"8 0 LINE"
);
},
{
closed = 1;
nodes = (
"265 780 LINE",
"711 780 LINE SMOOTH",
"744.948 780 OFFCURVE",
"763.669 778.451 OFFCURVE",
"797 772 CURVE SMOOTH",
"965.52 738.084 OFFCURVE",
"1015.735 610.809 OFFCURVE",
"976 432 CURVE SMOOTH",
"931.834 233.254 OFFCURVE",
"844.407 128.7 OFFCURVE",
"646 92 CURVE SMOOTH",
"611.453 85.719 OFFCURVE",
"592.114 84 OFFCURVE",
"557 84 CURVE SMOOTH",
"111 84 LINE"
);
}
);
width = 1182;
}
);
leftKerningGroup = H;
rightKerningGroup = B;
unicode = 042C;
},
{
glyphname = "Hardsign-cy";
layers = (
{
layerId = "0AC95DCC-852B-4BE6-AF8C-4094AF10EB8A";
paths = (
{
closed = 1;
nodes = (
"676 0 LINE SMOOTH",
"724.01 0 OFFCURVE",
"750.514 0.877 OFFCURVE",
"798 8 CURVE SMOOTH",
"1080.661 50.346 OFFCURVE",
"1211.245 194.763 OFFCURVE",
"1274 476 CURVE SMOOTH",
"1329.227 728.167 OFFCURVE",
"1246.006 904.971 OFFCURVE",
"1005 944 CURVE SMOOTH",
"959.164 951.639 OFFCURVE",
"933.456 952 OFFCURVE",
"887 952 CURVE SMOOTH",
"551 952 LINE",
"659 1440 LINE",
"187 1440 LINE",
"141 1230 LINE",
"341 1230 LINE",
"68 0 LINE"
);
},
{
closed = 1;
nodes = (
"495 698 LINE",
"819 698 LINE SMOOTH",
"854.69 698 OFFCURVE",
"874.75 698.148 OFFCURVE",
"909 688 CURVE SMOOTH",
"1005.933 659.767 OFFCURVE",
"1023.161 582.27 OFFCURVE",
"1000 476 CURVE SMOOTH",
"973.076 359.328 OFFCURVE",
"929.597 293.637 OFFCURVE",
"815 264 CURVE SMOOTH",
"778.632 254.302 OFFCURVE",
"757.614 254 OFFCURVE",
"720 254 CURVE SMOOTH",
"396 254 LINE"
);
}
);
width = 1344;
},
{
layerId = "E58920B2-55F1-4AE6-872B-62598678C0E3";
paths = (
{
closed = 1;
nodes = (
"558 0 LINE SMOOTH",
"595.055 0 OFFCURVE",
"615.402 2.221 OFFCURVE",
"652 8 CURVE SMOOTH",
"909.136 46.271 OFFCURVE",
"1029.195 176.378 OFFCURVE",
"1086 432 CURVE SMOOTH",
"1136.848 660.815 OFFCURVE",
"1059.486 821.057 OFFCURVE",
"840 856 CURVE SMOOTH",
"805.014 861.998 OFFCURVE",
"785.499 864 OFFCURVE",
"750 864 CURVE SMOOTH",
"304 864 LINE",
"431 1440 LINE",
"167 1440 LINE",
"149 1356 LINE",
"329 1356 LINE",
"28 0 LINE"
);
},
{
closed = 1;
nodes = (
"285 780 LINE",
"731 780 LINE SMOOTH",
"764.948 780 OFFCURVE",
"783.669 778.451 OFFCURVE",
"817 772 CURVE SMOOTH",
"985.52 738.084 OFFCURVE",
"1035.735 610.809 OFFCURVE",
"996 432 CURVE SMOOTH",
"951.834 233.254 OFFCURVE",
"864.407 128.7 OFFCURVE",
"666 92 CURVE SMOOTH",
"631.453 85.719 OFFCURVE",
"612.114 84 OFFCURVE",
"577 84 CURVE SMOOTH",
"131 84 LINE"
);
}
);
width = 1182;
},
{
layerId = "A27E663E-A13B-4DBD-B069-4CF983ECD621";
name = Layer5;
width = 1190;
},
{
layerId = "6751CA47-F6ED-42D7-BE33-6F49EA595F73";
name = Layer4;
width = 1138;
},
{
layerId = "3F31DAF6-41B6-44B9-8019-106AE6FC3ECE";
name = Layer3;
width = 1200;
}
);
leftKerningGroup = T;
rightKerningGroup = B;
unicode = 042A;
},
{
glyphname = "Nje-cy";
layers = (
{
layerId = "A27E663E-A13B-4DBD-B069-4CF983ECD621";
name = Layer5;
width = 1372;
},
{
layerId = "3F31DAF6-41B6-44B9-8019-106AE6FC3ECE";
name = Layer3;
width = 1200;
},
{
layerId = "6751CA47-F6ED-42D7-BE33-6F49EA595F73";
name = Layer4;
width = 2276;
},
{
components = (
{
name = "Softsign-cy";
transform = "{1, 0, 0, 1, 916, 0}";
alignment = -1;
}
);
layerId = "0AC95DCC-852B-4BE6-AF8C-4094AF10EB8A";
paths = (
{
closed = 1;
nodes = (
"280 0 LINE",
"434 696 LINE",
"1202 696 LINE",
"1259 950 LINE",
"491 950 LINE",
"599 1440 LINE",
"327 1440 LINE",
"8 0 LINE"
);
}
);
width = 2234;
},
{
components = (
{
name = "Softsign-cy";
transform = "{1, 0, 0, 1, 876, 0}";
alignment = -1;
}
);
layerId = "E58920B2-55F1-4AE6-872B-62598678C0E3";
paths = (
{
closed = 1;
nodes = (
"92 0 LINE",
"265 780 LINE",
"1113 780 LINE",
"1132 864 LINE",
"284 864 LINE",
"411 1440 LINE",
"327 1440 LINE",
"8 0 LINE"
);
}
);
width = 2058;
}
);
leftKerningGroup = "En-cy";
rightKerningGroup = "Softsign-cy";
unicode = 040A;
},
{
glyphname = "Ereversed-cy";
layers = (
{
layerId = "A27E663E-A13B-4DBD-B069-4CF983ECD621";
name = Layer5;
width = 1226;
},
{
layerId = "3F31DAF6-41B6-44B9-8019-106AE6FC3ECE";
name = Layer3;
width = 1200;
},
{
layerId = "6751CA47-F6ED-42D7-BE33-6F49EA595F73";
name = Layer4;
width = 1366;
},
{
layerId = "0AC95DCC-852B-4BE6-AF8C-4094AF10EB8A";
paths = (
{
closed = 1;
nodes = (
"1064.49 -30 OFFCURVE",
"1309.024 227.848 OFFCURVE",
"1418 720 CURVE SMOOTH",
"1515.534 1163.877 OFFCURVE",
"1327.044 1470 OFFCURVE",
"904 1470 CURVE SMOOTH",
"517.84 1470 OFFCURVE",
"303.255 1328.155 OFFCURVE",
"144 976 CURVE",
"408 938 LINE",
"505.234 1127.892 OFFCURVE",
"616.838 1211.643 OFFCURVE",
"829 1214 CURVE SMOOTH",
"1053.327 1217.918 OFFCURVE",
"1165.666 1079.268 OFFCURVE",
"1152 848 CURVE",
"646 848 LINE",
"590 594 LINE",
"1094 594 LINE",
"1058.134 495.967 OFFCURVE",
"1029.845 443.845 OFFCURVE",
"956 370 CURVE",
"850.82 259.041 OFFCURVE",
"763.016 228.448 OFFCURVE",
"610 226 CURVE SMOOTH",
"430.322 223.958 OFFCURVE",
"330.374 311.629 OFFCURVE",
"313 490 CURVE",
"32 424 LINE",
"56.591 110.463 OFFCURVE",
"247.819 -30 OFFCURVE",
"571 -30 CURVE SMOOTH"
);
}
);
width = 1450;
},
{
layerId = "E58920B2-55F1-4AE6-872B-62598678C0E3";
paths = (
{
closed = 1;
nodes = (
"1022.268 -30 OFFCURVE",
"1255.804 233.227 OFFCURVE",
"1352 720 CURVE SMOOTH",
"1439.44 1162.111 OFFCURVE",
"1277.457 1470 OFFCURVE",
"872 1470 CURVE SMOOTH",
"496.952 1470 OFFCURVE",
"298.673 1316.004 OFFCURVE",
"143 972 CURVE",
"228 958 LINE",
"356.922 1253.959 OFFCURVE",
"531.137 1379.418 OFFCURVE",
"853 1384 CURVE SMOOTH",
"1195.393 1387.858 OFFCURVE",
"1338.955 1133.214 OFFCURVE",
"1271 762 CURVE",
"731 762 LINE",
"712 678 LINE",
"1252 678 LINE",
"1206.098 489.431 OFFCURVE",
"1160.215 387.313 OFFCURVE",
"1025 248 CURVE SMOOTH",
"881.436 100.018 OFFCURVE",
"764.283 56.399 OFFCURVE",
"558 54 CURVE SMOOTH",
"287.309 49.787 OFFCURVE",
"136.675 186.708 OFFCURVE",
"123 456 CURVE",
"34 432 LINE",
"38.332 122.294 OFFCURVE",
"221.466 -30 OFFCURVE",
"539 -30 CURVE SMOOTH"
);
}
);
width = 1384;
}
);
leftKerningGroup = X;
rightKerningGroup = O;
unicode = 042D;
},
{
glyphname = "Tshe-cy";
layers = (
{
layerId = "A27E663E-A13B-4DBD-B069-4CF983ECD621";
name = Layer5;
width = 1216;
},
{
layerId = "3F31DAF6-41B6-44B9-8019-106AE6FC3ECE";
name = Layer3;
width = 1200;
},
{
layerId = "6751CA47-F6ED-42D7-BE33-6F49EA595F73";
name = Layer4;
width = 1302;
},
{
components = (
{
name = "Shha-cy";
alignment = -1;
}
);
layerId = "0AC95DCC-852B-4BE6-AF8C-4094AF10EB8A";
paths = (
{
closed = 1;
nodes = (
"854 1200 LINE",
"907 1440 LINE",
"187 1440 LINE",
"134 1200 LINE"
);
}
);
width = 1372;
},
{
components = (
{
name = "Shha-cy";
alignment = -1;
}
);
layerId = "E58920B2-55F1-4AE6-872B-62598678C0E3";
paths = (
{
closed = 1;
nodes = (
"709 1356 LINE",
"727 1440 LINE",
"187 1440 LINE",
"169 1356 LINE"
);
}
);
width = 1254;
}
);
leftKerningGroup = V;
rightKerningGroup = B;
unicode = 040B;
},
{
glyphname = "Iu-cy";
layers = (
{
layerId = "A27E663E-A13B-4DBD-B069-4CF983ECD621";
name = Layer5;
width = 1354;
},
{
layerId = "3F31DAF6-41B6-44B9-8019-106AE6FC3ECE";
name = Layer3;
width = 1200;
},
{
layerId = "6751CA47-F6ED-42D7-BE33-6F49EA595F73";
name = Layer4;
width = 2168;
},
{
components = (
{
name = "Oval-condensed";
transform = "{1, 0, 0, 1, 560, 0}";
alignment = -1;
}
);
layerId = "0AC95DCC-852B-4BE6-AF8C-4094AF10EB8A";
paths = (
{
closed = 1;
nodes = (
"280 0 LINE",
"409 584 LINE",
"649 584 LINE",
"710 856 LINE",
"470 856 LINE",
"599 1440 LINE",
"327 1440 LINE",
"8 0 LINE"
);
}
);
width = 1912;
},
{
components = (
{
name = "Oval-condensed";
transform = "{1, 0, 0, 1, 560, 0}";
alignment = -1;
}
);
layerId = "E58920B2-55F1-4AE6-872B-62598678C0E3";
paths = (
{
closed = 1;
nodes = (
"92 0 LINE",
"242 678 LINE",
"710 678 LINE",
"729 762 LINE",
"261 762 LINE",
"411 1440 LINE",
"327 1440 LINE",
"8 0 LINE"
);
}
);
width = 1796;
}
);
leftKerningGroup = H;
rightKerningGroup = O;
unicode = 042E;
},
{
glyphname = "Dje-cy";
layers = (
{
layerId = "0AC95DCC-852B-4BE6-AF8C-4094AF10EB8A";
paths = (
{
closed = 1;
nodes = (
"302 0 LINE",
"417 518 LINE SMOOTH",
"431.813 584.657 OFFCURVE",
"440.276 622.006 OFFCURVE",
"473 682 CURVE SMOOTH",
"543.532 814.767 OFFCURVE",
"637.851 848 OFFCURVE",
"790 848 CURVE SMOOTH",
"962.653 848 OFFCURVE",
"1046.176 730.291 OFFCURVE",
"1007 556 CURVE SMOOTH",
"965.649 368.04 OFFCURVE",
"865.456 276 OFFCURVE",
"675 276 CURVE",
"614 0 LINE",
"996.65 0 OFFCURVE",
"1200.314 181.412 OFFCURVE",
"1284 558 CURVE SMOOTH",
"1356.937 886.215 OFFCURVE",
"1207.534 1110 OFFCURVE",
"888 1110 CURVE SMOOTH",
"719.486 1110 OFFCURVE",
"623.287 1087.118 OFFCURVE",
"487 988 CURVE",
"534 1200 LINE",
"854 1200 LINE",
"907 1440 LINE",
"187 1440 LINE",
"134 1200 LINE",
"294 1200 LINE",
"28 0 LINE"
);
}
);
width = 1372;
},
{
layerId = "E58920B2-55F1-4AE6-872B-62598678C0E3";
paths = (
{
closed = 1;
nodes = (
"92 0 LINE",
"198 476 LINE SMOOTH",
"217 566 OFFCURVE",
"240 668 OFFCURVE",
"286 760 CURVE SMOOTH",
"382 948 OFFCURVE",
"541 1026 OFFCURVE",
"755 1026 CURVE SMOOTH",
"1039 1026 OFFCURVE",
"1153 890 OFFCURVE",
"1085 582 CURVE SMOOTH",
"1014 262 OFFCURVE",
"825 84 OFFCURVE",
"573 84 CURVE",
"554 0 LINE",
"882 0 OFFCURVE",
"1091 232 OFFCURVE",
"1166 568 CURVE SMOOTH",
"1247 934 OFFCURVE",
"1100 1110 OFFCURVE",
"774 1110 CURVE SMOOTH",
"574 1110 OFFCURVE",
"399 1044 OFFCURVE",
"285 898 CURVE",
"387 1356 LINE",
"709 1356 LINE",
"727 1440 LINE",
"187 1440 LINE",
"169 1356 LINE",
"309 1356 LINE",
"8 0 LINE"
);
}
);
width = 1252;
},
{
layerId = "A27E663E-A13B-4DBD-B069-4CF983ECD621";
name = Layer5;
width = 1190;
},
{
layerId = "6751CA47-F6ED-42D7-BE33-6F49EA595F73";
name = Layer4;
width = 1136;
},
{
layerId = "3F31DAF6-41B6-44B9-8019-106AE6FC3ECE";
name = Layer3;
width = 1200;
}
);
leftKerningGroup = T;
rightKerningGroup = b;
unicode = 0402;
},
{
glyphname = "Obarred-cy";
layers = (
{
layerId = "A27E663E-A13B-4DBD-B069-4CF983ECD621";
name = Layer5;
width = 1244;
},
{
layerId = "3F31DAF6-41B6-44B9-8019-106AE6FC3ECE";
name = Layer3;
width = 1200;
},
{
layerId = "6751CA47-F6ED-42D7-BE33-6F49EA595F73";
name = Layer4;
width = 1476;
},
{
components = (
{
name = O;
alignment = -1;
}
);
layerId = "0AC95DCC-852B-4BE6-AF8C-4094AF10EB8A";
paths = (
{
closed = 1;
nodes = (
"1247 584 LINE",
"1308 856 LINE",
"348 856 LINE",
"287 584 LINE"
);
}
);
width = 1556;
},
{
components = (
{
name = O;
alignment = -1;
}
);
layerId = "E58920B2-55F1-4AE6-872B-62598678C0E3";
paths = (
{
closed = 1;
nodes = (
"1328 678 LINE",
"1347 762 LINE",
"167 762 LINE",
"148 678 LINE"
);
}
);
width = 1452;
}
);
leftKerningGroup = O;
rightKerningGroup = O;
unicode = 04E8;
},
{
glyphname = "De-cy.loclBGR";
layers = (
{
components = (
{
name = V;
transform = "{1, 0, -0.443, -1, 433, 1440}";
alignment = -1;
}
);
layerId = "0AC95DCC-852B-4BE6-AF8C-4094AF10EB8A";
paths = (
{
closed = 1;
nodes = (
"162 -180 LINE",
"202 0 LINE",
"1066 0 LINE",
"1026 -180 LINE",
"1282 -180 LINE",
"1378 254 LINE",
"4 254 LINE",
"-92 -180 LINE"
);
}
);
width = 1554;
},
{
components = (
{
name = V;
transform = "{1, 0, -0.443, -1, 447, 1440}";
alignment = -1;
}
);
layerId = "E58920B2-55F1-4AE6-872B-62598678C0E3";
paths = (
{
closed = 1;
nodes = (
"-23 -160 LINE",
"12 0 LINE",
"1136 0 LINE",
"1101 -160 LINE",
"1185 -160 LINE",
"1239 84 LINE",
"-53 84 LINE",
"-107 -160 LINE"
);
}
);
width = 1412;
}
);
leftKerningGroup = de;
rightKerningGroup = N;
},
{
glyphname = "be-cy";
layers = (
{
layerId = "A27E663E-A13B-4DBD-B069-4CF983ECD621";
name = Layer5;
width = 1196;
},
{
layerId = "6751CA47-F6ED-42D7-BE33-6F49EA595F73";
name = Layer4;
width = 1170;
},
{
layerId = "3F31DAF6-41B6-44B9-8019-106AE6FC3ECE";
name = Layer3;
width = 1200;
},
{
layerId = "0AC95DCC-852B-4BE6-AF8C-4094AF10EB8A";
paths = (
{
closed = 1;
nodes = (
"765 -36 OFFCURVE",
"1035 180 OFFCURVE",
"1105 498 CURVE SMOOTH",
"1167 778 OFFCURVE",
"1046 1006 OFFCURVE",
"760 1006 CURVE SMOOTH",
"644 1006 OFFCURVE",
"506 968 OFFCURVE",
"397 848 CURVE",
"428 952 OFFCURVE",
"501 1064 OFFCURVE",
"606 1122 CURVE SMOOTH",
"761 1208 OFFCURVE",
"1017 1190 OFFCURVE",
"1178 1230 CURVE",
"1207 1470 LINE",
"944 1422 OFFCURVE",
"708 1430 OFFCURVE",
"502 1304 CURVE SMOOTH",
"414 1250 OFFCURVE",
"325 1172 OFFCURVE",
"262 1080 CURVE SMOOTH",
"164 932 OFFCURVE",
"86 672 OFFCURVE",
"64 502 CURVE SMOOTH",
"24 186 OFFCURVE",
"145 -28 OFFCURVE",
"456 -32 CURVE SMOOTH"
);
},
{
closed = 1;
nodes = (
"374 222 OFFCURVE",
"311 316 OFFCURVE",
"349 486 CURVE SMOOTH",
"385 650 OFFCURVE",
"487 750 OFFCURVE",
"641 750 CURVE SMOOTH",
"791 750 OFFCURVE",
"853 650 OFFCURVE",
"817 486 CURVE SMOOTH",
"781 326 OFFCURVE",
"678 222 OFFCURVE",
"524 222 CURVE SMOOTH"
);
}
);
width = 1207;
},
{
layerId = "E58920B2-55F1-4AE6-872B-62598678C0E3";
paths = (
{
closed = 1;
nodes = (
"781.2 -30 OFFCURVE",
"966.208 147.436 OFFCURVE",
"1045 502 CURVE SMOOTH",
"1115.303 818.365 OFFCURVE",
"985.018 1038 OFFCURVE",
"686 1038 CURVE SMOOTH",
"475.935 1038 OFFCURVE",
"356.929 985.681 OFFCURVE",
"223 824 CURVE",
"283.18 1025.258 OFFCURVE",
"324.359 1151.337 OFFCURVE",
"509 1250 CURVE",
"727.347 1372.902 OFFCURVE",
"877.706 1349.789 OFFCURVE",
"1124 1390 CURVE",
"1130 1470 LINE",
"874.018 1419.399 OFFCURVE",
"713.473 1458.703 OFFCURVE",
"486 1328 CURVE SMOOTH",
"362.731 1260.323 OFFCURVE",
"308.832 1198.77 OFFCURVE",
"244 1074 CURVE SMOOTH",
"149.881 889.603 OFFCURVE",
"120.008 778.201 OFFCURVE",
"76 576 CURVE SMOOTH",
"-2.655 222.891 OFFCURVE",
"108.574 -30 OFFCURVE",
"423 -30 CURVE SMOOTH"
);
},
{
closed = 1;
nodes = (
"200.818 54 OFFCURVE",
"91.275 238.294 OFFCURVE",
"150 504 CURVE SMOOTH",
"214.313 797.097 OFFCURVE",
"356.281 954 OFFCURVE",
"649 954 CURVE SMOOTH",
"902.186 954 OFFCURVE",
"1014.414 770.213 OFFCURVE",
"956 504 CURVE SMOOTH",
"890.075 210.038 OFFCURVE",
"746.291 54 OFFCURVE",
"452 54 CURVE SMOOTH"
);
}
);
width = 1146;
}
);
leftKerningGroup = "be-cy";
rightKerningGroup = o;
unicode = 0431;
},
{
glyphname = "ve-cy";
layers = (
{
layerId = "0AC95DCC-852B-4BE6-AF8C-4094AF10EB8A";
paths = (
{
closed = 1;
nodes = (
"546 0 LINE SMOOTH",
"621.246 0 OFFCURVE",
"663.383 0.066 OFFCURVE",
"736 20 CURVE SMOOTH",
"899.104 63.786 OFFCURVE",
"974.328 144.975 OFFCURVE",
"1011 310 CURVE SMOOTH",
"1034.027 416.399 OFFCURVE",
"1020.949 491.748 OFFCURVE",
"927 538 CURVE SMOOTH",
"900.771 551.114 OFFCURVE",
"884.948 555.368 OFFCURVE",
"856 560 CURVE",
"889.702 568.088 OFFCURVE",
"906.862 577.268 OFFCURVE",
"936 596 CURVE SMOOTH",
"1014.093 646.297 OFFCURVE",
"1042.131 695.171 OFFCURVE",
"1062 786 CURVE SMOOTH",
"1092.153 921.69 OFFCURVE",
"1054.907 1015.833 OFFCURVE",
"927 1058 CURVE SMOOTH",
"860.242 1079.081 OFFCURVE",
"820.952 1080 OFFCURVE",
"751 1080 CURVE SMOOTH",
"245 1080 LINE",
"6 0 LINE"
);
},
{
closed = 1;
nodes = (
"378 434 LINE",
"622 434 LINE SMOOTH",
"652.592 434 OFFCURVE",
"670.578 435.711 OFFCURVE",
"698 422 CURVE",
"738.515 400.184 OFFCURVE",
"745.691 368.055 OFFCURVE",
"735 322 CURVE",
"724.65 270.248 OFFCURVE",
"707.921 240.637 OFFCURVE",
"659 222 CURVE SMOOTH",
"626.347 209.441 OFFCURVE",
"606.983 206 OFFCURVE",
"572 206 CURVE SMOOTH",
"328 206 LINE"
);
},
{
closed = 1;
nodes = (
"475 870 LINE",
"641 870 LINE SMOOTH",
"679.134 870 OFFCURVE",
"701.013 872.853 OFFCURVE",
"737 860 CURVE SMOOTH",
"781.844 844.687 OFFCURVE",
"786.856 807.938 OFFCURVE",
"776 758 CURVE SMOOTH",
"764.662 708.114 OFFCURVE",
"748.863 679.732 OFFCURVE",
"702 660 CURVE SMOOTH",
"661.088 642.466 OFFCURVE",
"635.432 644 OFFCURVE",
"591 644 CURVE SMOOTH",
"425 644 LINE"
);
}
);
width = 1134;
},
{
layerId = "E58920B2-55F1-4AE6-872B-62598678C0E3";
paths = (
{
closed = 1;
nodes = (
"492 0 LINE SMOOTH",
"538 0 OFFCURVE",
"604 0 OFFCURVE",
"664 16 CURVE SMOOTH",
"778 46 OFFCURVE",
"878 136 OFFCURVE",
"911 286 CURVE SMOOTH",
"933 382 OFFCURVE",
"919 466 OFFCURVE",
"853 518 CURVE SMOOTH",
"832 534 OFFCURVE",
"811 546 OFFCURVE",
"794 550 CURVE",
"819 562 OFFCURVE",
"849 582 OFFCURVE",
"872 606 CURVE",
"921 654 OFFCURVE",
"955 716 OFFCURVE",
"970 784 CURVE SMOOTH",
"998 912 OFFCURVE",
"952 1028 OFFCURVE",
"827 1062 CURVE SMOOTH",
"767 1078 OFFCURVE",
"689 1080 OFFCURVE",
"661 1080 CURVE SMOOTH",
"247 1080 LINE",
"8 0 LINE"
);
},
{
closed = 1;
nodes = (
"202 498 LINE",
"570 498 LINE SMOOTH",
"600 498 OFFCURVE",
"638 498 OFFCURVE",
"670 494 CURVE SMOOTH",
"788 480 OFFCURVE",
"847 400 OFFCURVE",
"821 286 CURVE SMOOTH",
"802 198 OFFCURVE",
"740 118 OFFCURVE",
"635 96 CURVE SMOOTH",
"596 88 OFFCURVE",
"539 84 OFFCURVE",
"511 84 CURVE SMOOTH",
"111 84 LINE"
);
},
{
closed = 1;
nodes = (
"313 996 LINE",
"653 996 LINE SMOOTH",
"669 996 OFFCURVE",
"741 996 OFFCURVE",
"794 976 CURVE SMOOTH",
"870 948 OFFCURVE",
"900 876 OFFCURVE",
"880 786 CURVE SMOOTH",
"862 704 OFFCURVE",
"805 626 OFFCURVE",
"713 598 CURVE SMOOTH",
"674 586 OFFCURVE",
"621 582 OFFCURVE",
"591 582 CURVE SMOOTH",
"221 582 LINE"
);
}
);
width = 1040;
},
{
layerId = "A27E663E-A13B-4DBD-B069-4CF983ECD621";
name = Layer5;
width = 1180;
},
{
layerId = "6751CA47-F6ED-42D7-BE33-6F49EA595F73";
name = Layer4;
width = 1070;
},
{
layerId = "3F31DAF6-41B6-44B9-8019-106AE6FC3ECE";
name = Layer3;
width = 1200;
}
);
leftKerningGroup = n;
rightKerningGroup = ve;
unicode = 0432;
},
{
glyphname = "ge-cy";
layers = (
{
layerId = "A27E663E-A13B-4DBD-B069-4CF983ECD621";
name = Layer5;
width = 1142;
},
{
layerId = "6751CA47-F6ED-42D7-BE33-6F49EA595F73";
name = Layer4;
width = 838;
},
{
layerId = "3F31DAF6-41B6-44B9-8019-106AE6FC3ECE";
name = Layer3;
width = 1200;
},
{
layerId = "0AC95DCC-852B-4BE6-AF8C-4094AF10EB8A";
paths = (
{
closed = 1;
nodes = (
"280 0 LINE",
"463 826 LINE",
"971 826 LINE",
"1027 1080 LINE",
"247 1080 LINE",
"8 0 LINE"
);
}
);
width = 970;
},
{
layerId = "E58920B2-55F1-4AE6-872B-62598678C0E3";
paths = (
{
closed = 1;
nodes = (
"92 0 LINE",
"313 996 LINE",
"949 996 LINE",
"967 1080 LINE",
"247 1080 LINE",
"8 0 LINE"
);
}
);
width = 910;
}
);
leftKerningGroup = r;
rightKerningGroup = r;
unicode = 0433;
},
{
glyphname = "gheupturn-cy";
layers = (
{
layerId = "0AC95DCC-852B-4BE6-AF8C-4094AF10EB8A";
paths = (
{
closed = 1;
nodes = (
"280 0 LINE",
"463 826 LINE",
"971 826 LINE",
"1081 1320 LINE",
"809 1320 LINE",
"755 1080 LINE",
"247 1080 LINE",
"8 0 LINE"
);
}
);
width = 970;
},
{
layerId = "E58920B2-55F1-4AE6-872B-62598678C0E3";
paths = (
{
closed = 1;
nodes = (
"92 0 LINE",
"313 996 LINE",
"949 996 LINE",
"1003 1240 LINE",
"919 1240 LINE",
"883 1080 LINE",
"247 1080 LINE",
"8 0 LINE"
);
}
);
width = 910;
},
{
layerId = "A27E663E-A13B-4DBD-B069-4CF983ECD621";
name = Layer5;
width = 1134;
},
{
layerId = "6751CA47-F6ED-42D7-BE33-6F49EA595F73";
name = Layer4;
width = 788;
},
{
layerId = "3F31DAF6-41B6-44B9-8019-106AE6FC3ECE";
name = Layer3;
width = 1200;
}
);
leftKerningGroup = r;
rightKerningGroup = r;
unicode = 0491;
},
{
glyphname = "de-cy";
layers = (
{
layerId = "0AC95DCC-852B-4BE6-AF8C-4094AF10EB8A";
paths = (
{
closed = 1;
nodes = (
"131 -240 LINE",
"184 0 LINE",
"842 0 LINE",
"789 -240 LINE",
"1045 -240 LINE",
"1145 210 LINE",
"1035 210 LINE",
"1227 1080 LINE",
"393 1080 LINE",
"337 870 OFFCURVE",
"279 662 OFFCURVE",
"215 484 CURVE SMOOTH",
"142 278 OFFCURVE",
"89 210 OFFCURVE",
"-25 210 CURVE",
"-125 -240 LINE"
);
},
{
closed = 1;
nodes = (
"323 210 LINE",
"389 266 OFFCURVE",
"420 332 OFFCURVE",
"458 450 CURVE SMOOTH",
"497 572 OFFCURVE",
"543 724 OFFCURVE",
"583 870 CURVE",
"909 870 LINE",
"763 210 LINE"
);
}
);
width = 1290;
},
{
layerId = "E58920B2-55F1-4AE6-872B-62598678C0E3";
paths = (
{
closed = 1;
nodes = (
"-41 -240 LINE",
"12 0 LINE",
"874 0 LINE",
"821 -240 LINE",
"905 -240 LINE",
"977 84 LINE",
"877 84 LINE",
"1097 1080 LINE",
"443 1080 LINE",
"335 674 OFFCURVE",
"280 488 OFFCURVE",
"205 322 CURVE SMOOTH",
"134 162 OFFCURVE",
"73 84 OFFCURVE",
"-53 84 CURVE",
"-125 -240 LINE"
);
},
{
closed = 1;
nodes = (
"147 84 LINE",
"197 122 OFFCURVE",
"232 190 OFFCURVE",
"275 274 CURVE SMOOTH",
"357 436 OFFCURVE",
"447 764 OFFCURVE",
"511 996 CURVE",
"995 996 LINE",
"793 84 LINE"
);
}
);
width = 1150;
},
{
layerId = "A27E663E-A13B-4DBD-B069-4CF983ECD621";
name = Layer5;
width = 1188;
},
{
layerId = "6751CA47-F6ED-42D7-BE33-6F49EA595F73";
name = Layer4;
width = 1126;
},
{
layerId = "3F31DAF6-41B6-44B9-8019-106AE6FC3ECE";
name = Layer3;
width = 1200;
}
);
leftKerningGroup = o;
rightKerningGroup = u;
unicode = 0434;
},
{
glyphname = "zhe-cy";
layers = (
{
layerId = "0AC95DCC-852B-4BE6-AF8C-4094AF10EB8A";
paths = (
{
closed = 1;
nodes = (
"202 0 LINE",
"651 520 LINE",
"536 0 LINE",
"776 0 LINE",
"891 520 LINE",
"1110 0 LINE",
"1424 0 LINE",
"1168 540 LINE",
"1637 1080 LINE",
"1341 1080 LINE",
"900 560 LINE",
"1015 1080 LINE",
"775 1080 LINE",
"660 560 LINE",
"449 1080 LINE",
"153 1080 LINE",
"384 540 LINE",
"-112 0 LINE"
);
}
);
width = 1576;
},
{
layerId = "E58920B2-55F1-4AE6-872B-62598678C0E3";
paths = (
{
closed = 1;
nodes = (
"-12 0 LINE",
"600 540 LINE",
"480 0 LINE",
"564 0 LINE",
"684 540 LINE",
"1056 0 LINE",
"1156 0 LINE",
"780 540 LINE",
"1379 1080 LINE",
"1279 1080 LINE",
"684 540 LINE",
"803 1080 LINE",
"719 1080 LINE",
"600 540 LINE",
"243 1080 LINE",
"143 1080 LINE",
"504 540 LINE",
"-112 0 LINE"
);
}
);
width = 1308;
},
{
layerId = "A27E663E-A13B-4DBD-B069-4CF983ECD621";
name = Layer5;
width = 1246;
},
{
layerId = "6751CA47-F6ED-42D7-BE33-6F49EA595F73";
name = Layer4;
width = 1490;
},
{
layerId = "3F31DAF6-41B6-44B9-8019-106AE6FC3ECE";
name = Layer3;
width = 1200;
}
);
leftKerningGroup = x;
rightKerningGroup = x;
unicode = 0436;
},
{
glyphname = "ze-cy";
layers = (
{
layerId = "7447FE7B-D73D-4904-ADEA-265673B512E2";
name = public.background;
paths = (
{
closed = 1;
nodes = (
"176 866 LINE",
"212 912 OFFCURVE",
"250 942 OFFCURVE",
"302 970 CURVE SMOOTH",
"370 1006 OFFCURVE",
"430 1026 OFFCURVE",
"524 1026 CURVE SMOOTH",
"602 1026 OFFCURVE",
"656 1012 OFFCURVE",
"708 980 CURVE SMOOTH",
"782 932 OFFCURVE",
"804 870 OFFCURVE",
"804 808 CURVE SMOOTH",
"804 714 OFFCURVE",
"752 664 OFFCURVE",
"708 638 CURVE SMOOTH",
"654 606 OFFCURVE",
"594 600 OFFCURVE",
"514 600 CURVE",
"374 600 LINE",
"374 518 LINE",
"514 518 LINE",
"594 518 OFFCURVE",
"684 508 OFFCURVE",
"734 482 CURVE SMOOTH",
"794 452 OFFCURVE",
"828 382 OFFCURVE",
"828 302 CURVE SMOOTH",
"828 226 OFFCURVE",
"800 158 OFFCURVE",
"722 106 CURVE SMOOTH",
"664 68 OFFCURVE",
"606 54 OFFCURVE",
"532 54 CURVE SMOOTH",
"408 54 OFFCURVE",
"324 92 OFFCURVE",
"270 128 CURVE SMOOTH",
"200 176 OFFCURVE",
"160 240 OFFCURVE",
"130 298 CURVE",
"60 258 LINE",
"94 192 OFFCURVE",
"136 120 OFFCURVE",
"222 60 CURVE SMOOTH",
"304 2 OFFCURVE",
"404 -30 OFFCURVE",
"536 -30 CURVE SMOOTH",
"628 -30 OFFCURVE",
"690 -14 OFFCURVE",
"756 26 CURVE SMOOTH",
"858 88 OFFCURVE",
"914 182 OFFCURVE",
"914 294 CURVE SMOOTH",
"914 398 OFFCURVE",
"866 520 OFFCURVE",
"754 562 CURVE",
"838 612 OFFCURVE",
"890 692 OFFCURVE",
"890 806 CURVE SMOOTH",
"890 906 OFFCURVE",
"848 994 OFFCURVE",
"752 1054 CURVE SMOOTH",
"678 1100 OFFCURVE",
"612 1110 OFFCURVE",
"532 1110 CURVE SMOOTH",
"410 1110 OFFCURVE",
"332 1086 OFFCURVE",
"264 1050 CURVE SMOOTH",
"196 1014 OFFCURVE",
"146 968 OFFCURVE",
"110 922 CURVE"
);
}
);
width = 1050;
},
{
layerId = "BD936841-78ED-4F7E-A3FC-D5A6245A6992";
name = Layer7;
width = 1152;
},
{
layerId = "63ADE33C-C0F2-45DC-8BA2-2E70B1572FB0";
name = Layer6;
width = 902;
},
{
layerId = "A27E663E-A13B-4DBD-B069-4CF983ECD621";
name = Layer5;
width = 1200;
},
{
layerId = "0AC95DCC-852B-4BE6-AF8C-4094AF10EB8A";
paths = (
{
closed = 1;
nodes = (
"668.044 -30 OFFCURVE",
"849.85 55.636 OFFCURVE",
"910 324 CURVE SMOOTH",
"937.936 449.712 OFFCURVE",
"917.661 535.792 OFFCURVE",
"809 600 CURVE",
"792 514 LINE",
"894.622 596.851 OFFCURVE",
"947.252 655.319 OFFCURVE",
"976 784 CURVE SMOOTH",
"1021.73 991.692 OFFCURVE",
"880.949 1110 OFFCURVE",
"644 1110 CURVE SMOOTH",
"440.217 1110 OFFCURVE",
"332.641 1057.223 OFFCURVE",
"166 940 CURVE",
"275 754 LINE",
"384.011 819.641 OFFCURVE",
"448.595 858 OFFCURVE",
"576 858 CURVE SMOOTH",
"654.909 858 OFFCURVE",
"704.334 824.296 OFFCURVE",
"690 758 CURVE SMOOTH",
"667.42 656.388 OFFCURVE",
"580.097 662 OFFCURVE",
"467 662 CURVE SMOOTH",
"403 662 LINE",
"356 450 LINE",
"420 450 LINE SMOOTH",
"553.363 450 OFFCURVE",
"661.092 455.451 OFFCURVE",
"638 352 CURVE SMOOTH",
"616.167 251.825 OFFCURVE",
"545.374 224 OFFCURVE",
"438 224 CURVE SMOOTH",
"326.675 224 OFFCURVE",
"266.282 259.051 OFFCURVE",
"199 348 CURVE",
"-47 204 LINE",
"38.255 15.405 OFFCURVE",
"172.16 -30 OFFCURVE",
"383 -30 CURVE SMOOTH"
);
}
);
width = 1050;
},
{
layerId = "E58920B2-55F1-4AE6-872B-62598678C0E3";
paths = (
{
closed = 1;
nodes = (
"641.453 -30 OFFCURVE",
"794.062 55.625 OFFCURVE",
"847 292 CURVE SMOOTH",
"881.718 451.443 OFFCURVE",
"830.097 564.823 OFFCURVE",
"682 576 CURVE",
"685 536 LINE",
"831.201 587.054 OFFCURVE",
"903.185 655.467 OFFCURVE",
"937 806 CURVE SMOOTH",
"978.889 996.032 OFFCURVE",
"858.348 1110 OFFCURVE",
"648 1110 CURVE SMOOTH",
"443.282 1110 OFFCURVE",
"327.86 1065.581 OFFCURVE",
"182 922 CURVE",
"236 866 LINE",
"356.226 984.986 OFFCURVE",
"449.89 1026 OFFCURVE",
"619 1026 CURVE SMOOTH",
"783.151 1026 OFFCURVE",
"881.722 946.268 OFFCURVE",
"850 804 CURVE SMOOTH",
"814.556 645.113 OFFCURVE",
"703.079 600 OFFCURVE",
"533 600 CURVE SMOOTH",
"375 600 LINE",
"357 518 LINE",
"517 518 LINE SMOOTH",
"687.875 518 OFFCURVE",
"794.41 443.878 OFFCURVE",
"763 300 CURVE SMOOTH",
"720.877 114.659 OFFCURVE",
"596.504 54 OFFCURVE",
"400 54 CURVE SMOOTH",
"218.045 54 OFFCURVE",
"112.878 124.21 OFFCURVE",
"64 298 CURVE",
"-15 258 LINE",
"42.399 49.069 OFFCURVE",
"173.191 -30 OFFCURVE",
"393 -30 CURVE SMOOTH"
);
}
);
width = 994;
}
);
leftKerningGroup = x;
rightKerningGroup = "ze-cy";
unicode = 0437;
},
{
glyphname = "ii-cy";
layers = (
{
layerId = "A27E663E-A13B-4DBD-B069-4CF983ECD621";
name = Layer5;
width = 1196;
},
{
layerId = "6751CA47-F6ED-42D7-BE33-6F49EA595F73";
name = Layer4;
width = 1176;
},
{
layerId = "3F31DAF6-41B6-44B9-8019-106AE6FC3ECE";
name = Layer3;
width = 1200;
},
{
layerId = "0AC95DCC-852B-4BE6-AF8C-4094AF10EB8A";
paths = (
{
closed = 1;
nodes = (
"995 1080 LINE",
"364 442 LINE",
"505 1080 LINE",
"245 1080 LINE",
"6 0 LINE",
"222 0 LINE",
"856 660 LINE",
"710 0 LINE",
"970 0 LINE",
"1209 1080 LINE"
);
}
);
width = 1242;
},
{
layerId = "E58920B2-55F1-4AE6-872B-62598678C0E3";
paths = (
{
closed = 1;
nodes = (
"975 1080 LINE",
"125 148 LINE",
"331 1080 LINE",
"247 1080 LINE",
"8 0 LINE",
"86 0 LINE",
"937 932 LINE",
"730 0 LINE",
"814 0 LINE",
"1053 1080 LINE"
);
}
);
width = 1086;
}
);
leftKerningGroup = n;
rightKerningGroup = u;
unicode = 0438;
},
{
glyphname = "ka-cy";
layers = (
{
layerId = "A27E663E-A13B-4DBD-B069-4CF983ECD621";
name = Layer5;
width = 1144;
},
{
layerId = "6751CA47-F6ED-42D7-BE33-6F49EA595F73";
name = Layer4;
width = 846;
},
{
layerId = "3F31DAF6-41B6-44B9-8019-106AE6FC3ECE";
name = Layer3;
width = 1200;
},
{
layerId = "0AC95DCC-852B-4BE6-AF8C-4094AF10EB8A";
paths = (
{
closed = 1;
nodes = (
"284 0 LINE",
"399 520 LINE",
"658 0 LINE",
"1012 0 LINE",
"716 540 LINE",
"1225 1080 LINE",
"889 1080 LINE",
"408 560 LINE",
"523 1080 LINE",
"247 1080 LINE",
"6 0 LINE"
);
}
);
width = 1104;
},
{
layerId = "E58920B2-55F1-4AE6-872B-62598678C0E3";
paths = (
{
closed = 1;
nodes = (
"92 0 LINE",
"207 520 LINE",
"700 0 LINE",
"844 0 LINE",
"314 540 LINE",
"997 1080 LINE",
"871 1080 LINE",
"216 560 LINE",
"331 1080 LINE",
"247 1080 LINE",
"8 0 LINE"
);
}
);
width = 936;
}
);
leftKerningGroup = k;
rightKerningGroup = k;
unicode = 043A;
},
{
glyphname = "el-cy";
layers = (
{
layerId = "0AC95DCC-852B-4BE6-AF8C-4094AF10EB8A";
paths = (
{
closed = 1;
nodes = (
"-92 0 LINE",
"155 -60 OFFCURVE",
"279 30 OFFCURVE",
"383 284 CURVE SMOOTH",
"439 418 OFFCURVE",
"520 686 OFFCURVE",
"563 826 CURVE",
"869 826 LINE",
"686 0 LINE",
"958 0 LINE",
"1197 1080 LINE",
"381 1080 LINE",
"311 826 OFFCURVE",
"230 552 OFFCURVE",
"160 380 CURVE SMOOTH",
"107 250 OFFCURVE",
"71 204 OFFCURVE",
"-42 226 CURVE"
);
}
);
width = 1230;
},
{
layerId = "E58920B2-55F1-4AE6-872B-62598678C0E3";
paths = (
{
closed = 1;
nodes = (
"-92 0 LINE",
"77 -30 OFFCURVE",
"123 32 OFFCURVE",
"182 172 CURVE SMOOTH",
"253 340 OFFCURVE",
"350 642 OFFCURVE",
"453 996 CURVE",
"977 996 LINE",
"756 0 LINE",
"840 0 LINE",
"1079 1080 LINE",
"385 1080 LINE",
"275 692 OFFCURVE",
"202 450 OFFCURVE",
"122 244 CURVE SMOOTH",
"79 132 OFFCURVE",
"43 58 OFFCURVE",
"-74 80 CURVE"
);
}
);
width = 1112;
},
{
layerId = "A27E663E-A13B-4DBD-B069-4CF983ECD621";
name = Layer5;
width = 1184;
},
{
layerId = "6751CA47-F6ED-42D7-BE33-6F49EA595F73";
name = Layer4;
width = 1100;
},
{
layerId = "3F31DAF6-41B6-44B9-8019-106AE6FC3ECE";
name = Layer3;
width = 1200;
}
);
leftKerningGroup = o;
rightKerningGroup = u;
unicode = 043B;
},
{
glyphname = "em-cy";
layers = (
{
layerId = "0AC95DCC-852B-4BE6-AF8C-4094AF10EB8A";
paths = (
{
closed = 1;
nodes = (
"266 0 LINE",
"385 538 LINE",
"554 0 LINE",
"650 0 LINE",
"1057 538 LINE",
"938 0 LINE",
"1198 0 LINE",
"1437 1080 LINE",
"1217 1080 LINE",
"686 380 LINE",
"465 1080 LINE",
"245 1080 LINE",
"6 0 LINE"
);
}
);
width = 1470;
},
{
layerId = "E58920B2-55F1-4AE6-872B-62598678C0E3";
paths = (
{
closed = 1;
nodes = (
"92 0 LINE",
"287 880 LINE",
"492 0 LINE",
"584 0 LINE",
"1179 880 LINE",
"984 0 LINE",
"1068 0 LINE",
"1307 1080 LINE",
"1221 1080 LINE",
"561 104 LINE",
"333 1080 LINE",
"247 1080 LINE",
"8 0 LINE"
);
}
);
width = 1340;
},
{
layerId = "A27E663E-A13B-4DBD-B069-4CF983ECD621";
name = Layer5;
width = 1230;
},
{
layerId = "6751CA47-F6ED-42D7-BE33-6F49EA595F73";
name = Layer4;
width = 1382;
},
{
layerId = "3F31DAF6-41B6-44B9-8019-106AE6FC3ECE";
name = Layer3;
width = 1200;
}
);
leftKerningGroup = m;
rightKerningGroup = u;
unicode = 043C;
},
{
glyphname = "en-cy";
layers = (
{
layerId = "A27E663E-A13B-4DBD-B069-4CF983ECD621";
name = Layer5;
width = 1196;
},
{
layerId = "6751CA47-F6ED-42D7-BE33-6F49EA595F73";
name = Layer4;
width = 1176;
},
{
layerId = "3F31DAF6-41B6-44B9-8019-106AE6FC3ECE";
name = Layer3;
width = 1200;
},
{
layerId = "0AC95DCC-852B-4BE6-AF8C-4094AF10EB8A";
paths = (
{
closed = 1;
nodes = (
"278 0 LINE",
"370 414 LINE",
"814 414 LINE",
"722 0 LINE",
"994 0 LINE",
"1233 1080 LINE",
"961 1080 LINE",
"870 668 LINE",
"426 668 LINE",
"517 1080 LINE",
"245 1080 LINE",
"6 0 LINE"
);
}
);
width = 1266;
},
{
layerId = "E58920B2-55F1-4AE6-872B-62598678C0E3";
paths = (
{
closed = 1;
nodes = (
"92 0 LINE",
"202 498 LINE",
"894 498 LINE",
"784 0 LINE",
"868 0 LINE",
"1107 1080 LINE",
"1023 1080 LINE",
"913 582 LINE",
"221 582 LINE",
"331 1080 LINE",
"247 1080 LINE",
"8 0 LINE"
);
}
);
width = 1140;
}
);
leftKerningGroup = n;
rightKerningGroup = u;
unicode = 043D;
},
{
glyphname = "pe-cy";
layers = (
{
layerId = "0AC95DCC-852B-4BE6-AF8C-4094AF10EB8A";
paths = (
{
closed = 1;
nodes = (
"278 0 LINE",
"461 826 LINE",
"881 826 LINE",
"698 0 LINE",
"970 0 LINE",
"1209 1080 LINE",
"245 1080 LINE",
"6 0 LINE"
);
}
);
width = 1242;
},
{
layerId = "E58920B2-55F1-4AE6-872B-62598678C0E3";
paths = (
{
closed = 1;
nodes = (
"92 0 LINE",
"313 996 LINE",
"951 996 LINE",
"730 0 LINE",
"814 0 LINE",
"1053 1080 LINE",
"247 1080 LINE",
"8 0 LINE"
);
}
);
width = 1086;
},
{
layerId = "A27E663E-A13B-4DBD-B069-4CF983ECD621";
name = Layer5;
width = 1196;
},
{
layerId = "6751CA47-F6ED-42D7-BE33-6F49EA595F73";
name = Layer4;
width = 1176;
},
{
layerId = "3F31DAF6-41B6-44B9-8019-106AE6FC3ECE";
name = Layer3;
width = 1200;
}
);
leftKerningGroup = n;
rightKerningGroup = u;
unicode = 043F;
},
{
glyphname = "te-cy";
layers = (
{
layerId = "0AC95DCC-852B-4BE6-AF8C-4094AF10EB8A";
paths = (
{
closed = 1;
nodes = (
"544 0 LINE",
"730 840 LINE",
"1084 840 LINE",
"1137 1080 LINE",
"157 1080 LINE",
"104 840 LINE",
"458 840 LINE",
"272 0 LINE"
);
}
);
width = 1080;
},
{
layerId = "E58920B2-55F1-4AE6-872B-62598678C0E3";
paths = (
{
closed = 1;
nodes = (
"400 0 LINE",
"621 996 LINE",
"1019 996 LINE",
"1037 1080 LINE",
"157 1080 LINE",
"139 996 LINE",
"537 996 LINE",
"316 0 LINE"
);
}
);
width = 980;
},
{
layerId = "A27E663E-A13B-4DBD-B069-4CF983ECD621";
name = Layer5;
width = 1148;
},
{
layerId = "6751CA47-F6ED-42D7-BE33-6F49EA595F73";
name = Layer4;
width = 876;
},
{
layerId = "3F31DAF6-41B6-44B9-8019-106AE6FC3ECE";
name = Layer3;
width = 1200;
}
);
leftKerningGroup = te;
rightKerningGroup = r;
unicode = 0442;
},
{
glyphname = "ef-cy";
layers = (
{
layerId = "A27E663E-A13B-4DBD-B069-4CF983ECD621";
name = Layer5;
width = 1230;
},
{
layerId = "6751CA47-F6ED-42D7-BE33-6F49EA595F73";
name = Layer4;
width = 1388;
},
{
layerId = "3F31DAF6-41B6-44B9-8019-106AE6FC3ECE";
name = Layer3;
width = 1200;
},
{
layerId = "0AC95DCC-852B-4BE6-AF8C-4094AF10EB8A";
paths = (
{
closed = 1;
nodes = (
"652 -450 LINE",
"748 -18 LINE",
"1135.213 -81.477 OFFCURVE",
"1346.208 136.44 OFFCURVE",
"1436 540 CURVE SMOOTH",
"1516.229 904.678 OFFCURVE",
"1330.759 1149.183 OFFCURVE",
"995 1098 CURVE",
"1067 1420 LINE",
"827 1420 LINE",
"755 1098 LINE",
"367.972 1161.656 OFFCURVE",
"156.81 943.681 OFFCURVE",
"68 540 CURVE SMOOTH",
"-13.106 175.48 OFFCURVE",
"172.387 -69.317 OFFCURVE",
"508 -18 CURVE",
"412 -450 LINE"
);
},
{
closed = 1;
nodes = (
"562 224 LINE",
"386.981 196.193 OFFCURVE",
"298.388 335.738 OFFCURVE",
"344 540 CURVE SMOOTH",
"392.134 760.347 OFFCURVE",
"495.288 889.604 OFFCURVE",
"701 854 CURVE"
);
},
{
closed = 1;
nodes = (
"941 854 LINE",
"1115.795 882.092 OFFCURVE",
"1205.1 743.429 OFFCURVE",
"1160 540 CURVE SMOOTH",
"1110.989 318.931 OFFCURVE",
"1008.422 188.554 OFFCURVE",
"802 224 CURVE"
);
}
);
width = 1528;
},
{
layerId = "E58920B2-55F1-4AE6-872B-62598678C0E3";
paths = (
{
closed = 1;
nodes = (
"508 -450 LINE",
"603 -22 LINE",
"995.721 -86.38 OFFCURVE",
"1212.966 130.258 OFFCURVE",
"1303 538 CURVE SMOOTH",
"1385.419 907.01 OFFCURVE",
"1194.502 1154.37 OFFCURVE",
"852 1102 CURVE",
"927 1438 LINE",
"843 1438 LINE",
"768 1102 LINE",
"374.403 1166.524 OFFCURVE",
"158.413 947.283 OFFCURVE",
"67 538 CURVE SMOOTH",
"-14.035 171.014 OFFCURVE",
"177.212 -74.261 OFFCURVE",
"519 -22 CURVE",
"424 -450 LINE"
);
},
{
closed = 1;
nodes = (
"538 62 LINE",
"249.638 15.656 OFFCURVE",
"87.975 224.98 OFFCURVE",
"157 538 CURVE SMOOTH",
"234.775 886.646 OFFCURVE",
"416.935 1075.646 OFFCURVE",
"750 1018 CURVE"
);
},
{
closed = 1;
nodes = (
"834 1018 LINE",
"1122.52 1064.369 OFFCURVE",
"1283.267 852.991 OFFCURVE",
"1213 538 CURVE SMOOTH",
"1136.529 191.214 OFFCURVE",
"953.73 4.585 OFFCURVE",
"622 62 CURVE"
);
}
);
width = 1396;
}
);
leftKerningGroup = o;
rightKerningGroup = o;
unicode = 0444;
},
{
glyphname = "che-cy";
layers = (
{
layerId = "A27E663E-A13B-4DBD-B069-4CF983ECD621";
name = Layer5;
width = 1172;
},
{
layerId = "6751CA47-F6ED-42D7-BE33-6F49EA595F73";
name = Layer4;
width = 1026;
},
{
layerId = "3F31DAF6-41B6-44B9-8019-106AE6FC3ECE";
name = Layer3;
width = 1200;
},
{
layerId = "0AC95DCC-852B-4BE6-AF8C-4094AF10EB8A";
paths = (
{
closed = 1;
nodes = (
"900 0 LINE",
"1139 1080 LINE",
"865 1080 LINE",
"758 596 LINE",
"704 560 OFFCURVE",
"634 532 OFFCURVE",
"542 532 CURVE SMOOTH",
"434 532 OFFCURVE",
"388 570 OFFCURVE",
"385 664 CURVE SMOOTH",
"384 720 OFFCURVE",
"398 784 OFFCURVE",
"404 810 CURVE SMOOTH",
"463 1080 LINE",
"187 1080 LINE",
"128 810 LINE SMOOTH",
"119 770 OFFCURVE",
"97 670 OFFCURVE",
"94 588 CURVE SMOOTH",
"90 396 OFFCURVE",
"199 292 OFFCURVE",
"423 292 CURVE SMOOTH",
"521 292 OFFCURVE",
"619 312 OFFCURVE",
"704 350 CURVE",
"626 0 LINE"
);
}
);
width = 1172;
},
{
layerId = "E58920B2-55F1-4AE6-872B-62598678C0E3";
paths = (
{
closed = 1;
nodes = (
"774 0 LINE",
"1013 1080 LINE",
"929 1080 LINE",
"804 512 LINE",
"688.095 443.511 OFFCURVE",
"611.577 430 OFFCURVE",
"477 430 CURVE SMOOTH",
"293.146 430 OFFCURVE",
"185.769 520.025 OFFCURVE",
"196 696 CURVE SMOOTH",
"199.861 760.346 OFFCURVE",
"208.021 795.096 OFFCURVE",
"222 858 CURVE SMOOTH",
"271 1080 LINE",
"187 1080 LINE",
"138 858 LINE SMOOTH",
"119.379 771.101 OFFCURVE",
"106.883 722.922 OFFCURVE",
"109 634 CURVE SMOOTH",
"111.171 438.58 OFFCURVE",
"241.164 356 OFFCURVE",
"449 356 CURVE SMOOTH",
"585.335 356 OFFCURVE",
"661.197 370.86 OFFCURVE",
"785 428 CURVE",
"690 0 LINE"
);
}
);
width = 1046;
}
);
leftKerningGroup = n;
rightKerningGroup = u;
unicode = 0447;
},
{
glyphname = "tse-cy";
layers = (
{
layerId = "0AC95DCC-852B-4BE6-AF8C-4094AF10EB8A";
paths = (
{
closed = 1;
nodes = (
"1123 -240 LINE",
"1229 240 LINE",
"1023 240 LINE",
"1209 1080 LINE",
"937 1080 LINE",
"754 254 LINE",
"334 254 LINE",
"517 1080 LINE",
"245 1080 LINE",
"6 0 LINE",
"904 0 LINE",
"851 -240 LINE"
);
}
);
width = 1328;
},
{
layerId = "E58920B2-55F1-4AE6-872B-62598678C0E3";
paths = (
{
closed = 1;
nodes = (
"1001 -160 LINE",
"1055 84 LINE",
"833 84 LINE",
"1053 1080 LINE",
"969 1080 LINE",
"749 84 LINE",
"111 84 LINE",
"331 1080 LINE",
"247 1080 LINE",
"8 0 LINE",
"952 0 LINE",
"917 -160 LINE"
);
}
);
width = 1188;
},
{
layerId = "A27E663E-A13B-4DBD-B069-4CF983ECD621";
name = Layer5;
width = 1210;
},
{
layerId = "6751CA47-F6ED-42D7-BE33-6F49EA595F73";
name = Layer4;
width = 1268;
},
{
layerId = "3F31DAF6-41B6-44B9-8019-106AE6FC3ECE";
name = Layer3;
width = 1200;
}
);
leftKerningGroup = n;
rightKerningGroup = "tse-cy";
unicode = 0446;
},
{
glyphname = "sha-cy";
layers = (
{
layerId = "0AC95DCC-852B-4BE6-AF8C-4094AF10EB8A";
paths = (
{
closed = 1;
nodes = (
"1330 0 LINE",
"1569 1080 LINE",
"1309 1080 LINE",
"1123 240 LINE",
"851 240 LINE",
"1037 1080 LINE",
"777 1080 LINE",
"591 240 LINE",
"319 240 LINE",
"505 1080 LINE",
"245 1080 LINE",
"6 0 LINE"
);
}
);
width = 1602;
},
{
layerId = "E58920B2-55F1-4AE6-872B-62598678C0E3";
paths = (
{
closed = 1;
nodes = (
"1202 0 LINE",
"1441 1080 LINE",
"1357 1080 LINE",
"1137 84 LINE",
"667 84 LINE",
"887 1080 LINE",
"803 1080 LINE",
"583 84 LINE",
"111 84 LINE",
"331 1080 LINE",
"247 1080 LINE",
"8 0 LINE"
);
}
);
width = 1474;
},
{
layerId = "A27E663E-A13B-4DBD-B069-4CF983ECD621";
name = Layer5;
width = 1280;
},
{
layerId = "6751CA47-F6ED-42D7-BE33-6F49EA595F73";
name = Layer4;
width = 1700;
},
{
layerId = "3F31DAF6-41B6-44B9-8019-106AE6FC3ECE";
name = Layer3;
width = 1200;
}
);
leftKerningGroup = n;
rightKerningGroup = u;
unicode = 0448;
},
{
glyphname = "shcha-cy";
layers = (
{
layerId = "0AC95DCC-852B-4BE6-AF8C-4094AF10EB8A";
paths = (
{
closed = 1;
nodes = (
"1365 -240 LINE",
"1471 240 LINE",
"1383 240 LINE",
"1569 1080 LINE",
"1309 1080 LINE",
"1123 240 LINE",
"851 240 LINE",
"1037 1080 LINE",
"777 1080 LINE",
"591 240 LINE",
"319 240 LINE",
"505 1080 LINE",
"245 1080 LINE",
"6 0 LINE",
"1146 0 LINE",
"1093 -240 LINE"
);
}
);
width = 1570;
},
{
layerId = "E58920B2-55F1-4AE6-872B-62598678C0E3";
paths = (
{
closed = 1;
nodes = (
"1335 -160 LINE",
"1389 84 LINE",
"1221 84 LINE",
"1441 1080 LINE",
"1357 1080 LINE",
"1137 84 LINE",
"667 84 LINE",
"887 1080 LINE",
"803 1080 LINE",
"583 84 LINE",
"111 84 LINE",
"331 1080 LINE",
"247 1080 LINE",
"8 0 LINE",
"1286 0 LINE",
"1251 -160 LINE"
);
}
);
width = 1522;
},
{
layerId = "A27E663E-A13B-4DBD-B069-4CF983ECD621";
name = Layer5;
width = 1290;
},
{
layerId = "6751CA47-F6ED-42D7-BE33-6F49EA595F73";
name = Layer4;
width = 1768;
},
{
layerId = "3F31DAF6-41B6-44B9-8019-106AE6FC3ECE";
name = Layer3;
width = 1200;
}
);
leftKerningGroup = n;
rightKerningGroup = "tse-cy";
unicode = 0449;
},
{
glyphname = "dzhe-cy";
layers = (
{
layerId = "0AC95DCC-852B-4BE6-AF8C-4094AF10EB8A";
paths = (
{
closed = 1;
nodes = (
"583 -240 LINE",
"636 0 LINE",
"970 0 LINE",
"1209 1080 LINE",
"937 1080 LINE",
"754 254 LINE",
"334 254 LINE",
"517 1080 LINE",
"245 1080 LINE",
"6 0 LINE",
"364 0 LINE",
"311 -240 LINE"
);
}
);
width = 1242;
},
{
layerId = "E58920B2-55F1-4AE6-872B-62598678C0E3";
paths = (
{
closed = 1;
nodes = (
"427 -240 LINE",
"480 0 LINE",
"814 0 LINE",
"1053 1080 LINE",
"969 1080 LINE",
"749 84 LINE",
"111 84 LINE",
"331 1080 LINE",
"247 1080 LINE",
"8 0 LINE",
"396 0 LINE",
"343 -240 LINE"
);
}
);
width = 1086;
},
{
layerId = "A27E663E-A13B-4DBD-B069-4CF983ECD621";
name = Layer5;
width = 1196;
},
{
layerId = "6751CA47-F6ED-42D7-BE33-6F49EA595F73";
name = Layer4;
width = 1176;
},
{
layerId = "3F31DAF6-41B6-44B9-8019-106AE6FC3ECE";
name = Layer3;
width = 1200;
}
);
leftKerningGroup = "sha-cy";
rightKerningGroup = "sha-cy";
unicode = 045F;
},
{
glyphname = "softsign-cy";
layers = (
{
layerId = "A27E663E-A13B-4DBD-B069-4CF983ECD621";
name = Layer5;
width = 1168;
},
{
layerId = "6751CA47-F6ED-42D7-BE33-6F49EA595F73";
name = Layer4;
width = 1002;
},
{
layerId = "3F31DAF6-41B6-44B9-8019-106AE6FC3ECE";
name = Layer3;
width = 1200;
},
{
layerId = "0AC95DCC-852B-4BE6-AF8C-4094AF10EB8A";
paths = (
{
closed = 1;
nodes = (
"452 0 LINE SMOOTH",
"534.377 0 OFFCURVE",
"580.441 -3.576 OFFCURVE",
"661 14 CURVE SMOOTH",
"873.236 61.164 OFFCURVE",
"982.815 154.867 OFFCURVE",
"1029 366 CURVE SMOOTH",
"1070.351 553.959 OFFCURVE",
"1000.97 681.074 OFFCURVE",
"817 724 CURVE",
"738.933 739.613 OFFCURVE",
"694.546 736 OFFCURVE",
"615 736 CURVE SMOOTH",
"441 736 LINE",
"517 1080 LINE",
"245 1080 LINE",
"6 0 LINE"
);
},
{
closed = 1;
nodes = (
"395 526 LINE",
"599 526 LINE SMOOTH",
"629.615 526 OFFCURVE",
"646.723 525.008 OFFCURVE",
"676 516 CURVE SMOOTH",
"748.167 495.006 OFFCURVE",
"770.006 442.028 OFFCURVE",
"753 366 CURVE SMOOTH",
"735.189 282.881 OFFCURVE",
"697.02 242.243 OFFCURVE",
"615 220 CURVE SMOOTH",
"581.934 211.734 OFFCURVE",
"563.078 210 OFFCURVE",
"529 210 CURVE SMOOTH",
"325 210 LINE"
);
}
);
width = 1160;
},
{
layerId = "E58920B2-55F1-4AE6-872B-62598678C0E3";
paths = (
{
closed = 1;
nodes = (
"406 0 LINE SMOOTH",
"475.012 0 OFFCURVE",
"513.343 0.239 OFFCURVE",
"581 14 CURVE SMOOTH",
"761.119 50.024 OFFCURVE",
"843.368 141.675 OFFCURVE",
"883 322 CURVE SMOOTH",
"920.888 490.026 OFFCURVE",
"851.436 603.09 OFFCURVE",
"684 632 CURVE SMOOTH",
"623.539 642.993 OFFCURVE",
"589.421 642 OFFCURVE",
"528 642 CURVE SMOOTH",
"236 642 LINE",
"333 1080 LINE",
"247 1080 LINE",
"10 0 LINE"
);
},
{
closed = 1;
nodes = (
"218 558 LINE",
"506 558 LINE SMOOTH",
"569.473 558 OFFCURVE",
"604.823 558.954 OFFCURVE",
"667 546 CURVE SMOOTH",
"780.519 522.215 OFFCURVE",
"819.231 440.04 OFFCURVE",
"793 322 CURVE SMOOTH",
"765.217 195.714 OFFCURVE",
"710.497 130.999 OFFCURVE",
"586 98 CURVE SMOOTH",
"515.262 79.314 OFFCURVE",
"474.061 84 OFFCURVE",
"401 84 CURVE SMOOTH",
"113 84 LINE"
);
}
);
width = 1024;
}
);
leftKerningGroup = n;
rightKerningGroup = b;
unicode = 044C;
},
{
glyphname = "hardsign-cy";
layers = (
{
layerId = "0AC95DCC-852B-4BE6-AF8C-4094AF10EB8A";
paths = (
{
closed = 1;
nodes = (
"514 0 LINE SMOOTH",
"596.377 0 OFFCURVE",
"642.441 -3.576 OFFCURVE",
"723 14 CURVE SMOOTH",
"935.236 61.164 OFFCURVE",
"1044.815 154.867 OFFCURVE",
"1091 366 CURVE SMOOTH",
"1132.351 553.959 OFFCURVE",
"1062.97 681.074 OFFCURVE",
"879 724 CURVE",
"800.933 739.613 OFFCURVE",
"756.546 736 OFFCURVE",
"677 736 CURVE SMOOTH",
"503 736 LINE",
"579 1080 LINE",
"147 1080 LINE",
"101 870 LINE",
"261 870 LINE",
"68 0 LINE"
);
},
{
closed = 1;
nodes = (
"457 526 LINE",
"661 526 LINE SMOOTH",
"691.615 526 OFFCURVE",
"708.723 525.008 OFFCURVE",
"738 516 CURVE SMOOTH",
"810.167 495.006 OFFCURVE",
"832.006 442.028 OFFCURVE",
"815 366 CURVE SMOOTH",
"797.189 282.881 OFFCURVE",
"759.02 242.243 OFFCURVE",
"677 220 CURVE SMOOTH",
"643.934 211.734 OFFCURVE",
"625.078 210 OFFCURVE",
"591 210 CURVE SMOOTH",
"387 210 LINE"
);
}
);
width = 1222;
},
{
layerId = "E58920B2-55F1-4AE6-872B-62598678C0E3";
paths = (
{
closed = 1;
nodes = (
"446 0 LINE SMOOTH",
"515.012 0 OFFCURVE",
"553.343 0.239 OFFCURVE",
"621 14 CURVE SMOOTH",
"801.119 50.024 OFFCURVE",
"883.368 141.675 OFFCURVE",
"923 322 CURVE SMOOTH",
"960.888 490.026 OFFCURVE",
"891.436 603.09 OFFCURVE",
"724 632 CURVE SMOOTH",
"663.539 642.993 OFFCURVE",
"629.421 642 OFFCURVE",
"568 642 CURVE SMOOTH",
"276 642 LINE",
"373 1080 LINE",
"147 1080 LINE",
"129 996 LINE",
"269 996 LINE",
"50 0 LINE"
);
},
{
closed = 1;
nodes = (
"258 558 LINE",
"546 558 LINE SMOOTH",
"609.473 558 OFFCURVE",
"644.823 558.954 OFFCURVE",
"707 546 CURVE SMOOTH",
"820.519 522.215 OFFCURVE",
"859.231 440.04 OFFCURVE",
"833 322 CURVE SMOOTH",
"805.217 195.714 OFFCURVE",
"750.497 130.999 OFFCURVE",
"626 98 CURVE SMOOTH",
"555.262 79.314 OFFCURVE",
"514.061 84 OFFCURVE",
"441 84 CURVE SMOOTH",
"153 84 LINE"
);
}
);
width = 1064;
},
{
layerId = "A27E663E-A13B-4DBD-B069-4CF983ECD621";
name = Layer5;
width = 1184;
},
{
layerId = "6751CA47-F6ED-42D7-BE33-6F49EA595F73";
name = Layer4;
width = 1102;
},
{
layerId = "3F31DAF6-41B6-44B9-8019-106AE6FC3ECE";
name = Layer3;
width = 1200;
}
);
rightKerningGroup = b;
unicode = 044A;
},
{
glyphname = "yeru-cy";
layers = (
{
layerId = "A27E663E-A13B-4DBD-B069-4CF983ECD621";
name = Layer5;
width = 1234;
},
{
layerId = "3F31DAF6-41B6-44B9-8019-106AE6FC3ECE";
name = Layer3;
width = 1200;
},
{
layerId = "6751CA47-F6ED-42D7-BE33-6F49EA595F73";
name = Layer4;
width = 1416;
},
{
components = (
{
name = idotless;
transform = "{1, 0, 0, 1, 952, 0}";
alignment = -1;
}
);
layerId = "0AC95DCC-852B-4BE6-AF8C-4094AF10EB8A";
paths = (
{
closed = 1;
nodes = (
"376 0 LINE SMOOTH",
"458.377 0 OFFCURVE",
"504.441 -3.576 OFFCURVE",
"585 14 CURVE SMOOTH",
"797.236 61.164 OFFCURVE",
"906.815 154.867 OFFCURVE",
"953 366 CURVE SMOOTH",
"994.351 553.959 OFFCURVE",
"924.97 681.074 OFFCURVE",
"741 724 CURVE",
"662.933 739.613 OFFCURVE",
"618.546 736 OFFCURVE",
"539 736 CURVE SMOOTH",
"441 736 LINE",
"517 1080 LINE",
"245 1080 LINE",
"6 0 LINE"
);
},
{
closed = 1;
nodes = (
"395 526 LINE",
"523 526 LINE SMOOTH",
"553.615 526 OFFCURVE",
"570.723 525.008 OFFCURVE",
"600 516 CURVE SMOOTH",
"672.167 495.006 OFFCURVE",
"694.006 442.028 OFFCURVE",
"677 366 CURVE SMOOTH",
"659.189 282.881 OFFCURVE",
"621.02 242.243 OFFCURVE",
"539 220 CURVE SMOOTH",
"505.934 211.734 OFFCURVE",
"487.078 210 OFFCURVE",
"453 210 CURVE SMOOTH",
"325 210 LINE"
);
}
);
width = 1524;
},
{
components = (
{
name = idotless;
transform = "{1, 0, 0, 1, 864, 0}";
alignment = -1;
}
);
layerId = "E58920B2-55F1-4AE6-872B-62598678C0E3";
paths = (
{
closed = 1;
nodes = (
"346 0 LINE SMOOTH",
"415.012 0 OFFCURVE",
"453.343 0.239 OFFCURVE",
"521 14 CURVE SMOOTH",
"701.119 50.024 OFFCURVE",
"783.368 141.675 OFFCURVE",
"823 322 CURVE SMOOTH",
"860.654 488.987 OFFCURVE",
"790.918 600.552 OFFCURVE",
"624 632 CURVE SMOOTH",
"563.539 642.993 OFFCURVE",
"529.421 642 OFFCURVE",
"468 642 CURVE SMOOTH",
"236 642 LINE",
"333 1080 LINE",
"247 1080 LINE",
"10 0 LINE"
);
},
{
closed = 1;
nodes = (
"218 558 LINE",
"446 558 LINE SMOOTH",
"509.473 558 OFFCURVE",
"544.823 558.954 OFFCURVE",
"607 546 CURVE SMOOTH",
"720.519 522.215 OFFCURVE",
"759.231 440.04 OFFCURVE",
"733 322 CURVE SMOOTH",
"705.217 195.714 OFFCURVE",
"650.497 130.999 OFFCURVE",
"526 98 CURVE SMOOTH",
"455.262 79.314 OFFCURVE",
"414.061 84 OFFCURVE",
"341 84 CURVE SMOOTH",
"113 84 LINE"
);
}
);
width = 1248;
}
);
leftKerningGroup = n;
rightKerningGroup = u;
unicode = 044B;
},
